<svg width="35" height="29" viewBox="0 0 35 29" fill="none" xmlns="http://www.w3.org/2000/svg">
    <path d="M32.3804 21.2947V7.30812C32.3804 5.29879 30.7457 3.66406 28.7363 3.66406H26.0831C26.8849 5.12009 27.3418 6.79152 27.3418 8.5679C27.3418 14.1918 22.7664 18.7672 17.1425 18.7672C11.5186 18.7672 6.94314 14.1918 6.94314 8.5679C6.94314 6.79152 7.40004 5.12009 8.2018 3.66406H5.5486C3.53926 3.66406 1.90454 5.29879 1.90454 7.30812V21.2948L32.3804 21.2947Z" fill="#143664"/>
    <path d="M34.104 24.3664C34.104 23.7671 33.6182 23.2812 33.0189 23.2812H1.26629C0.667004 23.2812 0.181152 23.7671 0.181152 24.3664C0.181152 26.5581 1.95786 28.3348 4.14953 28.3348H30.1356C32.3273 28.3348 34.104 26.5581 34.104 24.3664Z" fill="#143664"/>
    <path d="M8.93091 8.56705C8.93091 11.0727 10.0594 13.3195 11.8344 14.8269V13.5086C11.8344 12.09 12.7309 10.8773 13.9868 10.406C13.4976 9.75018 13.2076 8.93749 13.2076 8.05821V6.53599C13.2076 4.36625 14.9728 2.601 17.1426 2.601C19.3124 2.601 21.0775 4.36625 21.0775 6.53599V8.05821C21.0775 8.93841 20.7869 9.75197 20.2968 10.4082C21.5499 10.881 22.4438 12.0921 22.4438 13.5087V14.8329C24.2228 13.3255 25.3542 11.0761 25.3542 8.56712C25.3542 4.03921 21.6705 0.355469 17.1426 0.355469C12.6147 0.355469 8.93091 4.03908 8.93091 8.56705Z" fill="#143664"/>
    <path d="M13.822 16.0767C14.8379 16.5276 15.9614 16.7788 17.1426 16.7788C18.3211 16.7788 19.4422 16.5288 20.4562 16.0798V13.5087C20.4562 12.778 19.8617 12.1836 19.1311 12.1836H15.1472C14.4165 12.1836 13.8221 12.778 13.8221 13.5087V16.0767H13.822Z" fill="#143664"/>
    <path d="M15.1953 6.53521V8.05743C15.1953 9.13117 16.0689 10.0047 17.1426 10.0047C18.2163 10.0047 19.0899 9.1311 19.0899 8.05743V6.53521C19.0899 5.46147 18.2163 4.58789 17.1426 4.58789C16.0688 4.58789 15.1953 5.46147 15.1953 6.53521Z" fill="#143664"/>
</svg>
