<svg width="28" height="27" viewBox="0 0 28 27" fill="none" xmlns="http://www.w3.org/2000/svg">
    <path fill-rule="evenodd" clip-rule="evenodd" d="M14.0605 3.22095C10.3151 3.22095 7.27809 6.40408 7.27809 10.3303V12.0259C7.27809 13.7446 6.85862 15.4347 6.05958 16.9356L4.97698 18.9689C4.57976 19.7149 5.09425 20.6336 5.90926 20.6336L22.2089 20.6335C23.0239 20.6335 23.5383 19.7146 23.1412 18.9686L22.0615 16.9409C21.2625 15.4402 20.843 13.7501 20.843 12.0314V10.3303C20.843 6.40408 17.806 3.22095 14.0605 3.22095ZM5.14278 10.3303C5.14278 5.16741 9.13609 0.982422 14.0605 0.982422C18.985 0.982422 22.9783 5.16741 22.9783 10.3303V12.0314C22.9783 13.3681 23.3046 14.6827 23.9261 15.8499L25.0056 17.8775C26.1973 20.1158 24.6539 22.8719 22.2089 22.872L5.90929 22.8722C3.46425 22.8722 1.92079 20.1161 3.11246 17.8778L4.19505 15.8445C4.81652 14.6772 5.14278 13.3627 5.14278 12.0259V10.3303Z" fill="#FF0000"/>
    <path fill-rule="evenodd" clip-rule="evenodd" d="M9.80863 21.3919C10.3844 21.2583 10.9543 21.6393 11.0817 22.243C11.3838 23.6739 12.6026 24.7433 14.0574 24.7433C15.5121 24.7433 16.7309 23.6739 17.033 22.243C17.1604 21.6393 17.7304 21.2583 18.306 21.3919C18.8817 21.5255 19.2452 22.1232 19.1177 22.7267C18.604 25.1607 16.5349 26.9818 14.0574 26.9818C11.5798 26.9818 9.5107 25.1607 8.99688 22.7267C8.86948 22.1232 9.23291 21.5255 9.80863 21.3919Z" fill="#FF0000"/>
    <path fill-rule="evenodd" clip-rule="evenodd" d="M4.46328 1.90794C4.9492 2.2581 5.07234 2.95493 4.73832 3.46434C3.66943 5.09449 2.94068 7.01731 2.67069 9.10654C2.59154 9.71909 2.05368 10.1484 1.46938 10.0654C0.885057 9.98244 0.475562 9.41858 0.554711 8.80603C0.870081 6.36566 1.72248 4.11205 2.97866 2.19628C3.31267 1.68688 3.97737 1.55777 4.46328 1.90794ZM23.6502 1.90794C24.1361 1.55777 24.8009 1.68688 25.1348 2.19628C26.3909 4.11205 27.2434 6.36566 27.5588 8.80603C27.638 9.41858 27.2284 9.98244 26.6441 10.0654C26.0598 10.1484 25.522 9.71909 25.4427 9.10654C25.1728 7.01731 24.4441 5.09449 23.3752 3.46434C23.0412 2.95493 23.1644 2.2581 23.6502 1.90794Z" fill="#FF0000"/>
    <path fill-rule="evenodd" clip-rule="evenodd" d="M14.0574 6.31641C14.647 6.31641 15.1251 6.81752 15.1251 7.43567V12.6589C15.1251 13.277 14.647 13.7781 14.0574 13.7781C13.4678 13.7781 12.9897 13.277 12.9897 12.6589V7.43567C12.9897 6.81752 13.4678 6.31641 14.0574 6.31641Z" fill="#FF0000"/>
    <path fill-rule="evenodd" clip-rule="evenodd" d="M14.0574 15.3945C14.647 15.3945 15.1251 15.8958 15.1251 16.5141V16.8376C15.1251 17.4559 14.647 17.9571 14.0574 17.9571C13.4678 17.9571 12.9897 17.4559 12.9897 16.8376V16.5141C12.9897 15.8958 13.4678 15.3945 14.0574 15.3945Z" fill="#FF0000"/>
</svg>
