<svg width="11" height="11" viewBox="0 0 11 11" fill="none" xmlns="http://www.w3.org/2000/svg">
<path d="M5.47266 9.76762C5.47281 9.5948 5.54243 9.42911 5.6662 9.30698L9.04083 5.97305C9.14297 5.87216 9.224 5.75239 9.27928 5.62056C9.33456 5.48873 9.36301 5.34744 9.36301 5.20475C9.36301 5.06205 9.33456 4.92076 9.27928 4.78893C9.224 4.65711 9.14297 4.53733 9.04083 4.43645L5.67059 1.10468C5.55041 0.981741 5.4839 0.817085 5.48541 0.646175C5.48691 0.475265 5.5563 0.311775 5.67863 0.190919C5.80096 0.070063 5.96645 0.0015098 6.13944 2.46412e-05C6.31244 -0.00146052 6.47911 0.0642412 6.60354 0.182979L9.97378 3.51214C10.4269 3.96072 10.6814 4.56859 10.6814 5.20236C10.6814 5.83612 10.4269 6.44399 9.97378 6.89257L6.59915 10.2265C6.507 10.3176 6.38961 10.3797 6.26179 10.4049C6.13397 10.4302 6.00144 10.4175 5.88093 10.3684C5.76042 10.3193 5.65733 10.236 5.58467 10.1291C5.51201 10.0222 5.47303 9.8964 5.47266 9.76762Z" fill="#E8EDF4"/>
<path d="M0 9.76762C0.000153998 9.5948 0.0697689 9.42911 0.19354 9.30698L3.56817 5.97305C3.67031 5.87216 3.75134 5.75239 3.80662 5.62056C3.8619 5.48873 3.89035 5.34744 3.89035 5.20475C3.89035 5.06205 3.8619 4.92076 3.80662 4.78893C3.75134 4.65711 3.67031 4.53733 3.56817 4.43645L0.197938 1.10468C0.0777514 0.981741 0.0112478 0.817085 0.0127511 0.646175C0.0142544 0.475265 0.0836444 0.311775 0.205976 0.190919C0.328307 0.070063 0.493792 0.0015098 0.666788 2.46412e-05C0.839784 -0.00146052 1.00645 0.0642412 1.13089 0.182979L4.50112 3.51214C4.95428 3.96072 5.20879 4.56859 5.20879 5.20236C5.20879 5.83612 4.95428 6.44399 4.50112 6.89257L1.12649 10.2265C1.03435 10.3176 0.916958 10.3797 0.789135 10.4049C0.661313 10.4302 0.528785 10.4175 0.408276 10.3684C0.287767 10.3193 0.184677 10.236 0.112015 10.1291C0.0393528 10.0222 0.000374894 9.8964 0 9.76762Z" fill="#E8EDF4"/>
</svg>
