<svg width="33" height="33" viewBox="0 0 33 33" fill="none" xmlns="http://www.w3.org/2000/svg">
    <path d="M25.1023 23.0012C25.1023 24.0944 24.2174 24.9792 23.1243 24.9792C22.0311 24.9792 21.1463 24.0944 21.1463 23.0012C21.1463 21.908 22.0311 21.0232 23.1243 21.0232C24.2174 21.0232 25.1023 21.908 25.1023 23.0012ZM31.9685 31.8455C31.7114 32.1026 31.3738 32.2318 31.0362 32.2318C30.6987 32.2318 30.3611 32.1026 30.1039 31.8455L27.7013 29.4429C26.4077 30.3646 24.8306 30.9132 23.1243 30.9132C18.7621 30.9132 15.2123 27.3633 15.2123 23.0012C15.2123 18.6391 18.7621 15.0893 23.1243 15.0893C27.4864 15.0893 31.0362 18.6391 31.0362 23.0012C31.0362 24.7076 30.4877 26.2847 29.5659 27.5783L31.9685 29.9809C32.4841 30.4965 32.4841 31.3299 31.9685 31.8455ZM28.0574 24.0944C28.4978 23.4337 28.4978 22.5687 28.0574 21.9067C27.224 20.6553 25.6574 19.0439 23.1243 19.0439C20.5265 19.0439 18.9467 20.7371 18.1305 21.999C17.7428 22.5977 17.7428 23.4021 18.1305 24.0008C18.9481 25.2627 20.5291 26.9559 23.1243 26.9559C25.7629 26.9559 27.6776 24.664 28.0574 24.0931V24.0944ZM17.8496 11.1333H26.4737C26.0161 9.92933 25.3132 8.82166 24.3757 7.88409L19.7815 3.28724C18.8426 2.34967 17.7349 1.64682 16.531 1.19057V9.81461C16.531 10.5412 17.1217 11.1333 17.8496 11.1333ZM12.575 23.0012C12.575 19.032 14.7811 15.5706 18.029 13.7706H17.8496C15.6686 13.7706 13.8936 11.9957 13.8936 9.81461V0.615632C13.6813 0.601127 13.469 0.583984 13.2541 0.583984H7.30033C3.66479 0.583984 0.707031 3.54174 0.707031 7.17729V25.6385C0.707031 29.2741 3.66479 32.2318 7.30033 32.2318H18.029C14.7811 30.4319 12.575 26.9704 12.575 23.0012Z" fill="#143664"/>
</svg>
