<svg width="33" height="32" viewBox="0 0 33 32" fill="none" xmlns="http://www.w3.org/2000/svg">
    <path d="M4.26103 20.6445L0.999937 26.2811C0.908493 26.4395 0.860352 26.6192 0.860352 26.802C0.860352 26.9849 0.908493 27.1646 0.999937 27.323C1.09173 27.482 1.22391 27.6139 1.38309 27.7054C1.54226 27.7969 1.72278 27.8447 1.90637 27.8439H5.51128L7.32416 30.9696C7.41507 31.127 7.5456 31.258 7.70279 31.3494C7.85998 31.4408 8.03835 31.4894 8.22018 31.4905C8.40376 31.4912 8.58429 31.4434 8.74346 31.352C8.90264 31.2605 9.03482 31.1286 9.12661 30.9696L11.7105 26.4999C8.64492 25.4315 6.02339 23.3709 4.26103 20.6445Z" fill="#143664"/>
    <path d="M31.9854 26.2811L28.7244 20.6445C26.962 23.3709 24.3405 25.4315 21.2749 26.4999L23.8588 30.9696C23.9506 31.1286 24.0827 31.2605 24.2419 31.352C24.4011 31.4434 24.5816 31.4912 24.7652 31.4905C24.947 31.4894 25.1254 31.4408 25.2826 31.3494C25.4398 31.258 25.5703 31.127 25.6612 30.9696L27.4741 27.8439H31.079C31.2626 27.8447 31.4431 27.7969 31.6023 27.7054C31.7615 27.6139 31.8936 27.482 31.9854 27.323C32.0769 27.1646 32.125 26.9849 32.125 26.802C32.125 26.6192 32.0769 26.4395 31.9854 26.2811Z" fill="#143664"/>
    <path d="M17.5345 10.4857L16.4926 7.41211L15.5132 10.5378C15.4426 10.7553 15.3023 10.9436 15.114 11.0736C14.9257 11.2035 14.6999 11.2678 14.4714 11.2567H11.2832L13.8879 13.132C14.0676 13.2606 14.2017 13.4429 14.271 13.6526C14.3403 13.8623 14.3411 14.0887 14.2734 14.2989L13.2315 17.3725L15.8362 15.4659C16.0147 15.3355 16.2299 15.2652 16.4509 15.2652C16.6719 15.2652 16.8872 15.3355 17.0656 15.4659L19.6808 17.3621L18.6389 14.2989C18.5711 14.0887 18.572 13.8623 18.6413 13.6526C18.7106 13.4429 18.8447 13.2606 19.0244 13.132L21.702 11.1941H18.4826C18.2714 11.1862 18.0675 11.1141 17.8982 10.9876C17.7288 10.8611 17.602 10.686 17.5345 10.4857Z" fill="#143664"/>
    <path d="M28.9954 12.737C28.9954 10.2642 28.2621 7.84693 26.8883 5.7909C25.5145 3.73486 23.5619 2.13237 21.2773 1.18608C18.9928 0.239792 16.4789 -0.00780052 14.0537 0.474614C11.6284 0.957029 9.40068 2.14778 7.65216 3.8963C5.90364 5.64482 4.71289 7.87256 4.23047 10.2978C3.74806 12.7231 3.99565 15.2369 4.94194 17.5215C5.88823 19.806 7.49072 21.7587 9.54676 23.1325C11.6028 24.5063 14.02 25.2395 16.4928 25.2395C19.8087 25.2395 22.9888 23.9223 25.3335 21.5776C27.6782 19.2329 28.9954 16.0528 28.9954 12.737ZM22.9212 12.8828L20.9312 14.331L21.7022 16.6753C21.8339 17.0919 21.8314 17.5393 21.6949 17.9544C21.5584 18.3695 21.2949 18.7311 20.9416 18.9882C20.5858 19.2466 20.1572 19.3858 19.7174 19.3858C19.2776 19.3858 18.8491 19.2466 18.4932 18.9882L16.4928 17.5504L14.4924 18.9882C14.1376 19.2448 13.7109 19.3831 13.273 19.3834C12.8351 19.3838 12.4082 19.2461 12.053 18.9901C11.6978 18.734 11.4322 18.3726 11.2941 17.9571C11.1559 17.5415 11.1522 17.093 11.2834 16.6753L12.044 14.331L10.0644 12.8828C9.7123 12.6234 9.45077 12.2597 9.31686 11.8433C9.18295 11.4269 9.18345 10.9789 9.3183 10.5629C9.45315 10.1468 9.71551 9.7837 10.0682 9.52503C10.4209 9.26636 10.846 9.12523 11.2834 9.12163H13.7527L14.5132 6.76698C14.6503 6.35008 14.9154 5.98709 15.2709 5.72975C15.6263 5.47241 16.054 5.33387 16.4928 5.33387C16.9317 5.33387 17.3593 5.47241 17.7148 5.72975C18.0702 5.98709 18.3354 6.35008 18.4724 6.76698L19.233 9.12163H21.7022C22.1396 9.12523 22.5647 9.26636 22.9174 9.52503C23.2701 9.7837 23.5325 10.1468 23.6673 10.5629C23.8022 10.9789 23.8027 11.4269 23.6688 11.8433C23.5349 12.2597 23.2733 12.6234 22.9212 12.8828Z" fill="#143664"/>
</svg>
