<svg width="33" height="33" viewBox="0 0 33 33" fill="none" xmlns="http://www.w3.org/2000/svg">
    <path d="M32.1487 5.3245C32.1487 3.59344 30.7408 2.18555 29.0098 2.18555H25.7092V5.27836C25.7092 5.91307 25.1899 6.4324 24.5552 6.4324C23.9204 6.4324 23.4011 5.91307 23.4011 5.27836V2.18555H8.88337V5.27836C8.88337 5.91307 8.36404 6.4324 7.72933 6.4324C7.09455 6.4324 6.57529 5.91307 6.57529 5.27836V2.18555H3.27469C1.54363 2.18555 0.135742 3.59344 0.135742 5.3245V8.14035H32.1487V5.3245Z" fill="#143664"/>
    <path d="M3.27469 28.2907H5.07499C4.09408 26.5019 3.54017 24.4477 3.54017 22.2666C3.54017 16.8657 6.96763 12.238 11.7569 10.4492H0.135742V25.1632C0.135742 26.8943 1.54363 28.2907 3.27469 28.2907Z" fill="#143664"/>
    <path d="M29.0101 28.2907C30.7411 28.2907 32.149 26.8943 32.149 25.1632V10.4492H20.5278C25.3171 12.238 28.7446 16.8657 28.7446 22.2666C28.7446 24.4477 28.1907 26.5019 27.2098 28.2907H29.0101Z" fill="#143664"/>
    <path d="M8.88327 1.40208C8.88327 0.767378 8.36394 0.248047 7.72923 0.248047C7.09446 0.248047 6.5752 0.767378 6.5752 1.40208V2.18682H8.88327V1.40208Z" fill="#143664"/>
    <path d="M25.7094 1.40208C25.7094 0.767378 25.1902 0.248047 24.5554 0.248047C23.9207 0.248047 23.4014 0.767378 23.4014 1.40208V2.18682H25.7094V1.40208Z" fill="#143664"/>
    <path d="M16.1426 11.9727C10.4648 11.9727 5.84863 16.5888 5.84863 22.2667C5.84863 27.9446 10.4648 32.5607 16.1426 32.5607C21.8205 32.5607 26.4366 27.9446 26.4366 22.2667C26.4366 16.5888 21.8205 11.9727 16.1426 11.9727ZM19.7779 21.4127C19.5586 21.6319 19.2701 21.7474 18.97 21.7474C18.6815 21.7474 18.3815 21.6319 18.1506 21.4011L17.2967 20.5241V26.8367C17.2967 27.4714 16.7773 27.9907 16.1426 27.9907C15.5079 27.9907 14.9886 27.4714 14.9886 26.8367V20.5241L14.1346 21.4011C13.6845 21.8512 12.9575 21.8628 12.5074 21.4127C12.0458 20.9741 12.0343 20.2356 12.4843 19.7855L15.3232 16.8889C15.531 16.6811 15.8195 16.5427 16.1426 16.5427C16.4658 16.5427 16.7543 16.6811 16.962 16.8889L19.8009 19.7855C20.251 20.2356 20.2394 20.9741 19.7779 21.4127Z" fill="#143664"/>
</svg>
