<svg width="33" height="33" viewBox="0 0 33 33" fill="none" xmlns="http://www.w3.org/2000/svg">
    <path d="M16.1426 0.476562C7.35775 0.476562 0.210938 7.62338 0.210938 16.4082C0.210938 25.193 7.35775 32.3398 16.1426 32.3398C24.9274 32.3398 32.0742 25.193 32.0742 16.4082C32.0742 7.62338 24.9274 0.476562 16.1426 0.476562ZM21.9417 18.8699C22.8646 19.7928 22.8646 21.2845 21.9417 22.2073C21.4814 22.6676 20.8772 22.8989 20.273 22.8989C19.6688 22.8989 19.0646 22.6676 18.6043 22.2073L16.1426 19.7456L13.6808 22.2073C13.2206 22.6676 12.6164 22.8989 12.0122 22.8989C11.4079 22.8989 10.8037 22.6676 10.3435 22.2073C9.42061 21.2845 9.42061 19.7928 10.3435 18.8699L12.8052 16.4082L10.3435 13.9465C9.42061 13.0236 9.42061 11.5319 10.3435 10.6091C11.2663 9.68623 12.758 9.68623 13.6808 10.6091L16.1426 13.0708L18.6043 10.6091C19.5272 9.68623 21.0188 9.68623 21.9417 10.6091C22.8646 11.5319 22.8646 13.0236 21.9417 13.9465L19.48 16.4082L21.9417 18.8699Z" fill="#143664"/>
</svg>
