<svg width="21" height="21" viewBox="0 0 21 21" fill="none" xmlns="http://www.w3.org/2000/svg">
<path d="M9.62986 18.5801C9.57681 18.5801 9.52433 18.5692 9.47573 18.5479C9.42712 18.5266 9.38345 18.4955 9.34744 18.4566L1.73255 10.2195C1.68179 10.1645 1.64814 10.096 1.63572 10.0223C1.62329 9.94853 1.63264 9.87276 1.6626 9.80425C1.69257 9.73573 1.74187 9.67744 1.80445 9.6365C1.86703 9.59557 1.94019 9.57376 2.01498 9.57376H5.68036C5.7354 9.57377 5.78979 9.58558 5.83987 9.6084C5.88995 9.63122 5.93455 9.66451 5.97067 9.70603L8.51559 12.6339C8.79063 12.046 9.32305 11.067 10.2574 9.87419C11.6386 8.11072 14.2077 5.51722 18.6033 3.17599C18.6882 3.13075 18.7871 3.11901 18.8803 3.14309C18.9735 3.16716 19.0542 3.22531 19.1067 3.30604C19.1591 3.38677 19.1793 3.48422 19.1634 3.57914C19.1474 3.67407 19.0965 3.75957 19.0206 3.81876C19.0038 3.83188 17.3091 5.16649 15.3586 7.61107C13.5635 9.86069 11.1773 13.5391 10.0031 18.288C9.98247 18.3714 9.93449 18.4455 9.86682 18.4985C9.79915 18.5515 9.71569 18.5803 9.62975 18.5803L9.62986 18.5801Z" fill="white"/>
</svg>
