<svg width="32" height="33" viewBox="0 0 32 33" fill="none" xmlns="http://www.w3.org/2000/svg">
    <path d="M3.73563 26.56C2.49079 25.0548 1.54113 23.328 0.936523 21.4707L3.73563 26.56Z" fill="#143664"/>
    <path d="M28.7241 6.78694L23.6348 2.41016C25.6224 3.49163 27.3571 4.98355 28.7241 6.78694Z" fill="#143664"/>
    <path d="M0.936523 21.4707L3.73563 26.56C2.49079 25.0548 1.54113 23.328 0.936523 21.4707Z" fill="#143664"/>
    <path d="M28.7241 6.78694L23.6348 2.41016C25.6224 3.49163 27.3571 4.98355 28.7241 6.78694Z" fill="#143664"/>
    <path fill-rule="evenodd" clip-rule="evenodd" d="M23.6348 2.41016L28.724 6.78694C27.3573 4.98355 25.6224 3.49163 23.6348 2.41016ZM0.936523 21.4695C1.54113 23.3269 2.49079 25.0537 3.73563 26.5588L0.936523 21.4695Z" fill="#143664"/>
    <path fill-rule="evenodd" clip-rule="evenodd" d="M23.6342 2.41049L28.7235 6.78728C30.8157 9.54517 31.9343 12.9191 31.9043 16.3806C31.9272 23.1 27.7247 29.1089 21.4051 31.3925C15.0854 33.676 8.0126 31.7413 3.73505 26.5592L0.935945 21.4699C-0.70329 16.6165 0.0956525 11.2704 3.08235 7.10842C6.069 2.9464 10.8776 0.477682 16.0002 0.476562C18.6658 0.479642 21.2888 1.14428 23.6342 2.41049ZM15.3386 23.2766L22.9726 15.6426L22.8453 15.719C23.8433 14.7212 23.8433 13.1033 22.8453 12.1056C21.8476 11.1078 20.2297 11.1078 19.2319 12.1056L14.1427 17.1949L13.1757 15.261C12.809 14.3805 11.9807 13.7789 11.03 13.7026C10.0791 13.6265 9.16558 14.0884 8.66327 14.8994C8.16121 15.7101 8.15459 16.7338 8.64622 17.5511L11.1909 22.6404C11.5545 23.3695 12.2451 23.8802 13.0485 24.0145H13.4556C14.1584 24.0392 14.8399 23.772 15.3386 23.2766Z" fill="#143664"/>
</svg>
