<svg width="28" height="36" viewBox="0 0 28 36" fill="none" xmlns="http://www.w3.org/2000/svg">
    <path fill-rule="evenodd" clip-rule="evenodd" d="M25.6571 4.86151C26.4954 4.86151 27.1791 5.54519 27.1791 6.38351V34.3887C27.1791 35.227 26.4954 35.9107 25.6571 35.9107H2.21805C1.3798 35.9107 0.696045 35.227 0.696045 34.3887V6.38351C0.696045 5.54519 1.37973 4.86151 2.21805 4.86151H6.94858V6.13437C6.94858 7.14638 7.77158 7.96932 8.78359 7.96932H19.0916C20.1035 7.96932 20.9266 7.14631 20.9266 6.13437V4.86151H25.6571ZM8.78359 2.88294C8.39485 2.88294 8.07782 3.19997 8.07782 3.58871V6.13444C8.07782 6.52311 8.39485 6.84022 8.78359 6.84022H19.0916C19.4803 6.84022 19.7974 6.52318 19.7974 6.13444V3.58871C19.7974 3.19997 19.4803 2.88294 19.0916 2.88294H16.4528C16.179 1.7477 15.1568 0.904297 13.9376 0.904297C12.7183 0.904297 11.6962 1.7477 11.4224 2.88294H8.78359ZM13.1327 12.7778H20.6139C20.9257 12.7778 21.1786 12.525 21.1786 12.2132C21.1786 11.9014 20.9257 11.6486 20.6139 11.6486H13.1327C12.8209 11.6486 12.5681 11.9014 12.5681 12.2132C12.5681 12.525 12.8209 12.7778 13.1327 12.7778ZM13.1327 31.5932H18.0026C18.3144 31.5932 18.5672 31.3404 18.5672 31.0285C18.5672 30.7167 18.3144 30.4639 18.0026 30.4639H13.1327C12.8209 30.4639 12.5681 30.7167 12.5681 31.0285C12.5681 31.3404 12.8209 31.5932 13.1327 31.5932ZM13.1327 29.2288H20.6139C20.9257 29.2288 21.1786 28.976 21.1786 28.6642C21.1786 28.3524 20.9257 28.0996 20.6139 28.0996H13.1327C12.8209 28.0996 12.5681 28.3524 12.5681 28.6642C12.5681 28.976 12.8209 29.2288 13.1327 29.2288ZM13.1327 23.3677H18.0026C18.3144 23.3677 18.5672 23.1149 18.5672 22.8031C18.5672 22.4913 18.3144 22.2385 18.0026 22.2385H13.1327C12.8209 22.2385 12.5681 22.4913 12.5681 22.8031C12.5681 23.1149 12.8209 23.3677 13.1327 23.3677ZM13.1327 21.0033H20.6139C20.9257 21.0033 21.1786 20.7505 21.1786 20.4387C21.1786 20.1269 20.9257 19.8741 20.6139 19.8741H13.1327C12.8209 19.8741 12.5681 20.1269 12.5681 20.4387C12.5681 20.7506 12.8209 21.0033 13.1327 21.0033ZM13.1327 15.1422H18.0026C18.3144 15.1422 18.5672 14.8894 18.5672 14.5776C18.5672 14.2657 18.3144 14.0129 18.0026 14.0129H13.1327C12.8209 14.0129 12.5681 14.2657 12.5681 14.5776C12.5681 14.8894 12.8209 15.1422 13.1327 15.1422ZM5.21724 10.7487C4.91587 10.7487 4.66928 10.9952 4.66928 11.2966V15.4941C4.66928 15.7954 4.9158 16.042 5.21724 16.042H9.4147C9.71606 16.042 9.96259 15.7955 9.96259 15.4941V11.2966C9.96259 10.9953 9.71606 10.7487 9.4147 10.7487H5.21724ZM5.21724 27.1997C4.91587 27.1997 4.66928 27.4462 4.66928 27.7477V31.9451C4.66928 32.2465 4.9158 32.4931 5.21724 32.4931H9.4147C9.71606 32.4931 9.96259 32.2466 9.96259 31.9451V27.7477C9.96259 27.4463 9.71606 27.1997 9.4147 27.1997H5.21724ZM5.21724 18.9742C4.91587 18.9742 4.66928 19.2207 4.66928 19.5221V23.7195C4.66928 24.0209 4.9158 24.2675 5.21724 24.2675H9.4147C9.71606 24.2675 9.96259 24.021 9.96259 23.7195V19.5221C9.96259 19.2207 9.71606 18.9742 9.4147 18.9742H5.21724ZM7.88055 27.1997H6.75131V28.4153C6.75131 28.7272 7.00412 28.98 7.31593 28.98C7.62774 28.98 7.88055 28.7272 7.88055 28.4153V27.1997ZM7.88055 18.9742H6.75131V20.1898C6.75131 20.5016 7.00412 20.7544 7.31593 20.7544C7.62774 20.7544 7.88055 20.5016 7.88055 20.1898V18.9742ZM7.88055 10.7487H6.75131V11.9643C6.75131 12.2761 7.00412 12.5289 7.31593 12.5289C7.62774 12.5289 7.88055 12.2761 7.88055 11.9643V10.7487Z" fill="#143664"/>
</svg>
