<svg width="33" height="33" viewBox="0 0 33 33" fill="none" xmlns="http://www.w3.org/2000/svg">
    <path d="M16.1426 0.445312C12.9915 0.445312 9.91127 1.3797 7.29129 3.13031C4.67131 4.88093 2.62929 7.36915 1.42344 10.2803C0.217597 13.1915 -0.0979076 16.3948 0.516827 19.4853C1.13156 22.5758 2.64892 25.4146 4.87703 27.6427C7.10514 29.8708 9.94393 31.3882 13.0344 32.0029C16.1249 32.6176 19.3282 32.3021 22.2394 31.0963C25.1506 29.8904 27.6388 27.8484 29.3894 25.2284C31.14 22.6085 32.0744 19.5282 32.0744 16.3772C32.0744 12.1518 30.3959 8.09945 27.4081 5.11165C24.4203 2.12384 20.3679 0.445313 16.1426 0.445312ZM23.8427 18.5656H16.1441C15.5637 18.5656 15.0071 18.335 14.5967 17.9246C14.1862 17.5142 13.9557 16.9576 13.9557 16.3772V7.10912C13.9557 6.52871 14.1862 5.97207 14.5967 5.56166C15.0071 5.15124 15.5637 4.92068 16.1441 4.92068C16.7245 4.92068 17.2812 5.15124 17.6916 5.56166C18.102 5.97207 18.3326 6.52871 18.3326 7.10912V14.1887H23.8427C24.4232 14.1887 24.9798 14.4193 25.3902 14.8297C25.8006 15.2401 26.0312 15.7968 26.0312 16.3772C26.0312 16.9576 25.8006 17.5142 25.3902 17.9246C24.9798 18.335 24.4232 18.5656 23.8427 18.5656Z" fill="#143664"/>
</svg>
