<svg width="32" height="32" viewBox="0 0 32 32" fill="none" xmlns="http://www.w3.org/2000/svg">
    <path d="M26.3268 10.4471C26.3268 9.34888 25.8906 8.29559 25.114 7.51902L19.6867 2.09175C18.9101 1.31518 17.8569 0.878906 16.7586 0.878906H4.58717C2.30023 0.878906 0.446289 2.73284 0.446289 5.01979V27.7947C0.446289 30.0816 2.30023 31.9355 4.58717 31.9355H18.5868C16.3298 30.4349 14.7646 27.9764 14.4716 25.1404C14.116 25.1841 13.7539 25.2066 13.3866 25.2066C8.52681 25.2066 4.58717 21.267 4.58717 16.4072C4.58717 11.5475 8.52681 7.60784 13.3866 7.60784C17.7682 7.60784 21.4019 10.8105 22.0744 15.0026C22.6145 14.9052 23.1707 14.8544 23.7388 14.8544C24.6368 14.8544 25.5052 14.9815 26.3268 15.2185V10.4471Z" fill="#143664"/>
    <path d="M14.4222 12.2657C14.4222 11.6939 13.9587 11.2305 13.3869 11.2305C12.8152 11.2305 12.3517 11.6939 12.3517 12.2657V15.3714H10.7989C10.2271 15.3714 9.76367 15.8348 9.76367 16.4066C9.76367 16.9783 10.2271 17.4418 10.7989 17.4418H13.3869C13.9587 17.4418 14.4222 16.9783 14.4222 16.4066V12.2657Z" fill="#143664"/>
    <path fill-rule="evenodd" clip-rule="evenodd" d="M31.5029 24.1704C31.5029 19.8824 28.0268 16.4062 23.7388 16.4062C19.4507 16.4062 15.9746 19.8824 15.9746 24.1704C15.9746 28.4585 19.4507 31.9346 23.7388 31.9346C28.0268 31.9346 31.5029 28.4585 31.5029 24.1704ZM26.7459 22.0232C26.9894 21.5059 26.7673 20.8891 26.25 20.6457C25.7327 20.4022 25.116 20.6243 24.8725 21.1416L23.1527 24.7963L22.4837 23.9412C22.1314 23.4908 21.4807 23.4114 21.0304 23.7637C20.5802 24.116 20.5007 24.7666 20.853 25.2169L22.558 27.3964C22.7795 27.6794 23.132 27.8274 23.4891 27.7872C23.8463 27.747 24.1571 27.5245 24.3101 27.1993L26.7459 22.0232Z" fill="#143664"/>
</svg>
