<svg width="31" height="34" viewBox="0 0 31 34" fill="none" xmlns="http://www.w3.org/2000/svg">
    <path d="M22.0957 6.88398C22.0957 7.32191 22.2697 7.7419 22.5793 8.05156C22.889 8.36122 23.309 8.53519 23.7469 8.53519H29.295C29.1719 8.36829 29.0396 8.20843 28.8987 8.05634L22.5746 1.73223C22.4225 1.59129 22.2626 1.45898 22.0957 1.33594V6.88398Z" fill="#143664"/>
    <path d="M23.7477 11.8358C22.4339 11.8358 21.174 11.3139 20.245 10.3849C19.316 9.45591 18.7941 8.19594 18.7941 6.88216V0.277344H5.58447C4.27069 0.277344 3.01072 0.799241 2.08174 1.72822C1.15276 2.65721 0.630859 3.91718 0.630859 5.23096V28.3478C0.630859 29.6616 1.15276 30.9216 2.08174 31.8506C3.01072 32.7795 4.27069 33.3014 5.58447 33.3014H25.3989C26.7127 33.3014 27.9727 32.7795 28.9017 31.8506C29.8306 30.9216 30.3525 29.6616 30.3525 28.3478V11.8358H23.7477ZM7.23568 6.05656H12.1893C12.6272 6.05656 13.0472 6.23053 13.3569 6.54019C13.6665 6.84985 13.8405 7.26984 13.8405 7.70776C13.8405 8.14569 13.6665 8.56568 13.3569 8.87534C13.0472 9.185 12.6272 9.35897 12.1893 9.35897H7.23568C6.79775 9.35897 6.37776 9.185 6.0681 8.87534C5.75844 8.56568 5.58447 8.14569 5.58447 7.70776C5.58447 7.26984 5.75844 6.84985 6.0681 6.54019C6.37776 6.23053 6.79775 6.05656 7.23568 6.05656ZM7.23568 11.8358H15.4917C15.9296 11.8358 16.3496 12.0097 16.6593 12.3194C16.9689 12.6291 17.1429 13.0491 17.1429 13.487C17.1429 13.9249 16.9689 14.3449 16.6593 14.6546C16.3496 14.9642 15.9296 15.1382 15.4917 15.1382H7.23568C6.79775 15.1382 6.37776 14.9642 6.0681 14.6546C5.75844 14.3449 5.58447 13.9249 5.58447 13.487C5.58447 13.0491 5.75844 12.6291 6.0681 12.3194C6.37776 12.0097 6.79775 11.8358 7.23568 11.8358ZM5.58447 19.2662C5.58447 18.8283 5.75844 18.4083 6.0681 18.0986C6.37776 17.789 6.79775 17.615 7.23568 17.615H18.7941C19.232 17.615 19.652 17.789 19.9617 18.0986C20.2713 18.4083 20.4453 18.8283 20.4453 19.2662C20.4453 19.7041 20.2713 20.1241 19.9617 20.4338C19.652 20.7434 19.232 20.9174 18.7941 20.9174H7.23568C6.79775 20.9174 6.37776 20.7434 6.0681 20.4338C5.75844 20.1241 5.58447 19.7041 5.58447 19.2662ZM24.6559 27.5222L23.0872 28.5625C22.3609 29.0697 21.4963 29.3417 20.6104 29.3417C19.7245 29.3417 18.86 29.0697 18.1336 28.5625L16.598 30.0981C16.4445 30.2529 16.2619 30.3757 16.0607 30.4595C15.8595 30.5434 15.6436 30.5865 15.4257 30.5865C15.2077 30.5865 14.9919 30.5434 14.7906 30.4595C14.5894 30.3757 14.4068 30.2529 14.2533 30.0981C13.9458 29.7887 13.7731 29.3702 13.7731 28.934C13.7731 28.4978 13.9458 28.0793 14.2533 27.7699L17.1429 25.0454C17.3418 24.8444 17.589 24.6979 17.8608 24.6198C18.1325 24.5417 18.4198 24.5348 18.695 24.5996C18.9358 24.6583 19.1602 24.7704 19.3517 24.9276C19.5432 25.0848 19.6969 25.2831 19.8013 25.5077C19.8707 25.6354 19.9648 25.7479 20.0782 25.8386C20.1917 25.9294 20.3221 25.9965 20.4618 26.0361C20.6075 26.0708 20.7588 26.0755 20.9064 26.0499C21.054 26.0244 21.1948 25.9691 21.3205 25.8875L22.9717 24.8308C23.3373 24.5985 23.7796 24.5192 24.2032 24.6101C24.6267 24.7009 24.9976 24.9545 25.2359 25.3163C25.4742 25.678 25.5608 26.119 25.477 26.544C25.3932 26.969 25.1457 27.344 24.788 27.5883L24.6559 27.5222Z" fill="#143664"/>
</svg>
