<svg width="33" height="33" viewBox="0 0 33 33" fill="none" xmlns="http://www.w3.org/2000/svg">
    <path d="M29.1193 0.220703H3.86604C1.90154 0.220703 0.304688 1.81755 0.304688 3.78206V29.0353C0.304688 30.9998 1.90154 32.5967 3.86604 32.5967H29.1193C31.0838 32.5967 32.6807 30.9998 32.6807 29.0353V3.78206C32.6807 1.81755 31.0838 0.220703 29.1193 0.220703ZM9.91322 25.8032C4.73306 22.1705 3.47095 15.0094 7.09816 9.82924C9.24375 6.76724 12.7612 4.93991 16.5037 4.93991C18.8638 4.93991 21.1351 5.65877 23.0727 7.01417C28.2523 10.6469 29.515 17.808 25.8877 22.9881C23.7422 26.0501 20.2247 27.8775 16.4823 27.8775C14.1221 27.8775 11.8503 27.1586 9.91322 25.8032ZM26.178 30.4401C26.178 30.7419 25.9366 30.9889 25.6293 30.9889H23.6867C23.3844 30.9889 23.138 30.7419 23.138 30.4401V28.4976C23.138 28.1957 23.3844 27.9488 23.6867 27.9488H25.6293C25.9366 27.9488 26.178 28.1957 26.178 28.4976V30.4401ZM29.6351 30.4401C29.6351 30.7419 29.3882 30.9889 29.0864 30.9889H27.1438C26.842 30.9889 26.5951 30.7419 26.5951 30.4401V28.4976C26.5951 28.1957 26.842 27.9488 27.1438 27.9488H29.0864C29.3882 27.9488 29.6351 28.1957 29.6351 28.4976V30.4401Z" fill="#143664"/>
    <path d="M26.2001 13.5821C25.8319 12.2706 24.9709 11.1786 23.7857 10.5091C22.5949 9.84515 21.2175 9.67504 19.9005 10.0482C18.0403 10.575 16.641 12.1115 16.2788 13.9827L14.3253 7.08496C14.2435 6.79413 13.9357 6.6295 13.6448 6.70633C10.9395 7.47457 9.35914 10.2951 10.1219 13.0059C10.6547 14.8662 12.1857 16.2655 14.0509 16.6276L7.16965 18.5537C7.02697 18.5922 6.9068 18.6854 6.83546 18.8117C6.76357 18.9379 6.74766 19.086 6.78552 19.2287C7.15373 20.5402 8.00923 21.6322 9.2 22.3017C9.97373 22.7407 10.8298 22.9602 11.6913 22.9602C12.1577 22.9602 12.6187 22.8998 13.0796 22.7681C14.9399 22.2413 16.3386 20.7048 16.7063 18.8336L18.6604 25.7313C18.7262 25.9728 18.9457 26.1319 19.1872 26.1319C19.2366 26.1319 19.2859 26.1209 19.3353 26.11C22.0412 25.3472 23.6216 22.5212 22.8643 19.8049C22.3315 17.9501 20.795 16.5508 18.9298 16.1886L25.8166 14.2625C26.1123 14.1802 26.2824 13.8784 26.2001 13.5821ZM17.4367 17.0721C17.0855 17.5715 16.3337 17.7087 15.8288 17.3575C15.5764 17.1764 15.4058 16.913 15.3514 16.6112C15.3021 16.3039 15.3679 15.9966 15.5435 15.7442C15.763 15.4369 16.1142 15.2503 16.4928 15.2503C16.7343 15.2503 16.9593 15.3271 17.1568 15.4588C17.4092 15.6399 17.5799 15.9033 17.6342 16.2051C17.6836 16.5124 17.6178 16.8197 17.4367 17.0721Z" fill="#143664"/>
</svg>
