<svg width="33" height="32" viewBox="0 0 33 32" fill="none" xmlns="http://www.w3.org/2000/svg">
    <path d="M26.7953 0.291016H5.48952C2.55199 0.291016 0.163086 2.67992 0.163086 5.61745V21.5968C0.163086 24.5343 2.55199 26.9232 5.48952 26.9232H9.38181L14.374 31.1271C14.8827 31.5785 15.5205 31.8022 16.1544 31.8022C16.7776 31.8022 17.3941 31.5852 17.8748 31.1577L22.9988 26.9232H26.7966C29.7341 26.9232 32.123 24.5343 32.123 21.5968V5.61745C32.123 2.67992 29.7328 0.291016 26.7953 0.291016ZM11.4818 6.94906C13.3207 6.94906 14.8108 8.43913 14.8108 10.2781C14.8108 12.117 13.3207 13.6071 11.4818 13.6071C9.64281 13.6071 8.15274 12.117 8.15274 10.2781C8.15274 8.43913 9.64281 6.94906 11.4818 6.94906ZM16.3128 20.1333C15.6643 20.4489 14.8547 20.1786 14.5365 19.5088C13.9799 18.3503 12.7814 17.6006 11.4818 17.6006C10.1821 17.6006 8.98366 18.349 8.42705 19.5088C8.11013 20.1719 7.31649 20.4542 6.65068 20.1333C5.98754 19.8151 5.7079 19.0201 6.02616 18.357C7.0222 16.2796 9.16343 14.9387 11.4818 14.9387C13.8001 14.9387 15.9413 16.281 16.9374 18.357C17.2556 19.0201 16.976 19.8151 16.3128 20.1333ZM25.4636 14.9387H24.132V16.2703C24.132 17.0054 23.5368 17.6019 22.8004 17.6019C22.0641 17.6019 21.4688 17.0054 21.4688 16.2703V14.9387H20.1372C19.4008 14.9387 18.8056 14.3421 18.8056 13.6071C18.8056 12.8721 19.4008 12.2755 20.1372 12.2755H21.4688V10.9439C21.4688 10.2088 22.0641 9.61228 22.8004 9.61228C23.5368 9.61228 24.132 10.2088 24.132 10.9439V12.2755H25.4636C26.2 12.2755 26.7953 12.8721 26.7953 13.6071C26.7953 14.3421 26.2 14.9387 25.4636 14.9387Z" fill="#143664"/>
</svg>
