<svg width="25" height="26" viewBox="0 0 25 26" fill="none" xmlns="http://www.w3.org/2000/svg">
<path d="M2.92078 4.80455C2.92078 4.19943 3.41098 3.70923 4.0161 3.70923C4.62121 3.70923 5.11093 4.19943 5.11093 4.80455C5.11093 5.40966 4.62073 5.89938 4.0161 5.89938C3.41146 5.89938 2.92078 5.40918 2.92078 4.80455Z" fill="#1479FF"/>
<path d="M6.57153 4.80468C6.57153 4.40126 6.89833 4.07446 7.30175 4.07446H10.9523C11.3557 4.07446 11.6825 4.40126 11.6825 4.80468C11.6825 5.20809 11.3557 5.5344 10.9523 5.5344H7.30175C6.89833 5.5344 6.57153 5.2076 6.57153 4.80468Z" fill="#1479FF"/>
<path d="M22.1158 5.08633C22.3636 5.40488 22.3064 5.86357 21.9878 6.11085L18.7023 8.6666C18.5205 8.8077 18.2834 8.85521 18.0618 8.7946L14.3002 7.76862L10.5245 9.48506C10.3888 9.54664 10.238 9.56555 10.0915 9.53888L6.27417 8.84455L3.54193 9.86907C3.1647 10.0107 2.74384 9.81913 2.60226 9.4419C2.46067 9.06419 2.65171 8.64333 3.02943 8.50174L5.94979 7.40642C6.07343 7.36036 6.20726 7.34824 6.3372 7.372L10.1279 8.061L13.9361 6.33001C14.0912 6.25971 14.2658 6.24565 14.4302 6.29074L18.0938 7.28957L21.0913 4.95832C21.4098 4.71055 21.8685 4.76825 22.1158 5.08633Z" fill="#1479FF"/>
<path d="M22.6351 0.788452H2.19064C0.98089 0.788452 0 1.76934 0 2.97909V10.2807C0 11.4905 0.98089 12.4709 2.19064 12.4709H22.6351C23.8449 12.4709 24.8253 11.4905 24.8253 10.2807V2.97909C24.8253 1.76934 23.8449 0.788452 22.6351 0.788452ZM23.3649 10.2807C23.3649 10.6837 23.0381 11.0109 22.6351 11.0109H2.19064C1.78723 11.0109 1.46043 10.6837 1.46043 10.2807V2.97909C1.46043 2.57568 1.78723 2.24888 2.19064 2.24888H22.6351C23.0381 2.24888 23.3649 2.57568 23.3649 2.97909V10.2807Z" fill="#1479FF"/>
<path d="M9.12734 19.7725C9.12734 21.5874 7.65625 23.0585 5.84138 23.0585C4.02652 23.0585 2.55591 21.5874 2.55591 19.7725C2.55591 17.9577 4.027 16.4871 5.84138 16.4871C6.24479 16.4871 6.57159 16.8139 6.57159 17.2173C6.57159 17.6207 6.24479 17.947 5.84138 17.947C4.83334 17.947 4.01633 18.7645 4.01633 19.7725C4.01633 20.7806 4.83334 21.5981 5.84138 21.5981C6.84942 21.5981 7.66691 20.7806 7.66691 19.7725C7.66691 19.3691 7.99371 19.0423 8.39712 19.0423C8.80054 19.0423 9.12734 19.3691 9.12734 19.7725Z" fill="white"/>
<path d="M9.49228 13.9313H2.19064C0.98089 13.9313 0 14.9122 0 16.1219V23.4236C0 24.6333 0.98089 25.6137 2.19064 25.6137H9.49228C10.702 25.6137 11.6824 24.6333 11.6824 23.4236V16.1219C11.6824 14.9122 10.702 13.9313 9.49228 13.9313ZM10.2225 23.4236C10.2225 23.8265 9.89521 24.1538 9.49228 24.1538H2.19064C1.78723 24.1538 1.46043 23.8265 1.46043 23.4236V16.1219C1.46043 15.7185 1.78723 15.3917 2.19064 15.3917H9.49228C9.89521 15.3917 10.2225 15.7185 10.2225 16.1219V23.4236Z" fill="white"/>
<path d="M9.12734 19.7725C9.12734 21.5874 7.65625 23.0585 5.84138 23.0585C4.02652 23.0585 2.55591 21.5874 2.55591 19.7725C2.55591 17.9577 4.027 16.4871 5.84138 16.4871C6.24479 16.4871 6.57159 16.8139 6.57159 17.2173C6.57159 17.6207 6.24479 17.947 5.84138 17.947C4.83334 17.947 4.01633 18.7645 4.01633 19.7725C4.01633 20.7806 4.83334 21.5981 5.84138 21.5981C6.84942 21.5981 7.66691 20.7806 7.66691 19.7725C7.66691 19.3691 7.99371 19.0423 8.39712 19.0423C8.80054 19.0423 9.12734 19.3691 9.12734 19.7725Z" fill="white"/>
<path d="M21.1749 21.9631C21.1749 22.3665 20.8481 22.6933 20.4446 22.6933H17.5238C17.1209 22.6933 16.7941 22.3665 16.7941 21.9631C16.7941 21.5597 17.1209 21.2329 17.5238 21.2329H20.4446C20.8481 21.2329 21.1749 21.5597 21.1749 21.9631Z" fill="white"/>
<path d="M22.1008 16.7499C22.3588 17.0597 22.3171 17.5198 22.0072 17.7783L19.8166 19.6033C19.594 19.789 19.2823 19.8254 19.0229 19.6954L17.9663 19.1674L16.8666 19.9917C16.5442 20.2336 16.0865 20.1682 15.8445 19.8458C15.6026 19.5228 15.668 19.0656 15.9905 18.8236L17.4509 17.7283C17.672 17.5625 17.9683 17.5358 18.2156 17.6595L19.2488 18.1759L21.0724 16.6563C21.3822 16.3978 21.8424 16.44 22.1008 16.7499Z" fill="white"/>
<path d="M22.6352 13.9313H15.3336C14.1238 13.9313 13.1429 14.9122 13.1429 16.1219V23.4236C13.1429 24.6333 14.1238 25.6137 15.3336 25.6137H22.6352C23.845 25.6137 24.8254 24.6333 24.8254 23.4236V16.1219C24.8254 14.9122 23.845 13.9313 22.6352 13.9313ZM23.365 23.4236C23.365 23.8265 23.0381 24.1538 22.6352 24.1538H15.3336C14.9302 24.1538 14.6034 23.8265 14.6034 23.4236V16.1219C14.6034 15.7185 14.9302 15.3917 15.3336 15.3917H22.6352C23.0381 15.3917 23.365 15.7185 23.365 16.1219V23.4236Z" fill="white"/>
<path d="M21.1749 21.9631C21.1749 22.3665 20.8481 22.6933 20.4446 22.6933H17.5238C17.1209 22.6933 16.7941 22.3665 16.7941 21.9631C16.7941 21.5597 17.1209 21.2329 17.5238 21.2329H20.4446C20.8481 21.2329 21.1749 21.5597 21.1749 21.9631Z" fill="white"/>
<path d="M22.0072 17.7783L19.8166 19.6033C19.594 19.789 19.2823 19.8254 19.0229 19.6954L17.9663 19.1674L16.8666 19.9917C16.5442 20.2336 16.0865 20.1682 15.8445 19.8458C15.6026 19.5228 15.668 19.0656 15.9905 18.8236L17.4509 17.7283C17.672 17.5625 17.9683 17.5358 18.2156 17.6595L19.2488 18.1759L21.0724 16.6563C21.3822 16.3978 21.8424 16.44 22.1008 16.7499C22.3588 17.0597 22.3171 17.5198 22.0072 17.7783Z" fill="white"/>
<path d="M9.12734 19.7725C9.12734 21.5874 7.65625 23.0585 5.84138 23.0585C4.02652 23.0585 2.55591 21.5874 2.55591 19.7725C2.55591 17.9577 4.027 16.4871 5.84138 16.4871C6.24479 16.4871 6.57159 16.8139 6.57159 17.2173C6.57159 17.6207 6.24479 17.947 5.84138 17.947C4.83334 17.947 4.01633 18.7645 4.01633 19.7725C4.01633 20.7806 4.83334 21.5981 5.84138 21.5981C6.84942 21.5981 7.66691 20.7806 7.66691 19.7725C7.66691 19.3691 7.99371 19.0423 8.39712 19.0423C8.80054 19.0423 9.12734 19.3691 9.12734 19.7725Z" fill="white"/>
<path d="M22.0072 17.7783L19.8166 19.6033C19.594 19.789 19.2823 19.8254 19.0229 19.6954L17.9663 19.1674L16.8666 19.9917C16.5442 20.2336 16.0865 20.1682 15.8445 19.8458C15.6026 19.5228 15.668 19.0656 15.9905 18.8236L17.4509 17.7283C17.672 17.5625 17.9683 17.5358 18.2156 17.6595L19.2488 18.1759L21.0724 16.6563C21.3822 16.3978 21.8424 16.44 22.1008 16.7499C22.3588 17.0597 22.3171 17.5198 22.0072 17.7783Z" fill="white"/>
<path d="M21.1749 21.9631C21.1749 22.3665 20.8481 22.6933 20.4446 22.6933H17.5238C17.1209 22.6933 16.7941 22.3665 16.7941 21.9631C16.7941 21.5597 17.1209 21.2329 17.5238 21.2329H20.4446C20.8481 21.2329 21.1749 21.5597 21.1749 21.9631Z" fill="white"/>
</svg>
