<svg width="34" height="33" viewBox="0 0 34 33" fill="none" xmlns="http://www.w3.org/2000/svg">
    <path d="M28.3341 17.7504H21.6302C19.0425 17.7504 16.9375 19.8555 16.9375 22.4432V27.8063C16.9375 30.394 19.0425 32.499 21.6302 32.499H28.3341C30.9218 32.499 33.0269 30.394 33.0269 27.8063V22.4432C33.0269 19.8555 30.9218 17.7504 28.3341 17.7504ZM26.323 24.4543H23.6414C22.8999 24.4543 22.3006 23.855 22.3006 23.1136C22.3006 22.3721 22.8999 21.7728 23.6414 21.7728H26.323C27.0644 21.7728 27.6637 22.3721 27.6637 23.1136C27.6637 23.855 27.0644 24.4543 26.323 24.4543ZM14.2559 27.8063V22.4432C14.2559 18.3779 17.5636 15.0689 21.6302 15.0689H24.9822V9.70577C24.9822 6.00924 21.9748 3.00187 18.2783 3.00187H18.049C17.4953 1.4412 16.0043 0.320312 14.2559 0.320312H11.5744C9.826 0.320312 8.33506 1.4412 7.78132 3.00187H7.55204C3.85551 3.00187 0.848145 6.00924 0.848145 9.70577V25.7951C0.848145 29.4917 3.85551 32.499 7.55204 32.499H15.9467C14.8915 31.2226 14.2559 29.5869 14.2559 27.8063ZM16.9375 9.59583H19.6191C20.3605 9.59583 20.9598 10.1965 20.9598 10.9366C20.9598 11.6767 20.3605 12.2774 19.6191 12.2774H16.9375C16.1974 12.2774 15.5967 11.6767 15.5967 10.9366C15.5967 10.1965 16.1974 9.59583 16.9375 9.59583ZM13.1927 17.918L10.2068 20.904C9.62891 21.4818 8.87271 21.7728 8.11517 21.7728C7.40053 21.7728 6.68456 21.514 6.11607 20.9925L4.63451 19.6342C4.08881 19.1341 4.05127 18.2854 4.55138 17.7397C5.05149 17.1954 5.9002 17.1565 6.4459 17.6566L7.92746 19.0148C8.03741 19.1154 8.20634 19.1127 8.31092 19.0068L11.2968 16.0208C11.8211 15.4966 12.6685 15.4966 13.1927 16.0208C13.7169 16.5451 13.7169 17.3925 13.1927 17.9167V17.918ZM13.1927 9.76611L10.2068 12.752C9.62891 13.3299 8.87271 13.6208 8.11517 13.6208C7.40053 13.6208 6.68456 13.3621 6.11607 12.8405L4.63451 11.4823C4.08881 10.9822 4.05127 10.1335 4.55138 9.58778C5.05149 9.04343 5.9002 9.00454 6.4459 9.50465L7.92746 10.8629C8.03741 10.9648 8.20634 10.9607 8.31092 10.8548L11.2968 7.8689C11.8211 7.34466 12.6685 7.34466 13.1927 7.8689C13.7169 8.39315 13.7169 9.24186 13.1927 9.76611Z" fill="#143664"/>
</svg>
