<svg width="16" height="8" viewBox="0 0 16 8" fill="none" xmlns="http://www.w3.org/2000/svg">
<path d="M0.998259 -6.55747e-07C1.26369 0.000235876 1.51816 0.107155 1.70573 0.29725L6.82621 5.48023C6.98115 5.63711 7.16511 5.76155 7.36758 5.84646C7.57005 5.93136 7.78706 5.97506 8.00621 5.97506C8.22537 5.97506 8.44238 5.93136 8.64485 5.84646C8.84731 5.76155 9.03127 5.63711 9.18622 5.48023L14.3034 0.304007C14.4922 0.119416 14.7451 0.0172751 15.0076 0.019584C15.2701 0.0218928 15.5212 0.128466 15.7068 0.316351C15.8924 0.504235 15.9977 0.758398 16 1.0241C16.0022 1.28979 15.9013 1.54577 15.719 1.73689L10.6058 6.91311C9.91687 7.60911 8.98326 8 8.00988 8C7.03651 8 6.10289 7.60911 5.41394 6.91311L0.293458 1.73014C0.153555 1.58862 0.0581998 1.40832 0.0194263 1.212C-0.0193482 1.01569 0.000197375 0.812142 0.0755949 0.627056C0.150993 0.44197 0.278865 0.283638 0.443074 0.172039C0.607283 0.0604398 0.80047 0.000575122 0.998259 -6.55747e-07Z" fill="white"/>
</svg>
