<svg width="16" height="16" viewBox="0 0 16 16" fill="none" xmlns="http://www.w3.org/2000/svg">
<path d="M14.51 0.847837C13.3796 -0.282528 11.55 -0.282697 10.4195 0.847837L1.08165 10.1857C1.01314 10.2542 0.965852 10.341 0.945303 10.4356L0.0114481 14.7465C-0.0248743 14.9141 0.0264815 15.0888 0.147792 15.21C0.243407 15.3057 0.372149 15.3578 0.504524 15.3578C0.540073 15.3578 0.575857 15.354 0.611339 15.3463L4.92227 14.4125C5.01691 14.3919 5.10371 14.3446 5.17218 14.2761L14.51 4.93827C15.6377 3.81057 15.6377 1.97561 14.51 0.847837ZM1.16341 14.1944L1.86261 10.9667L4.39112 13.4952L1.16341 14.1944ZM12.9875 5.03392L10.3239 2.37028L11.0373 1.65685L13.7009 4.32049L12.9875 5.03392Z" fill="white"/>
</svg>
