<svg width="28" height="25" viewBox="0 0 28 25" fill="none" xmlns="http://www.w3.org/2000/svg">
<path fill-rule="evenodd" clip-rule="evenodd" d="M6.79644 24.3312C6.30831 24.3312 5.84797 24.1391 5.4993 23.7904C5.15063 23.4417 4.9585 22.9809 4.9585 22.4933V20.6129C4.9585 16.9155 7.96631 13.9077 11.6637 13.9077H15.6463C17.434 13.9077 19.1169 14.606 20.3848 15.8739C21.6526 17.1418 22.351 18.8247 22.351 20.6129V22.4928C22.351 23.5061 21.5263 24.3307 20.5125 24.3307H6.79644V24.3312ZM11.6632 15.3707C8.77288 15.3707 6.42095 17.7221 6.42095 20.6129V22.4928C6.42095 22.7068 6.58237 22.8678 6.79595 22.8678H20.512C20.7261 22.8678 20.8875 22.7064 20.8875 22.4928V20.6124C20.8875 19.2089 20.3433 17.8918 19.3548 16.9033C18.3664 15.9149 17.0492 15.3702 15.6458 15.3702H11.6632V15.3707Z" fill="#1479FF"/>
<path fill-rule="evenodd" clip-rule="evenodd" d="M13.6543 13.3791C11.0551 13.3791 8.94019 11.0413 8.94019 8.16761C8.94019 5.2939 11.0546 2.95612 13.6543 2.95612C16.2539 2.95612 18.3679 5.2939 18.3679 8.16761C18.3679 11.0413 16.2534 13.3791 13.6543 13.3791ZM13.6543 4.41906C11.8617 4.41906 10.4031 6.10047 10.4031 8.16761C10.4031 10.2348 11.8617 11.9162 13.6543 11.9162C15.4469 11.9162 16.9049 10.2348 16.9049 8.16761C16.9049 6.10047 15.4464 4.41906 13.6543 4.41906Z" fill="#1479FF"/>
<path fill-rule="evenodd" clip-rule="evenodd" d="M1.83843 22.3401C0.824613 22.3401 0 21.5155 0 20.5017V18.6218C0 16.8341 0.698312 15.1512 1.9662 13.8828C3.23408 12.6149 4.91696 11.9166 6.70468 11.9166H8.69575C9.09903 11.9166 9.42722 12.2448 9.42722 12.6481C9.42722 13.0514 9.09903 13.3796 8.69575 13.3796H6.70468C5.30123 13.3796 3.98409 13.9238 2.99562 14.9127C2.00716 15.9012 1.46295 17.2183 1.46295 18.6218V20.5017C1.46295 20.7158 1.62436 20.8772 1.83843 20.8772H2.72303C3.12631 20.8772 3.4545 21.2054 3.4545 21.6086C3.4545 22.0119 3.12631 22.3401 2.72303 22.3401H1.83843Z" fill="white"/>
<path fill-rule="evenodd" clip-rule="evenodd" d="M6.70789 10.7902C6.56696 10.7902 6.42944 10.7497 6.31045 10.6726C4.87433 9.74221 3.98193 8.01935 3.98193 6.17653C3.98242 3.30281 6.09686 0.965027 8.69603 0.965027C9.53722 0.965027 10.3643 1.21422 11.0884 1.68528C11.4264 1.90521 11.5224 2.35921 11.3025 2.69715C11.1669 2.90538 10.9378 3.02973 10.689 3.02973C10.5476 3.02973 10.4096 2.98877 10.2906 2.91123C9.80446 2.59475 9.25293 2.42748 8.69554 2.42748C6.90295 2.42748 5.44439 4.1089 5.44439 6.17604C5.44439 7.52829 6.08077 8.78057 7.10532 9.44426C7.44375 9.6637 7.54079 10.1172 7.32135 10.4556C7.18578 10.6648 6.9561 10.7892 6.70691 10.7892L6.70789 10.7902Z" fill="white"/>
<path fill-rule="evenodd" clip-rule="evenodd" d="M24.5853 22.3401C24.182 22.3401 23.8538 22.0119 23.8538 21.6086C23.8538 21.2054 24.182 20.8772 24.5853 20.8772H25.4699C25.684 20.8772 25.8449 20.7158 25.8449 20.5017V18.6218C25.8449 17.2183 25.3007 15.9012 24.3122 14.9127C23.3237 13.9243 22.0066 13.3796 20.6032 13.3796H18.6116C18.2083 13.3796 17.8801 13.0514 17.8801 12.6481C17.8801 12.2448 18.2083 11.9166 18.6116 11.9166H20.6032C22.3909 11.9166 24.0737 12.6149 25.3416 13.8828C26.6095 15.1507 27.3078 16.8336 27.3078 18.6213V20.5012C27.3078 21.515 26.4832 22.3396 25.4694 22.3396L24.5853 22.3401Z" fill="white"/>
<path fill-rule="evenodd" clip-rule="evenodd" d="M20.6002 10.7902C20.351 10.7902 20.1213 10.6653 19.9858 10.4566C19.7663 10.1182 19.8634 9.66419 20.2018 9.44523C21.2263 8.78154 21.8627 7.52926 21.8627 6.17701C21.8627 4.10987 20.4042 2.42846 18.6116 2.42846C18.0547 2.42846 17.5032 2.59572 17.0165 2.91221C16.8975 2.98974 16.7595 3.03071 16.6181 3.03071C16.3694 3.03071 16.1402 2.90636 16.0046 2.69813C15.7847 2.36019 15.8807 1.90619 16.2187 1.68626C16.9428 1.21519 17.7704 0.966003 18.6116 0.966003C21.2107 0.966003 23.3257 3.30379 23.3257 6.1775C23.3257 8.02032 22.4333 9.7427 20.9972 10.6736C20.8782 10.7507 20.7411 10.7911 20.5997 10.7911L20.6002 10.7902Z" fill="white"/>
</svg>
