<svg width="21" height="14" viewBox="0 0 21 14" fill="none" xmlns="http://www.w3.org/2000/svg">
<g clip-path="url(#clip0_1494_5085)">
<path fill-rule="evenodd" clip-rule="evenodd" d="M6.39941 6.35597C6.39941 4.14797 8.19241 2.35597 10.3994 2.35597C12.6074 2.35597 14.3994 4.14797 14.3994 6.35597C14.3994 8.56397 12.6074 10.356 10.3994 10.356C8.19241 10.356 6.39941 8.56397 6.39941 6.35597ZM0.399414 6.35597L3.32941 3.35397C7.23141 -0.644031 13.5674 -0.644031 17.4694 3.35397L20.3994 6.35597L17.4694 9.35797C13.5674 13.356 7.23141 13.356 3.32941 9.35797L0.399414 6.35597ZM10.9854 4.45896C10.8054 4.38696 10.6064 4.35597 10.3994 4.35597C9.29541 4.35597 8.39941 5.25197 8.39941 6.35597C8.39941 7.45997 9.29541 8.35597 10.3994 8.35597C11.5034 8.35597 12.3994 7.45997 12.3994 6.35597C12.3994 6.14997 12.3684 5.95096 12.2964 5.77096C12.1484 6.11796 11.8014 6.35597 11.3994 6.35597C10.8474 6.35597 10.3994 5.90797 10.3994 5.35597C10.3994 4.95397 10.6374 4.60696 10.9854 4.45896Z" fill="white"/>
</g>
<defs>
<clipPath id="clip0_1494_5085">
<rect width="20" height="13" fill="white" transform="translate(0.399414 0.355469)"/>
</clipPath>
</defs>
</svg>
