<svg width="44" height="39" viewBox="0 0 44 39" fill="none" xmlns="http://www.w3.org/2000/svg">
    <path d="M43.1024 20.1625C42.5805 19.7013 41.7833 19.7509 41.3221 20.2728L41.3018 20.2958V19.4119C41.3018 14.2571 39.2942 9.41067 35.649 5.76542C32.0041 2.1205 27.1576 0.113281 22.0028 0.113281C18.889 0.113281 15.7949 0.87268 13.0545 2.30904C10.4032 3.69875 8.07608 5.72042 6.32473 8.15595C5.9181 8.72123 6.04686 9.50953 6.61247 9.91617C7.17807 10.3231 7.96638 10.1944 8.37301 9.62876C9.89641 7.5102 11.9204 5.75162 14.2258 4.54322C16.6062 3.2954 19.2953 2.63585 22.0028 2.63585C31.2532 2.63585 38.7792 10.1619 38.7792 19.4123V20.2962L38.7585 20.2732C38.2973 19.7509 37.5002 19.7016 36.9783 20.1628C36.456 20.624 36.4067 21.4211 36.8679 21.9431L39.0948 24.4643C39.3343 24.7353 39.6785 24.8903 40.0402 24.8903C40.4018 24.8903 40.746 24.7353 40.9855 24.4643L43.2124 21.9431C43.6739 21.4208 43.6246 20.6236 43.1024 20.1625Z" fill="#143664"/>
    <path d="M37.3934 28.9003C36.8278 28.4936 36.0398 28.6221 35.6328 29.1877C34.1094 31.3059 32.0854 33.0645 29.78 34.2732C27.3996 35.521 24.7102 36.1806 22.003 36.1806C12.7526 36.1806 5.22663 28.6546 5.22663 19.4042V18.5203L5.24732 18.5436C5.70848 19.0655 6.50565 19.1151 7.02757 18.6536C7.54982 18.1925 7.59909 17.3953 7.13793 16.8734L4.91098 14.3521C4.6712 14.0811 4.3273 13.9258 3.96567 13.9258C3.60403 13.9258 3.25948 14.0811 3.02036 14.3521L0.793075 16.8734C0.331917 17.3956 0.381186 18.1925 0.903437 18.6536C1.14321 18.8658 1.44113 18.9699 1.73805 18.9699C2.08688 18.9699 2.43439 18.8257 2.68369 18.5436L2.70405 18.5203V19.4042C2.70405 24.5593 4.7116 29.4054 8.35685 33.0507C12.0018 36.6959 16.8482 38.7032 22.003 38.7032C25.1165 38.7032 28.2109 37.9438 30.9513 36.5074C33.6023 35.1177 35.9294 33.0957 37.6808 30.6605C38.0874 30.0949 37.959 29.3069 37.3934 28.9003Z" fill="#143664"/>
    <path d="M9.56211 22.6364C9.47539 22.9592 9.52072 23.3035 9.68824 23.5932L12.2108 27.9627C12.378 28.2524 12.6536 28.4636 12.9764 28.5503C13.2997 28.6367 13.6439 28.5917 13.9336 28.4242L15.7884 27.3534C16.5291 27.9321 17.3499 28.4071 18.219 28.7598V30.8984C18.219 31.5948 18.7836 32.1597 19.4803 32.1597H24.5254C25.2218 32.1597 25.7867 31.5948 25.7867 30.8984V28.7598C26.6558 28.4071 27.4766 27.9321 28.2173 27.3534L30.0721 28.4242C30.3615 28.5913 30.7061 28.6367 31.0289 28.5503C31.3521 28.4636 31.6277 28.2524 31.7949 27.9627L34.3175 23.5932C34.4847 23.3035 34.53 22.9592 34.4436 22.6364C34.3569 22.3132 34.1454 22.0376 33.856 21.8704L31.9972 20.7973C32.061 20.3368 32.0931 19.8707 32.0931 19.4046C32.0931 18.933 32.0603 18.4623 31.9949 17.9965L33.856 16.9221C34.1457 16.755 34.3569 16.4794 34.4436 16.1562C34.53 15.833 34.4847 15.4887 34.3175 15.199L31.7949 10.8299C31.4467 10.2268 30.6752 10.0202 30.0721 10.3684L28.2052 11.4464C27.4674 10.8719 26.6509 10.4002 25.7867 10.0495V7.8941C25.7867 7.19776 25.2221 6.63281 24.5254 6.63281H19.4803C18.7836 6.63281 18.219 7.19776 18.219 7.8941V10.0495C17.3551 10.4002 16.5383 10.8719 15.8009 11.4464L13.9336 10.3684C13.3305 10.0199 12.559 10.2268 12.2108 10.8299L9.68824 15.199C9.52105 15.4887 9.47572 15.8333 9.56211 16.1562C9.64882 16.4794 9.86002 16.755 10.1497 16.9221L12.0108 17.9965C11.9454 18.4623 11.9126 18.933 11.9126 19.4046C11.9126 19.8707 11.9448 20.3365 12.0085 20.7973L10.1501 21.8704C9.86002 22.0376 9.64882 22.3132 9.56211 22.6364ZM22.0029 15.6208C24.0925 15.6208 25.7867 17.315 25.7867 19.4046C25.7867 21.4943 24.0925 23.1885 22.0029 23.1885C19.9129 23.1885 18.219 21.4943 18.219 19.4046C18.219 17.315 19.9132 15.6208 22.0029 15.6208Z" fill="#143664"/>
</svg>
