<svg width="38" height="36" viewBox="0 0 38 36" fill="none" xmlns="http://www.w3.org/2000/svg">
    <path d="M4.74288 16.2005C4.74288 14.0616 6.48779 12.3167 8.62669 12.3167C10.7656 12.3167 12.5105 14.0616 12.5105 16.2005C12.5105 18.3394 10.7656 20.0843 8.62669 20.0843C6.48779 20.0843 4.74288 18.3394 4.74288 16.2005ZM9.90236 29.5117C9.90236 26.6302 11.7495 24.1634 14.3172 23.2334C13.3915 22.5228 12.2365 22.1026 10.9871 22.1026H6.2663C3.24004 22.1026 0.764648 24.5772 0.764648 27.6042V30.8463C0.764648 32.09 1.78121 33.1059 3.0221 33.1059H9.92011C9.90804 32.9894 9.90165 32.8723 9.90165 32.7538V29.5117H9.90236ZM31.6094 22.1026H26.8886C25.6392 22.1026 24.4842 22.5249 23.5585 23.2334C26.1262 24.1634 27.9733 26.6302 27.9733 29.5117V32.7538C27.9733 32.8723 27.967 32.9894 27.9549 33.1059H34.8529C36.0945 33.1059 37.1104 32.09 37.1104 30.8463V27.6042C37.1111 24.5772 34.6357 22.1026 31.6094 22.1026ZM29.249 20.0843C31.3879 20.0843 33.1328 18.3394 33.1328 16.2005C33.1328 14.0616 31.3879 12.3167 29.249 12.3167C27.1101 12.3167 25.3652 14.0616 25.3652 16.2005C25.3652 18.3394 27.1094 20.0843 29.249 20.0843ZM21.2982 24.01H16.5775C13.5512 24.01 11.0758 26.4854 11.0758 29.5117V32.7538C11.0758 33.9975 12.0924 35.0133 13.3333 35.0133H24.5417C25.7833 35.0133 26.7992 33.9968 26.7992 32.7538V29.5117C26.7999 26.4854 24.3245 24.01 21.2982 24.01ZM15.054 18.108C15.054 20.2469 16.799 21.9918 18.9379 21.9918C21.0768 21.9918 22.8217 20.2469 22.8217 18.108C22.8217 15.9691 21.0768 14.2242 18.9379 14.2242C16.799 14.2242 15.054 15.9691 15.054 18.108ZM12.71 6.44662C12.71 3.01572 15.507 0.21875 18.9379 0.21875C22.3666 0.21875 25.1657 3.01572 25.1657 6.44662C25.1657 9.87753 22.3666 12.6745 18.9379 12.6745C15.507 12.6752 12.71 9.87753 12.71 6.44662ZM16.7464 7.95585C16.821 8.13687 16.9076 8.29802 17.002 8.44284C17.3583 8.9859 17.8411 9.316 18.3522 9.47502V10.1068C18.3522 10.4305 18.6141 10.6946 18.9379 10.6946C19.2616 10.6946 19.5235 10.4312 19.5235 10.1068V9.5453C19.6946 9.51477 19.8579 9.4665 20.0105 9.40474C20.1354 9.35221 20.2519 9.28974 20.3605 9.21946C20.4712 9.14705 20.5734 9.06044 20.6686 8.96389C20.9362 8.69059 21.1073 8.3399 21.1577 7.97218C21.2102 7.59381 21.1335 7.19769 20.9021 6.84345C20.834 6.7391 20.7495 6.63829 20.6487 6.53962C20.2866 6.18538 19.8096 6.07464 19.3063 5.95396C18.8981 5.85954 18.4651 5.75661 18.2315 5.51738C18.1811 5.46484 18.1428 5.40095 18.1186 5.32996C18.0846 5.22561 18.0782 5.11061 18.1023 4.99561C18.1264 4.88699 18.179 4.78619 18.2613 4.70597C18.3259 4.64137 18.4125 4.58955 18.5211 4.55334C18.5574 4.53915 18.5936 4.52921 18.6298 4.5214C18.7242 4.49726 18.825 4.48306 18.9258 4.47881H18.9379C18.9521 4.47881 18.9663 4.47881 18.9804 4.47668C19.1473 4.47668 19.3127 4.50081 19.4632 4.55689C19.6747 4.63569 19.8515 4.77838 19.9239 4.99774C19.9317 5.01974 19.9381 5.04033 19.9424 5.06021C20.0211 5.37185 20.337 5.56565 20.6508 5.48685C20.9646 5.41018 21.1556 5.09428 21.0796 4.78051C21.0654 4.72443 21.0491 4.66977 21.0335 4.62149C20.8326 4.03015 20.3917 3.65178 19.8664 3.45869C19.7556 3.4161 19.6414 3.38415 19.5242 3.36215V2.7843C19.5242 2.46059 19.2623 2.19864 18.9386 2.19864C18.6149 2.19864 18.3529 2.46059 18.3529 2.7843V3.38415H18.3508C18.2784 3.4019 18.2102 3.42249 18.1456 3.44449C17.8659 3.53891 17.6324 3.68586 17.4471 3.86688C17.1915 4.11676 17.0282 4.42627 16.958 4.74856C16.8898 5.06659 16.9076 5.40024 17.0105 5.70408C17.0893 5.9355 17.2178 6.1506 17.3931 6.33162C17.868 6.81648 18.4736 6.96129 19.0415 7.09404C19.3837 7.17426 19.7052 7.25093 19.8344 7.378C19.8685 7.40994 19.8969 7.44615 19.9232 7.48448C19.9913 7.58884 20.0155 7.70597 19.9999 7.81671C19.9835 7.93526 19.9253 8.05382 19.833 8.14894C19.8011 8.18089 19.7649 8.21141 19.7202 8.23981C19.6698 8.27175 19.6172 8.30015 19.5633 8.32215C19.324 8.42296 19.0301 8.44709 18.7441 8.37043C18.4622 8.29376 18.1889 8.11274 17.9852 7.80322C17.927 7.71236 17.8744 7.61581 17.8283 7.5072C17.7055 7.20905 17.3612 7.06849 17.0637 7.1913C16.7649 7.31624 16.6236 7.65841 16.7464 7.95585Z" fill="#143664"/>
</svg>
