<svg width="26" height="33" viewBox="0 0 26 33" fill="none" xmlns="http://www.w3.org/2000/svg">
<path d="M8.57537 9.18262H4.9281C4.39515 9.18262 3.96094 9.61688 3.96094 10.1499V13.7976C3.96094 14.3306 4.39515 14.7642 4.9281 14.7642H8.57537C9.10832 14.7642 9.54254 14.3306 9.54254 13.7976V10.1499C9.54254 9.61688 9.10832 9.18262 8.57537 9.18262ZM8.56126 13.7828H4.94282V10.164H6.26141V10.7301C6.26141 11.0012 6.48097 11.2208 6.75204 11.2208C7.02312 11.2208 7.24268 11.0012 7.24268 10.7301V10.164H8.56126V13.7828Z" fill="#1479FF"/>
<path d="M8.57537 16.3848H4.9281C4.39515 16.3848 3.96094 16.8324 3.96094 17.3826V21.1486C3.96094 21.6988 4.39515 22.1464 4.9281 22.1464H8.57537C9.10832 22.1464 9.54254 21.6988 9.54254 21.1486V17.3826C9.54254 16.8324 9.10832 16.3848 8.57537 16.3848ZM8.56126 21.1334H4.94282V17.3978H6.26141V17.9816C6.26141 18.2614 6.48097 18.4881 6.75204 18.4881C7.02312 18.4881 7.24268 18.2614 7.24268 17.9816V17.3978H8.56126V21.1334Z" fill="#1479FF"/>
<path d="M8.57537 23.5868H4.9281C4.39515 23.5868 3.96094 24.0344 3.96094 24.5846V28.35C3.96094 28.9002 4.39515 29.3484 4.9281 29.3484H8.57537C9.10832 29.3484 9.54254 28.9008 9.54254 28.35V24.5846C9.54254 24.0344 9.10832 23.5868 8.57537 23.5868ZM8.56126 28.3354H4.94282V24.5998H6.26141V25.1836C6.26141 25.4634 6.48097 25.6901 6.75204 25.6901C7.02312 25.6901 7.24268 25.4634 7.24268 25.1836V24.5998H8.56126V28.3354Z" fill="#1479FF"/>
<path d="M16.7448 27.5478C16.7448 27.8456 16.5173 28.088 16.2364 28.088H11.8516C11.5708 28.088 11.3433 27.8456 11.3433 27.5478C11.3433 27.2501 11.5708 27.0077 11.8516 27.0077H16.2364C16.5173 27.0077 16.7448 27.2494 16.7448 27.5478Z" fill="white"/>
<path d="M11.3433 20.2558C11.3433 20.0071 11.5708 19.8057 11.8516 19.8057H16.2364C16.5173 19.8057 16.7448 20.0071 16.7448 20.2558C16.7448 20.5045 16.5173 20.7059 16.2364 20.7059H11.8516C11.5708 20.7059 11.3433 20.5045 11.3433 20.2558Z" fill="white"/>
<path d="M11.3433 12.9637C11.3433 12.666 11.5708 12.4236 11.8516 12.4236H16.2364C16.5173 12.4236 16.7448 12.666 16.7448 12.9637C16.7448 13.2615 16.5173 13.5039 16.2364 13.5039H11.8516C11.5708 13.5039 11.3433 13.2622 11.3433 12.9637Z" fill="white"/>
<path d="M19.0855 25.4772C19.0855 25.7254 18.8583 25.9274 18.5778 25.9274H11.8509C11.5705 25.9274 11.3433 25.7254 11.3433 25.4772C11.3433 25.2291 11.5705 25.0271 11.8509 25.0271H18.5778C18.8583 25.0271 19.0855 25.2285 19.0855 25.4772Z" fill="white"/>
<path d="M19.0855 18.1852C19.0855 18.4836 18.8583 18.7253 18.5778 18.7253H11.8509C11.5705 18.7253 11.3433 18.4836 11.3433 18.1852C11.3433 17.8867 11.5705 17.645 11.8509 17.645H18.5778C18.8583 17.645 19.0855 17.8867 19.0855 18.1852Z" fill="white"/>
<path d="M19.0855 10.8931C19.0855 11.1418 18.8583 11.3433 18.5778 11.3433H11.8509C11.5705 11.3433 11.3433 11.1418 11.3433 10.8931C11.3433 10.6444 11.5705 10.443 11.8509 10.443H18.5778C18.8583 10.443 19.0855 10.645 19.0855 10.8931Z" fill="white"/>
<path d="M2.22297 32.7694C0.997086 32.7694 0 31.7719 0 30.5456V5.73089C0 4.50454 0.997086 3.50645 2.22297 3.50645H6.53826V3.25443C6.53826 2.42706 7.21153 1.75354 8.03858 1.75354H9.76832C10.2991 0.680403 11.3855 0 12.6039 0C13.8223 0 14.9088 0.680403 15.4389 1.75354H17.1686C17.9957 1.75354 18.669 2.42706 18.669 3.25443V3.50645H22.9842C24.2101 3.50645 25.2072 4.50454 25.2072 5.73089V30.5456C25.2072 31.7719 24.2101 32.7694 22.9842 32.7694H2.22297ZM2.22297 5.25748C1.96229 5.25748 1.75037 5.47011 1.75037 5.73089V30.5456C1.75037 30.8063 1.96229 31.0183 2.22297 31.0183H22.9842C23.2449 31.0183 23.4568 30.8063 23.4568 30.5456V5.73026C23.4568 5.46949 23.2449 5.25748 22.9842 5.25748H18.669V5.51013C18.669 6.3375 17.9957 7.01102 17.1686 7.01102H8.03858C7.21153 7.01102 6.53826 6.3375 6.53826 5.51013V5.25748H2.22297ZM16.9186 5.25999V3.50457H14.8313C14.4262 3.50457 14.0761 3.22878 13.9805 2.83418C13.8267 2.1963 13.2609 1.75104 12.6039 1.75104C11.9469 1.75104 11.3805 2.1963 11.2268 2.83418C11.1311 3.22941 10.781 3.50457 10.3759 3.50457H8.28863V5.25999H16.9186Z" fill="white"/>
</svg>
