<svg width="31" height="33" viewBox="0 0 31 33" fill="none" xmlns="http://www.w3.org/2000/svg">
    <path fill-rule="evenodd" clip-rule="evenodd" d="M23.1607 17.6931C21.6955 17.6931 20.5075 18.8811 20.5075 20.3465V20.8877C20.5075 21.3275 20.864 21.6838 21.3037 21.6838H25.018C25.4576 21.6838 25.8141 21.3275 25.8141 20.8877V20.3465C25.8141 18.8811 24.6261 17.6931 23.1607 17.6931ZM28.653 22.2177C28.3914 22.0458 28.2025 21.7689 28.2025 21.4557V20.3465C28.2025 17.5621 25.9453 15.3047 23.1607 15.3047C20.3763 15.3047 18.1191 17.5621 18.1191 20.3465V21.4557C18.1191 21.7689 17.9303 22.0458 17.6687 22.2177C16.7813 22.8008 16.1953 23.8051 16.1953 24.9463V29.0684C16.1953 30.8702 17.6559 32.3308 19.4577 32.3308H26.8639C28.6657 32.3308 30.1263 30.8702 30.1263 29.0684V24.9463C30.1263 23.8051 29.5404 22.8008 28.653 22.2177Z" fill="#143664"/>
    <path d="M7.94502 0.486328H15.3873C15.8271 0.486328 16.1835 0.842776 16.1835 1.28247V6.45437C16.1835 8.433 17.7875 10.037 19.7661 10.037H25.7827C26.182 10.037 26.5244 10.333 26.54 10.732C26.5438 10.8306 26.5457 10.9293 26.5457 11.0283V12.4286C26.5457 13.0239 25.9094 13.4164 25.3402 13.2421C24.6512 13.031 23.9196 12.9175 23.1613 12.9175C21.7772 12.9175 20.4814 13.2961 19.3717 13.9553C19.3531 13.9664 19.3292 13.9522 19.3292 13.9306C19.3292 13.2709 18.7945 12.7363 18.135 12.7363H8.5922C7.93265 12.7363 7.39799 13.2709 7.39799 13.9306C7.39799 14.5901 7.93265 15.1248 8.5922 15.1248H15.9704C16.6774 15.1248 17.0771 16.0238 16.7233 16.636C16.4616 17.0889 16.2465 17.5718 16.0841 18.0785C15.9707 18.4323 15.6529 18.691 15.2815 18.691H8.5922C7.93265 18.691 7.39799 19.2257 7.39799 19.8852C7.39799 20.5448 7.93265 21.0794 8.5922 21.0794H13.4989C14.1962 21.0794 14.607 21.9659 14.3168 22.6001C13.99 23.3145 13.8075 24.1092 13.8075 24.9474V29.0695C13.8075 29.384 13.8333 29.6924 13.8826 29.9927C13.9734 30.5451 13.585 31.1126 13.0254 31.1126H7.94502C4.03172 31.1126 0.859375 27.9403 0.859375 24.0269V7.57197C0.859375 3.65867 4.03172 0.486328 7.94502 0.486328Z" fill="#143664"/>
    <path d="M24.8148 6.21465C24.9055 6.32448 24.9928 6.43661 25.0767 6.55086C25.427 7.02773 25.0512 7.64832 24.4595 7.64832H19.7645C19.105 7.64832 18.5703 7.11365 18.5703 6.45411V1.8192C18.5703 1.29165 19.0759 0.910284 19.5591 1.12204C20.6317 1.59215 21.5937 2.3106 22.3572 3.236L24.8148 6.21465Z" fill="#143664"/>
</svg>
