<svg width="32" height="31" viewBox="0 0 32 31" fill="none" xmlns="http://www.w3.org/2000/svg">
    <path fill-rule="evenodd" clip-rule="evenodd" d="M7.07673 2.65484C6.65492 2.23448 6.65492 1.54922 7.07673 1.12885C7.4971 0.707048 8.18235 0.707048 8.60272 1.12885L12.7877 5.31237C12.9115 5.43617 13.1058 5.45345 13.2483 5.35267L18.3633 1.7738C19.443 1.01656 20.9229 1.22099 21.7579 2.24167L30.9887 13.5225C31.3673 13.9846 31.2982 14.6641 30.8375 15.0427C30.3768 15.4199 29.6959 15.3508 29.3187 14.8901L20.0865 3.60931C19.967 3.4639 19.7554 3.43367 19.6014 3.54164L14.4864 7.12196C13.4859 7.82305 12.1254 7.705 11.2602 6.83979L7.07673 2.65484Z" fill="#143664"/>
    <path fill-rule="evenodd" clip-rule="evenodd" d="M29.0597 9.877C29.0583 9.281 29.5405 8.79585 30.1351 8.79297C30.7311 8.79153 31.2177 9.2738 31.2191 9.8698L31.2335 14.1886C31.2349 14.7846 30.7541 15.2698 30.1581 15.2712L25.8393 15.2856C25.2433 15.2885 24.7567 14.8062 24.7553 14.2102C24.7538 13.6142 25.2361 13.1291 25.8321 13.1262L29.0698 13.1161L29.0597 9.877Z" fill="#143664"/>
    <path fill-rule="evenodd" clip-rule="evenodd" d="M3.16104 20.6074V24.2065C3.16104 24.6844 3.35107 25.1408 3.68794 25.4791C4.02625 25.8159 4.48261 26.006 4.96056 26.006H7.83978C8.31773 26.006 8.77409 25.8159 9.1124 25.4791C9.44927 25.1408 9.6393 24.6844 9.6393 24.2065V20.6074H10.719C11.1005 20.6074 11.4676 20.7586 11.7368 21.0292C12.0075 21.2984 12.1586 21.6655 12.1586 22.047V29.2451C12.1586 29.6266 12.0075 29.9937 11.7368 30.2629C11.4676 30.5335 11.1005 30.6847 10.719 30.6847H2.08134C1.69984 30.6847 1.33274 30.5335 1.06353 30.2629C0.792883 29.9937 0.641724 29.6266 0.641724 29.2451V22.047C0.641724 21.6655 0.792883 21.2984 1.06353 21.0292C1.33274 20.7586 1.69984 20.6074 2.08134 20.6074H3.16104ZM5.32046 20.6074H7.47988V23.8465H5.32046V20.6074Z" fill="#143664"/>
    <path fill-rule="evenodd" clip-rule="evenodd" d="M16.1176 20.6074V24.2065C16.1176 24.6844 16.3076 25.1408 16.6445 25.4791C16.9828 25.8159 17.4392 26.006 17.9171 26.006H20.7963C21.2743 26.006 21.7306 25.8159 22.0689 25.4791C22.4058 25.1408 22.5958 24.6844 22.5958 24.2065V20.6074H23.6755C24.057 20.6074 24.4241 20.7586 24.6934 21.0292C24.964 21.2984 25.1152 21.6655 25.1152 22.047V29.2451C25.1152 29.6266 24.964 29.9937 24.6934 30.2629C24.4241 30.5335 24.057 30.6847 23.6755 30.6847H15.0379C14.6564 30.6847 14.2893 30.5335 14.0201 30.2629C13.7494 29.9937 13.5983 29.6266 13.5983 29.2451V22.047C13.5983 21.6655 13.7494 21.2984 14.0201 21.0292C14.2893 20.7586 14.6564 20.6074 15.0379 20.6074H16.1176ZM18.277 20.6074H20.4364V23.8465H18.277V20.6074Z" fill="#143664"/>
    <path fill-rule="evenodd" clip-rule="evenodd" d="M9.63919 9.08984V12.6889C9.63919 13.1668 9.82922 13.6232 10.1661 13.9615C10.5044 14.2984 10.9608 14.4884 11.4387 14.4884H14.3179C14.7959 14.4884 15.2522 14.2984 15.5905 13.9615C15.9274 13.6232 16.1174 13.1668 16.1174 12.6889V9.08984H17.1972C17.5787 9.08984 17.9458 9.241 18.215 9.51165C18.4856 9.78086 18.6368 10.148 18.6368 10.5295V17.7275C18.6368 18.109 18.4856 18.4761 18.215 18.7453C17.9458 19.016 17.5787 19.1671 17.1972 19.1671H8.55948C8.17799 19.1671 7.81089 19.016 7.54168 18.7453C7.27103 18.4761 7.11987 18.109 7.11987 17.7275V10.5295C7.11987 10.148 7.27103 9.78086 7.54168 9.51165C7.81089 9.241 8.17799 9.08984 8.55948 9.08984H9.63919ZM11.7986 9.08984H13.958V12.329H11.7986V9.08984Z" fill="#143664"/>
</svg>
