<svg width="33" height="31" viewBox="0 0 33 31" fill="none" xmlns="http://www.w3.org/2000/svg">
    <path d="M32.0921 22.5598L20.9118 3.19682C19.9901 1.59868 18.3391 0.644531 16.4935 0.644531C14.649 0.644531 12.9959 1.59814 12.073 3.19627L0.893769 22.5598C-0.0290428 24.1574 -0.0290428 26.0652 0.893769 27.6633C1.81548 29.2609 3.46861 30.215 5.31313 30.215H27.6728C29.5173 30.215 31.1693 29.2614 32.091 27.6644C33.0138 26.0663 33.0149 24.1585 32.0921 22.5598ZM18.1818 23.9264C18.1818 24.8597 17.4251 25.6159 16.4924 25.6159C15.5597 25.6159 14.803 24.8597 14.803 23.9264V22.8001C14.803 21.8669 15.5597 21.1107 16.4924 21.1107C17.4251 21.1107 18.1818 21.8669 18.1818 22.8001V23.9264ZM18.1818 17.1687C18.1818 18.102 17.4251 18.8581 16.4924 18.8581C15.5597 18.8581 14.803 18.102 14.803 17.1687V10.4115C14.803 9.47829 15.5597 8.72211 16.4924 8.72211C17.4251 8.72211 18.1818 9.47829 18.1818 10.4115V17.1687Z" fill="#143664"/>
</svg>
