<svg width="30" height="31" viewBox="0 0 30 31" fill="none" xmlns="http://www.w3.org/2000/svg">
    <path fill-rule="evenodd" clip-rule="evenodd" d="M14.9376 0.595703C10.2432 0.595703 6.43762 4.28935 6.43762 8.8457C6.43762 13.402 10.2432 17.0957 14.9376 17.0957C19.632 17.0957 23.4376 13.402 23.4376 8.8457C23.4376 4.28935 19.632 0.595703 14.9376 0.595703Z" fill="#143664"/>
    <path fill-rule="evenodd" clip-rule="evenodd" d="M13.1255 18.4707L13.4351 19.3726L14.9377 23.0184L16.4402 19.3726L16.7499 18.4707H13.1255ZM10.1388 18.4707L10.7604 20.2805C10.7691 20.3061 10.7787 20.3314 10.789 20.3564L12.3069 24.0397C13.2569 26.3446 16.6184 26.3446 17.5684 24.0397L19.0864 20.3564C19.0967 20.3314 19.1062 20.3061 19.115 20.2805L19.7365 18.4707H22.021C25.933 18.4707 29.1043 21.5488 29.1043 25.3457V26.7207C29.1043 28.9989 27.2016 30.8457 24.8543 30.8457H5.021C2.67379 30.8457 0.770996 28.9989 0.770996 26.7207V25.3457C0.770996 21.5488 3.94232 18.4707 7.85433 18.4707H10.1388Z" fill="#143664"/>
</svg>
