<svg width="32" height="34" viewBox="0 0 32 34" fill="none" xmlns="http://www.w3.org/2000/svg">
    <path d="M6.83438 6.74913H17.6426L19.9752 4.88304C20.7694 4.24932 21.066 3.22055 20.7303 2.26054C20.3945 1.30052 19.5222 0.681641 18.5082 0.681641H5.96875C4.9548 0.681641 4.08243 1.30187 3.7467 2.26054C3.41097 3.2192 3.7076 4.24932 4.50042 4.88169L6.83438 6.74913Z" fill="#143664"/>
    <path d="M23.0251 17.1042L22.1352 17.9941C21.5689 18.5738 20.8004 18.884 19.9914 18.884C19.1824 18.884 18.4138 18.5738 17.8475 17.9941C16.661 16.8075 16.661 14.8929 17.8475 13.7064L20.0723 11.4816C19.3846 10.4704 18.6296 9.55352 17.8206 8.77148H6.6564C2.96198 12.385 0.103516 18.7356 0.103516 23.9402C0.103516 28.4706 2.50354 33.0414 7.85642 33.0414H16.9577C21.5285 33.0414 24.3735 29.5493 24.3735 23.9402C24.3735 21.7694 23.8746 19.3963 23.0251 17.1042ZM11.7261 19.8952H12.7509C14.3284 19.8952 15.6093 21.1761 15.6093 22.7537C15.6093 24.1694 14.5846 25.3425 13.2497 25.5717V26.6369C13.2497 27.1897 12.7913 27.6481 12.2385 27.6481C11.6857 27.6481 11.2272 27.1897 11.2272 26.6369V25.6256H9.87891C9.3261 25.6256 8.86767 25.1672 8.86767 24.6144C8.86767 24.0616 9.3261 23.6031 9.87891 23.6031H12.7509C13.2093 23.6031 13.5868 23.2256 13.5868 22.7672C13.5868 22.2952 13.2093 21.9177 12.7509 21.9177H11.7261C10.1486 21.9177 8.86767 20.6368 8.86767 19.0592C8.86767 17.6435 9.8924 16.4705 11.2272 16.2412V15.1761C11.2272 14.6232 11.6857 14.1648 12.2385 14.1648C12.7913 14.1648 13.2497 14.6232 13.2497 15.1761V16.1873H14.5981C15.1509 16.1873 15.6093 16.6457 15.6093 17.1986C15.6093 17.7514 15.1509 18.2098 14.5981 18.2098H11.7261C11.2677 18.2098 10.8902 18.5873 10.8902 19.0458C10.8902 19.5177 11.2677 19.8952 11.7261 19.8952Z" fill="#143664"/>
    <path d="M30.1041 8.77148H26.7333C26.3247 8.77148 25.9553 9.01823 25.7989 9.39576C25.6425 9.77329 25.7288 10.2088 26.0187 10.4973L26.8924 11.3711L25.5805 12.5819L23.864 11.6003C23.4676 11.3738 22.9701 11.4412 22.6478 11.7648L19.277 15.1356C18.8819 15.5307 18.8819 16.1711 19.277 16.5662C19.4739 16.763 19.7327 16.8628 19.9916 16.8628C20.2505 16.8628 20.5094 16.7644 20.7062 16.5662L23.531 13.7414L25.2191 14.7068C25.6034 14.9266 26.0834 14.8713 26.407 14.572L28.323 12.8043L29.3881 13.8695C29.5823 14.0623 29.8412 14.1648 30.1041 14.1648C30.2349 14.1648 30.3657 14.1392 30.4911 14.088C30.8686 13.9315 31.1154 13.5621 31.1154 13.1536V9.78273C31.1154 9.22452 30.6623 8.77148 30.1041 8.77148Z" fill="#143664"/>
</svg>
