<svg width="20" height="24" viewBox="0 0 20 24" fill="none" xmlns="http://www.w3.org/2000/svg">
    <path d="M17.0346 14.8912V10.7827C17.0492 8.76641 16.4001 6.81125 15.2049 5.27226C14.0098 3.73326 12.3481 2.7125 10.5214 2.39533V1.28943C10.5214 1.00806 10.4188 0.738211 10.2363 0.539251C10.0538 0.340291 9.80627 0.228516 9.54815 0.228516C9.29004 0.228516 9.04249 0.340291 8.85998 0.539251C8.67746 0.738211 8.57492 1.00806 8.57492 1.28943V2.40339C6.77322 2.65654 5.11793 3.61691 3.91902 5.10468C2.72011 6.59245 2.05978 8.50559 2.06169 10.4859V14.8917C1.47599 15.0065 0.94712 15.3455 0.570259 15.8476C0.193399 16.3496 -0.00671238 16.9818 0.005936 17.6304C0.00660581 18.3427 0.26646 19.0256 0.728479 19.5292C1.1905 20.0329 1.81694 20.3162 2.47035 20.317H5.82983C5.9816 21.272 6.43785 22.138 7.11812 22.7621C7.7984 23.3863 8.659 23.7285 9.54815 23.7285C10.4373 23.7285 11.2979 23.3863 11.9782 22.7621C12.6585 22.138 13.1147 21.272 13.2665 20.317H16.626C17.2481 20.305 17.844 20.0414 18.298 19.5773C18.7519 19.1133 19.0315 18.482 19.0824 17.8059C19.1333 17.1299 18.952 16.4573 18.5736 15.9187C18.1952 15.3802 17.6467 15.0137 17.0346 14.8912ZM9.54815 21.6064C9.17687 21.6048 8.81472 21.4808 8.50936 21.2506C8.204 21.0203 7.96974 20.6947 7.83741 20.3165H11.2589C11.1266 20.6947 10.8923 21.0203 10.5869 21.2506C10.2816 21.4808 9.91943 21.6048 9.54815 21.6064ZM16.626 18.1947H12.3816C12.3741 18.1947 12.368 18.19 12.3604 18.19C12.3528 18.19 12.3467 18.1945 12.3393 18.1947H6.75703C6.74963 18.1947 6.7434 18.19 6.73591 18.19C6.72842 18.19 6.72219 18.1945 6.71469 18.1947H2.47035C2.39603 18.1916 2.32311 18.1719 2.2561 18.1367C2.18909 18.1015 2.12943 18.0517 2.08085 17.9904C2.03226 17.929 1.99579 17.8574 1.97369 17.78C1.95159 17.7026 1.94434 17.621 1.95239 17.5404C1.95257 17.3908 2.00721 17.2473 2.10432 17.1416C2.20143 17.0358 2.33307 16.9763 2.47035 16.9762C2.878 16.9757 3.26881 16.7989 3.55707 16.4846C3.84533 16.1704 4.00751 15.7444 4.00805 15.3V10.4855C4.00776 8.88657 4.58937 7.35288 5.62524 6.22093C6.66112 5.08898 8.06663 4.45124 9.53336 4.44767L9.54815 4.45096C9.55516 4.45096 9.561 4.44672 9.56762 4.44661C9.61793 4.44661 9.66883 4.44661 9.71895 4.44884C11.1896 4.54863 12.5683 5.26263 13.5683 6.44231C14.5683 7.62199 15.1125 9.17652 15.0879 10.7825V15.299C15.0884 15.7434 15.2506 16.1694 15.5388 16.4837C15.8271 16.7979 16.2179 16.9747 16.6256 16.9753C16.6998 16.9784 16.7727 16.9981 16.8397 17.0332C16.9067 17.0683 16.9664 17.1181 17.0149 17.1794C17.0635 17.2407 17.1 17.3123 17.1221 17.3896C17.1443 17.467 17.1515 17.5485 17.1435 17.629C17.1437 17.7788 17.0892 17.9226 16.9922 18.0287C16.8951 18.1348 16.7634 18.1945 16.626 18.1947Z" fill="#00B612"/>
</svg>
