<svg width="23" height="30" viewBox="0 0 23 30" fill="none" xmlns="http://www.w3.org/2000/svg">
<path d="M19.2579 2.75073H14.1407C13.7744 1.44325 12.5819 0.482544 11.1714 0.482544C9.76087 0.482544 8.56858 1.44325 8.20225 2.75073H3.08491C1.38386 2.75073 0 4.14843 0 5.86623V26.2812C0 27.9992 1.38386 29.3967 3.08491 29.3967H19.2579C20.9589 29.3967 22.3428 27.9992 22.3428 26.2812V5.86623C22.343 4.14843 20.9589 2.75073 19.2579 2.75073ZM8.92531 4.44492C9.38842 4.44492 9.76414 4.06571 9.76414 3.59782C9.76414 2.81426 10.3955 2.17673 11.1714 2.17673C11.9475 2.17673 12.5788 2.81426 12.5788 3.59782C12.5788 4.06571 12.9543 4.44492 13.4177 4.44492H14.8251V7.28754H7.51785V4.44492H8.92531ZM20.6653 26.2812C20.6653 27.065 20.034 27.7025 19.2579 27.7025H3.08491C2.30898 27.7025 1.67767 27.065 1.67767 26.2812V5.86623C1.67767 5.08266 2.30898 4.44492 3.08491 4.44492H5.84018V8.13463C5.84018 8.60252 6.21569 8.98173 6.67902 8.98173H15.664C16.1271 8.98173 16.5028 8.60252 16.5028 8.13463V4.44492H19.2579C20.034 4.44492 20.6653 5.08266 20.6653 5.86623V26.2812Z" fill="white"/>
<path d="M5.62223 20.1968C5.44922 20.1968 5.27963 20.2668 5.15744 20.389C5.03525 20.5113 4.96509 20.6807 4.96509 20.8539C4.96509 21.0264 5.03525 21.196 5.15744 21.3182C5.27963 21.4409 5.44922 21.5111 5.62223 21.5111C5.7949 21.5111 5.96449 21.4409 6.08668 21.3182C6.20938 21.196 6.27937 21.0264 6.27937 20.8539C6.27937 20.6807 6.2092 20.5113 6.08668 20.389C5.96449 20.2668 5.79524 20.1968 5.62223 20.1968Z" fill="#1479FF"/>
<path d="M5.62223 17.5681C5.44922 17.5681 5.27963 17.6383 5.15744 17.761C5.03525 17.8832 4.96509 18.0528 4.96509 18.2253C4.96509 18.3984 5.03525 18.5679 5.15744 18.69C5.27963 18.8124 5.44922 18.8824 5.62223 18.8824C5.79524 18.8824 5.96449 18.8124 6.08668 18.69C6.20938 18.5679 6.27937 18.3984 6.27937 18.2253C6.27937 18.0528 6.2092 17.8832 6.08668 17.761C5.96449 17.6383 5.79524 17.5681 5.62223 17.5681Z" fill="#1479FF"/>
<path d="M5.62223 14.9396C5.44922 14.9396 5.27963 15.0103 5.15744 15.1324C5.03525 15.2546 4.96509 15.4242 4.96509 15.5967C4.96509 15.7699 5.03525 15.9393 5.15744 16.0617C5.27963 16.1839 5.44922 16.2539 5.62223 16.2539C5.79524 16.2539 5.96449 16.1839 6.08668 16.0617C6.20938 15.9393 6.27937 15.7699 6.27937 15.5967C6.27937 15.4242 6.2092 15.2546 6.08668 15.1324C5.96449 15.0103 5.79524 14.9396 5.62223 14.9396Z" fill="#1479FF"/>
<path d="M17.2375 20.1968H9.77842C9.29786 20.1968 8.90796 20.4911 8.90796 20.8539C8.90796 21.2169 9.29786 21.5111 9.77842 21.5111H17.2375C17.7183 21.5111 18.1079 21.2169 18.1079 20.8539C18.1079 20.4911 17.7183 20.1968 17.2375 20.1968Z" fill="#1479FF"/>
<path d="M17.2375 17.5681H9.77842C9.29786 17.5681 8.90796 17.8623 8.90796 18.2253C8.90796 18.5882 9.29786 18.8824 9.77842 18.8824H17.2375C17.7183 18.8824 18.1079 18.5882 18.1079 18.2253C18.1079 17.8623 17.7183 17.5681 17.2375 17.5681Z" fill="#1479FF"/>
<path d="M17.2375 14.9396H9.77842C9.29786 14.9396 8.90796 15.2337 8.90796 15.5967C8.90796 15.9595 9.29786 16.2539 9.77842 16.2539H17.2375C17.7183 16.2539 18.1079 15.9595 18.1079 15.5967C18.1079 15.2337 17.7183 14.9396 17.2375 14.9396Z" fill="#1479FF"/>
</svg>
