<svg width="35" height="35" viewBox="0 0 35 35" fill="none" xmlns="http://www.w3.org/2000/svg">
    <path d="M24.9551 15.9824C19.8634 15.9824 15.7207 20.1251 15.7207 25.2168C15.7207 30.3085 19.8634 34.4512 24.9551 34.4512C30.0468 34.4512 34.1895 30.3085 34.1895 25.2168C34.1895 20.1251 30.0468 15.9824 24.9551 15.9824ZM28.6375 29.0668C28.4286 29.3368 28.1132 29.4788 27.7964 29.4788C27.5677 29.4788 27.3376 29.405 27.1429 29.2544L23.9464 26.7682C23.6864 26.5664 23.5344 26.2553 23.5344 25.9271V21.31C23.5344 20.7218 24.0118 20.2444 24.5999 20.2444C25.1881 20.2444 25.6654 20.7218 25.6654 21.31V25.4058L28.4499 27.5723C28.9159 27.9331 28.9983 28.6023 28.6375 29.0668Z" fill="#143664"/>
    <path d="M19.1875 2.6131L6.28782 9.11979L1.15918 6.63361L13.8316 0.467879C14.1157 0.325811 14.4567 0.325811 14.755 0.467879L19.1875 2.6131Z" fill="#143664"/>
    <path d="M27.4414 6.63236L14.3143 13.0396L9.39881 10.6529L8.68848 10.2977L21.6024 3.79102L22.3127 4.14618L27.4414 6.63236Z" fill="#143664"/>
    <path d="M13.2492 22.2326C13.0077 23.1845 12.8798 24.1931 12.8798 25.216C12.8798 26.2389 13.0077 27.2192 13.2492 28.171V28.3699L0.676227 21.9058C0.321058 21.7212 0.09375 21.3518 0.09375 20.954V8.48047L5.42128 11.0661V15.6123C5.42128 16.1947 5.90431 16.6778 6.48679 16.6778C7.06926 16.6778 7.55229 16.1947 7.55229 15.6123V12.1174L8.26263 12.4584L13.2634 14.8877L13.2492 22.2326Z" fill="#143664"/>
    <path d="M28.5216 13.6796C27.3992 13.3244 26.1917 13.1397 24.9557 13.1397C21.063 13.1397 17.5966 14.9866 15.3945 17.8564V14.873L28.5074 8.49414C28.5216 9.68751 28.5216 12.0174 28.5216 13.6796Z" fill="#143664"/>
</svg>
