<svg width="31" height="31" viewBox="0 0 31 31" fill="none" xmlns="http://www.w3.org/2000/svg">
<path fill-rule="evenodd" clip-rule="evenodd" d="M1.2651 0.0703125C0.667129 0.0703125 0.182373 0.555069 0.182373 1.15303C0.182373 1.751 0.667129 2.23576 1.2651 2.23576H2.55294L6.70197 21.9468C6.8071 22.4482 7.24914 22.8073 7.76143 22.8075H27.2504C27.8484 22.8075 28.3331 22.3227 28.3331 21.7248C28.3331 21.1268 27.8484 20.642 27.2504 20.642H8.63903L8.18225 18.4766H26.1677C26.6655 18.4765 27.0991 18.1372 27.2187 17.654L28.2634 13.4415C27.2953 13.8919 26.2194 14.1457 25.085 14.1457C20.912 14.1457 17.5059 10.7396 17.5059 6.56665C17.5059 5.815 17.6175 5.08767 17.8231 4.4012H5.21957L4.49 0.930992C4.38487 0.429605 3.94283 0.0704641 3.43054 0.0703125H1.2651Z" fill="#143664"/>
<path fill-rule="evenodd" clip-rule="evenodd" d="M24.0023 23.8906C22.2212 23.8906 20.7542 25.3577 20.7542 27.1388C20.7542 28.9199 22.2212 30.387 24.0023 30.387C25.7834 30.387 27.2505 28.9199 27.2505 27.1388C27.2505 25.3577 25.7834 23.8906 24.0023 23.8906Z" fill="#143664"/>
<path fill-rule="evenodd" clip-rule="evenodd" d="M12.0924 23.8906C10.3113 23.8906 8.84424 25.3577 8.84424 27.1388C8.84424 28.9199 10.3113 30.387 12.0924 30.387C13.8735 30.387 15.3406 28.9199 15.3406 27.1388C15.3406 25.3577 13.8735 23.8906 12.0924 23.8906Z" fill="#143664"/>
<path fill-rule="evenodd" clip-rule="evenodd" d="M28.9129 2.7389C26.7897 0.61568 23.3802 0.61568 21.257 2.7389C19.1337 4.86211 19.1337 8.27168 21.257 10.3949C23.3802 12.5181 26.7897 12.5181 28.9129 10.3949C31.0362 8.27168 31.0362 4.86211 28.9129 2.7389ZM27.3818 4.2701C27.8046 4.69292 27.8046 5.37848 27.3818 5.8013L26.6162 6.5669L27.3818 7.3325C27.8046 7.75533 27.8046 8.44088 27.3818 8.86371C26.9589 9.28653 26.2734 9.28653 25.8506 8.86371L25.085 8.0981L24.3194 8.86371C23.8965 9.28653 23.211 9.28653 22.7882 8.86371C22.3653 8.44087 22.3653 7.75533 22.7882 7.3325L23.5538 6.5669L22.7882 5.8013C22.3653 5.37848 22.3653 4.69292 22.7882 4.2701C23.211 3.84728 23.8965 3.84726 24.3194 4.2701L25.085 5.0357L25.8506 4.2701C26.2734 3.84728 26.9589 3.84726 27.3818 4.2701Z" fill="#143664"/>
</svg>
