<svg width="35" height="37" viewBox="0 0 35 37" fill="none" xmlns="http://www.w3.org/2000/svg">
    <path fill-rule="evenodd" clip-rule="evenodd" d="M25.6222 18.9926C30.4298 18.9926 34.3271 22.8899 34.3271 27.6974C34.3271 32.5049 30.4298 36.4022 25.6222 36.4022C20.8147 36.4022 16.9174 32.5049 16.9174 27.6974C16.9174 22.8899 20.8147 18.9926 25.6222 18.9926ZM13.3822 0.416016C6.3544 0.416016 0.657227 6.11319 0.657227 13.141C0.657227 16.7368 2.1492 19.9837 4.5472 22.2979C5.89274 19.9629 8.12608 18.2203 10.7522 17.5136C7.21328 15.7266 6.42826 10.9851 9.25049 8.16284C11.5324 5.88089 15.2319 5.88089 17.5139 8.16284C20.3361 10.9851 19.5512 15.7265 16.0122 17.5136C17.3875 17.8837 18.6506 18.5365 19.7344 19.4052C21.3215 18.2764 23.2467 17.5919 25.3283 17.5328C25.8318 16.1639 26.107 14.6847 26.107 13.141C26.1071 6.11319 20.41 0.416016 13.3822 0.416016ZM15.6568 25.663C16.0757 23.5999 17.1194 21.7638 18.5815 20.3603C14.274 17.1457 8.18612 18.579 5.67975 23.2698C8.47416 25.3982 12.0763 26.3095 15.6568 25.663ZM13.3823 7.91581C15.8008 7.91581 17.7611 9.87622 17.7611 12.2945C17.7611 14.7129 15.8008 16.6733 13.3823 16.6733C10.9638 16.6733 9.00355 14.7129 9.00355 12.2945C9.00346 9.87612 10.9638 7.91581 13.3823 7.91581ZM28.1703 24.2887L24.4018 28.0927L23.0575 26.7822C22.493 26.2331 21.5903 26.2457 21.0412 26.8101C20.4922 27.3746 20.5047 28.2773 21.0691 28.8264L23.4252 31.1228C23.9844 31.6668 24.8786 31.6608 25.4301 31.1062L30.1922 26.2995C30.7474 25.7412 30.7449 24.8385 30.1866 24.2833C29.6284 23.728 28.7256 23.7304 28.1703 24.2887Z" fill="#143664"/>
</svg>
