<svg width="40" height="24" viewBox="0 0 40 24" fill="none" xmlns="http://www.w3.org/2000/svg">
    <path d="M24.4721 5.28879C24.4721 7.79331 22.4417 9.82367 19.9372 9.82367C17.4327 9.82367 15.4023 7.79331 15.4023 5.28879C15.4023 2.78427 17.4327 0.753906 19.9372 0.753906C22.4417 0.753906 24.4721 2.78427 24.4721 5.28879Z" fill="#143664"/>
    <path d="M10.8682 21.2352V23.5026H29.0077V21.2352C29.0077 16.2262 24.947 12.0898 19.9379 12.0898C14.9289 12.0898 10.8682 16.2262 10.8682 21.2352Z" fill="#143664"/>
    <path d="M9.73397 8.69023C9.73397 10.5685 8.21112 12.0914 6.3328 12.0914C4.45449 12.0914 2.93164 10.5685 2.93164 8.69023C2.93164 6.81191 4.45449 5.28906 6.3328 5.28906C8.21112 5.28906 9.73397 6.81191 9.73397 8.69023Z" fill="#143664"/>
    <path d="M36.943 8.69023C36.943 10.5685 35.4201 12.0914 33.5418 12.0914C31.6635 12.0914 30.1406 10.5685 30.1406 8.69023C30.1406 6.81191 31.6635 5.28906 33.5418 5.28906C35.4201 5.28906 36.943 6.81191 36.943 8.69023Z" fill="#143664"/>
    <path d="M33.5426 14.3594C32.1222 14.3594 30.8394 14.9003 29.8447 15.7632C30.7278 17.3758 31.2752 19.2731 31.2752 21.2373V23.5047H39.2868V20.028C39.2868 16.8973 36.6733 14.3594 33.5426 14.3594Z" fill="#143664"/>
    <path d="M8.6005 21.2373C8.6005 19.2731 9.14787 17.3758 10.0309 15.7632C9.03627 14.9003 7.75345 14.3594 6.33305 14.3594C3.20233 14.3594 0.588867 16.8973 0.588867 20.028V23.5047H8.6005V21.2373Z" fill="#143664"/>
</svg>
