<svg width="34" height="35" viewBox="0 0 34 35" fill="none" xmlns="http://www.w3.org/2000/svg">
    <path fill-rule="evenodd" clip-rule="evenodd" d="M15.26 0.5625C10.8227 0.5625 7.22559 4.15958 7.22559 8.59683C7.22559 13.0341 10.8227 16.6311 15.26 16.6311C19.6972 16.6311 23.2943 13.0341 23.2943 8.59683C23.2943 4.15958 19.6972 0.5625 15.26 0.5625Z" fill="#143664"/>
    <path fill-rule="evenodd" clip-rule="evenodd" d="M28.3293 17.8163C27.5856 16.9737 26.4938 16.4395 25.2787 16.4395H22.3587C20.1121 16.4395 18.291 18.2607 18.291 20.5073V30.7272C18.291 32.9739 20.1121 34.7951 22.3587 34.7951H25.2787C26.4938 34.7951 27.5856 34.2608 28.3293 33.4182C28.7488 32.943 28.7035 32.2177 28.2283 31.7982C27.753 31.3787 27.0278 31.424 26.6083 31.8992C26.2819 32.2691 25.8079 32.4995 25.2787 32.4995H22.3587C21.38 32.4995 20.5865 31.7061 20.5865 30.7272V20.5073C20.5865 19.5285 21.38 18.735 22.3587 18.735H25.2787C25.8079 18.735 26.2819 18.9654 26.6083 19.3353C27.0278 19.8105 27.753 19.8558 28.2283 19.4363C28.7035 19.0169 28.7488 18.2915 28.3293 17.8163Z" fill="#143664"/>
    <path fill-rule="evenodd" clip-rule="evenodd" d="M32.6832 24.8069C33.1314 25.2551 33.1314 25.9817 32.6832 26.43L29.6225 29.4907C29.1743 29.9389 28.4475 29.9389 27.9993 29.4907C27.551 29.0424 27.551 28.3158 27.9993 27.8676L31.06 24.8069C31.5082 24.3586 32.235 24.3586 32.6832 24.8069Z" fill="#143664"/>
    <path fill-rule="evenodd" clip-rule="evenodd" d="M32.6832 26.4282C33.1314 25.9799 33.1314 25.2533 32.6832 24.8051L29.6225 21.7444C29.1743 21.2961 28.4475 21.2961 27.9993 21.7444C27.551 22.1926 27.551 22.9192 27.9993 23.3675L31.06 26.4282C31.5082 26.8764 32.235 26.8764 32.6832 26.4282Z" fill="#143664"/>
    <path fill-rule="evenodd" clip-rule="evenodd" d="M22.3057 25.6185C22.3057 24.9846 22.8194 24.4707 23.4534 24.4707H31.1052C31.739 24.4707 32.2529 24.9846 32.2529 25.6185C32.2529 26.2523 31.739 26.7662 31.1052 26.7662H23.4534C22.8194 26.7662 22.3057 26.2523 22.3057 25.6185Z" fill="#143664"/>
    <path d="M16.019 19.9611C16.0036 20.1417 15.9958 20.3244 15.9958 20.509V30.729C15.9958 31.8703 16.2962 32.9414 16.8223 33.8676H2.88026C1.40119 33.8676 0.202148 32.6685 0.202148 31.1895V25.5702C0.202148 24.6319 0.720003 23.7703 1.54852 23.33C6.06406 20.9305 11.0568 19.8075 16.019 19.9611Z" fill="#143664"/>
</svg>
