<svg width="34" height="35" viewBox="0 0 34 35" fill="none" xmlns="http://www.w3.org/2000/svg">
    <path d="M29.7258 24.2934V23.2156C29.7258 21.5965 28.4086 20.2793 26.7895 20.2793H17.9154V18.2636C18.892 18.1485 19.8161 17.8663 20.6725 17.4628C20.9803 16.3055 20.8307 15.1327 20.1835 14.1754C19.4524 13.0944 18.2384 12.4492 16.9366 12.4492C15.2916 12.4492 13.8111 13.4882 13.2529 15.0347C12.9691 15.8203 12.9569 16.637 13.1725 17.4474C14.0368 17.8586 14.9705 18.1461 15.9579 18.263V20.2793H7.149C5.52987 20.2793 4.21272 21.5965 4.21272 23.2156V24.2934C1.98173 24.7481 0.232422 26.7903 0.232422 29.1534C0.232422 31.8517 2.49316 34.1125 5.19148 34.1125C7.88979 34.1125 10.0853 31.8517 10.0853 29.1534C10.0853 26.7903 8.40123 24.7481 6.17024 24.2934V23.2156C6.17024 22.6756 6.60899 22.2368 7.149 22.2368H15.9579V24.2934C13.7269 24.7481 12.0428 26.7903 12.0428 29.1534C12.0428 31.8517 14.2383 34.1125 16.9366 34.1125C19.6349 34.1125 21.8304 31.8517 21.8304 29.1534C21.8304 26.7903 20.1464 24.7481 17.9154 24.2934V22.2368H26.7895C27.3295 22.2368 27.7682 22.6756 27.7682 23.2156V24.2934C25.5372 24.7481 23.8532 26.7903 23.8532 29.1534C23.8532 31.8517 26.0487 34.1125 28.747 34.1125C31.4453 34.1125 33.6408 31.8517 33.6408 29.1534C33.6408 26.7903 31.9567 24.7481 29.7258 24.2934Z" fill="#143664"/>
    <path d="M16.9399 6.57422C15.8608 6.57422 14.9824 7.45262 14.9824 8.53174C14.9824 9.61086 15.8608 10.4893 16.9399 10.4893C18.0191 10.4893 18.8975 9.61086 18.8975 8.53174C18.8975 7.45262 18.0191 6.57422 16.9399 6.57422Z" fill="#143664"/>
    <path d="M16.9358 0.703125C12.0708 0.703125 8.12695 4.64695 8.12695 9.51198C8.12695 12.1219 9.28398 14.4417 11.0874 16.0547C11.1177 15.4875 11.2108 14.9224 11.4102 14.3694C11.9045 13.0001 12.8878 11.9073 14.1125 11.2323C13.4399 10.5291 13.0208 9.58114 13.0208 8.53322C13.0208 6.374 14.7766 4.61817 16.9358 4.61817C19.095 4.61817 20.8508 6.374 20.8508 8.53322C20.8508 9.57879 20.4332 10.5245 19.7634 11.2273C20.5669 11.67 21.2731 12.2932 21.8038 13.0781C22.4136 13.9796 22.7224 15.0045 22.7752 16.0621C24.5837 14.4489 25.7447 12.1261 25.7447 9.51198C25.7447 4.64695 21.8008 0.703125 16.9358 0.703125Z" fill="#143664"/>
</svg>
