<svg width="32" height="34" viewBox="0 0 32 34" fill="none" xmlns="http://www.w3.org/2000/svg">
    <path d="M22.3097 0.962891H3.80819C2.11222 0.962891 0.724609 2.3505 0.724609 4.04647V30.7708C0.724609 32.4668 2.11222 33.8544 3.80819 33.8544H19.4111C19.2878 33.5358 19.2261 33.1863 19.2261 32.8266V30.7708C19.2261 30.4233 19.2663 30.082 19.3155 29.743H11.0032C10.4356 29.743 9.97535 29.2832 9.97535 28.7151C9.97535 28.147 10.4356 27.6873 11.0032 27.6873H19.9494C20.1971 27.1675 20.4842 26.6667 20.8501 26.2174C20.7481 26.0055 20.6604 25.7874 20.584 25.5649C20.4792 25.6009 20.371 25.6315 20.254 25.6315H11.0032C10.4356 25.6315 9.97535 25.1718 9.97535 24.6037C9.97535 24.0356 10.4356 23.5758 11.0032 23.5758H20.254C20.254 22.8258 20.391 22.108 20.6364 21.4429C20.5178 21.4906 20.3896 21.5201 20.254 21.5201H11.0032C10.4356 21.5201 9.97535 21.0603 9.97535 20.4922C9.97535 19.9241 10.4356 19.4644 11.0032 19.4644H20.254C20.7407 19.4644 21.1295 19.8095 21.2358 20.2643C22.1555 18.8285 23.6428 17.7908 25.3933 17.5012V4.04647C25.3933 2.3505 24.0056 0.962891 22.3097 0.962891ZM7.91963 29.743H5.86391C5.29633 29.743 4.83605 29.2832 4.83605 28.7151C4.83605 28.147 5.29633 27.6873 5.86391 27.6873H7.91963C8.48722 27.6873 8.94749 28.147 8.94749 28.7151C8.94749 29.2832 8.48722 29.743 7.91963 29.743ZM7.91963 25.6315H5.86391C5.29633 25.6315 4.83605 25.1718 4.83605 24.6037C4.83605 24.0356 5.29633 23.5758 5.86391 23.5758H7.91963C8.48722 23.5758 8.94749 24.0356 8.94749 24.6037C8.94749 25.1718 8.48722 25.6315 7.91963 25.6315ZM7.91963 21.5201H5.86391C5.29633 21.5201 4.83605 21.0603 4.83605 20.4922C4.83605 19.9241 5.29633 19.4644 5.86391 19.4644H7.91963C8.48722 19.4644 8.94749 19.9241 8.94749 20.4922C8.94749 21.0603 8.48722 21.5201 7.91963 21.5201ZM7.91963 17.4087H5.86391C5.29633 17.4087 4.83605 16.9489 4.83605 16.3808C4.83605 15.8127 5.29633 15.3529 5.86391 15.3529H7.91963C8.48722 15.3529 8.94749 15.8127 8.94749 16.3808C8.94749 16.9489 8.48722 17.4087 7.91963 17.4087ZM20.254 17.4087H11.0032C10.4356 17.4087 9.97535 16.9489 9.97535 16.3808C9.97535 15.8127 10.4356 15.3529 11.0032 15.3529H20.254C20.8215 15.3529 21.2818 15.8127 21.2818 16.3808C21.2818 16.9489 20.8215 17.4087 20.254 17.4087ZM21.2818 12.2694C21.2818 12.8375 20.8215 13.2972 20.254 13.2972H5.86391C5.29633 13.2972 4.83605 12.8375 4.83605 12.2694V6.10219C4.83605 5.53409 5.29633 5.07433 5.86391 5.07433H20.254C20.8215 5.07433 21.2818 5.53409 21.2818 6.10219V12.2694Z" fill="#143664"/>
    <path d="M29.2918 26.5089C30.055 25.762 30.532 24.7242 30.532 23.5743C30.532 21.3068 28.6876 19.4629 26.4206 19.4629C24.1535 19.4629 22.3091 21.3068 22.3091 23.5743C22.3091 24.7242 22.7861 25.7621 23.5493 26.5089C22.182 27.4334 21.2812 28.9982 21.2812 30.7694V32.8251C21.2812 33.3932 21.7415 33.8529 22.3091 33.8529H30.532C31.0996 33.8529 31.5599 33.3932 31.5599 32.8251V30.7694C31.5599 28.9982 30.6591 27.4334 29.2918 26.5089Z" fill="#143664"/>
</svg>
