<svg xmlns="http://www.w3.org/2000/svg" version="1.1" viewBox="-5.0 -10.0 110.0 135.0" stroke="#ffffff" fill="#ffffff">
    <g>
        <path
            d="m85 10.832h-70c-2.75 0-5 2.25-5 5v33.332c0 2.75 2.25 5 5 5h10v33.332c0 0.91797 0.75 1.668 1.668 1.668h46.668c0.91797 0 1.668-0.75 1.668-1.668v-33.332h10c2.75 0 5-2.25 5-5v-33.332c-0.003906-2.75-2.2539-5-5.0039-5zm-60 40h-3.332v-6.668h3.332zm46.668 35h-43.336v-41.668h43.332zm6.6641-35h-3.332v-6.668h3.332zm8.3359-1.6641c0 0.91797-0.75 1.668-1.668 1.668h-3.332v-8.332c0-0.91797-0.75-1.668-1.668-1.668h-6.668l-46.664-0.003907h-6.668c-0.91797 0-1.668 0.75-1.668 1.668v8.332h-3.332c-0.91797 0-1.668-0.75-1.668-1.668v-33.332c0-0.91797 0.75-1.668 1.668-1.668h70c0.91797 0 1.668 0.75 1.668 1.668z" />
        <path
            d="m71.668 17.5c-4.6016 0-8.332 3.7344-8.332 8.332 0 4.6016 3.7344 8.332 8.332 8.332 4.6016 0 8.332-3.7344 8.332-8.332 0-4.5977-3.7344-8.332-8.332-8.332zm0 13.332c-2.75 0-5-2.25-5-5 0-2.168 1.3984-4 3.332-4.6992v3.0352c0 0.91797 0.75 1.668 1.668 1.668s1.668-0.75 1.668-1.668v-3.0352c1.9336 0.68359 3.332 2.5156 3.332 4.6992 0 2.75-2.25 5-5 5z" />
        <path
            d="m26.668 32.5h-3.332c-0.91797 0-1.668 0.75-1.668 1.668s0.75 1.668 1.668 1.668h3.332c0.91797 0 1.668-0.75 1.668-1.668-0.003907-0.91797-0.75391-1.668-1.668-1.668z" />
        <path
            d="m36.668 32.5h-3.332c-0.91797 0-1.668 0.75-1.668 1.668s0.75 1.668 1.668 1.668h3.332c0.91797 0 1.668-0.75 1.668-1.668-0.003907-0.91797-0.75391-1.668-1.668-1.668z" />
        <path
            d="m46.668 32.5h-3.332c-0.91797 0-1.668 0.75-1.668 1.668s0.75 1.668 1.668 1.668h3.332c0.91797 0 1.668-0.75 1.668-1.668-0.003907-0.91797-0.75391-1.668-1.668-1.668z" />
        <path
            d="m33.332 82.5c0.91797 0 1.668-0.75 1.668-1.668v-23.332c0-0.91797-0.75-1.668-1.668-1.668s-1.668 0.75-1.668 1.668v23.332c0.003907 0.91797 0.75391 1.668 1.668 1.668z" />
        <path
            d="m66.668 82.5c0.91797 0 1.668-0.75 1.668-1.668v-23.332c0-0.91797-0.75-1.668-1.668-1.668s-1.668 0.75-1.668 1.668v23.332c0 0.91797 0.75 1.668 1.668 1.668z" />
        <path
            d="m40 69.168c0.91797 0 1.668-0.75 1.668-1.668v-10c0-0.91797-0.75-1.668-1.668-1.668s-1.668 0.75-1.668 1.668v10c0 0.91797 0.75 1.668 1.668 1.668z" />
        <path
            d="m46.668 79.168c0.91797 0 1.668-0.75 1.668-1.668v-20c0-0.91797-0.75-1.668-1.668-1.668s-1.668 0.75-1.668 1.668v20c0 0.91797 0.75 1.668 1.668 1.668z" />
        <path
            d="m53.332 79.168c0.91797 0 1.668-0.75 1.668-1.668v-20c0-0.91797-0.75-1.668-1.668-1.668s-1.668 0.75-1.668 1.668v20c0.003907 0.91797 0.75391 1.668 1.668 1.668z" />
        <path
            d="m60 69.168c0.91797 0 1.668-0.75 1.668-1.668v-10c0-0.91797-0.75-1.668-1.668-1.668s-1.668 0.75-1.668 1.668v10c0 0.91797 0.75 1.668 1.668 1.668z" />
        <path
            d="m40 75.832c0.91797 0 1.668-0.75 1.668-1.668v-1.668c0-0.91797-0.75-1.668-1.668-1.668s-1.668 0.75-1.668 1.668v1.668c0 0.91797 0.75 1.668 1.668 1.668z" />
        <path
            d="m60 75.832c0.91797 0 1.668-0.75 1.668-1.668v-1.668c0-0.91797-0.75-1.668-1.668-1.668s-1.668 0.75-1.668 1.668v1.668c0 0.91797 0.75 1.668 1.668 1.668z" />
    </g>
</svg>