<svg width="28" height="30" viewBox="0 0 28 30" fill="none" xmlns="http://www.w3.org/2000/svg">
<path d="M22.007 16.3918V13.4442L20.1025 13.0814C19.9663 12.6186 19.7851 12.1745 19.5537 11.7572L20.6422 10.1519L18.5565 8.06623L16.9513 9.15471C16.5249 8.91902 16.0807 8.7374 15.6228 8.60161L15.2599 6.70142H12.3124L11.9495 8.60593C11.4868 8.74215 11.0427 8.92335 10.6254 9.15471L9.02011 8.06623L6.9344 10.1519L8.02287 11.7572C7.79151 12.1745 7.61032 12.6186 7.47409 13.0814L5.56958 13.4442V16.3918L7.46977 16.7546C7.60123 17.2126 7.78719 17.6571 8.02287 18.0831L6.9344 19.6883L9.02011 21.7741L10.6254 20.6856C11.047 20.9169 11.4868 21.1029 11.9495 21.2344L12.3124 23.1389H15.2599L15.6228 21.2387C16.0807 21.1072 16.5253 20.9213 16.9513 20.6856L18.5565 21.7741L20.6422 19.6883L19.5537 18.0831C19.7894 17.6567 19.9711 17.2126 20.1069 16.7546L22.007 16.3918ZM19.472 19.5798L18.4471 20.6047L16.9871 19.6118L16.7376 19.7662C16.2299 20.0745 15.6902 20.3011 15.128 20.4326L14.8422 20.5005L14.5114 22.2329H13.0648L12.734 20.5005L12.4529 20.4326C11.8816 20.2921 11.3419 20.0698 10.8476 19.7662L10.5981 19.6118L9.13816 20.6047L8.11326 19.5798L9.10616 18.1198L8.95178 17.8703C8.64344 17.3626 8.41684 16.8229 8.28537 16.2607L8.21748 15.9749L6.48508 15.6441V14.1932L8.21748 13.8624L8.28537 13.5813C8.42592 13.01 8.6482 12.4703 8.95178 11.976L9.10616 11.7265L8.11326 10.2665L9.13816 9.24163L10.5981 10.2345L10.8476 10.0802C11.3419 9.77614 11.886 9.55429 12.4529 9.41375L12.734 9.34585L13.0648 7.61345H14.5114L14.8422 9.34585L15.128 9.41375C15.6902 9.54521 16.2299 9.77182 16.7376 10.0802L16.9871 10.2345L18.4471 9.24163L19.472 10.2665L18.4791 11.7265L18.6335 11.976C18.9375 12.4703 19.1593 13.0143 19.2999 13.5813L19.3678 13.8624L21.1002 14.1932V15.6397L19.3678 15.9706L19.2999 16.2564C19.1684 16.8186 18.9418 17.3583 18.6335 17.866L18.4791 18.1155L19.472 19.5802V19.5798Z" fill="#1479FF"/>
<path d="M13.7903 11.7667C12.0488 11.7667 10.6343 13.1817 10.6343 14.9228C10.6343 16.6638 12.0493 18.0788 13.7903 18.0788C15.5314 18.0788 16.9463 16.6638 16.9463 14.9228C16.9463 13.1817 15.5314 11.7667 13.7903 11.7667ZM13.7903 17.1672C12.5522 17.1672 11.5411 16.1604 11.5411 14.918C11.5411 13.6756 12.5479 12.6688 13.7903 12.6688C15.0327 12.6688 16.0395 13.6756 16.0395 14.918C16.0395 16.1604 15.0284 17.1672 13.7903 17.1672Z" fill="#1479FF"/>
<path d="M16.146 29.5603L16.1425 29.559C15.9267 29.479 15.7724 29.2948 15.7291 29.0665L15.6638 28.708C15.0528 28.7927 14.4231 28.8355 13.7904 28.8355C6.18621 28.8355 0 22.6472 0 15.0404C0 14.6823 0.0121086 14.3675 0.0367583 14.0777L0.0514617 13.9082L1.30211 13.9956L1.2887 14.1694C1.26795 14.4345 1.25757 14.7247 1.25757 15.0313C1.25757 21.947 6.88202 27.5732 13.7952 27.5732C14.5745 27.5732 15.3356 27.504 16.0573 27.3678L16.6783 27.2549L16.7908 27.888L18.7424 26.4199L16.3964 25.7414L16.5542 26.6028L15.935 26.7152C15.2296 26.8432 14.5083 26.9085 13.7909 26.9085C7.24961 26.9085 1.92787 21.5846 1.92787 15.0408C1.92787 14.7381 1.94041 14.4163 1.96462 14.0851L1.97717 13.9112L3.22998 14.0116L3.21614 14.1841C3.19235 14.4829 3.18024 14.7714 3.18024 15.0412C3.18024 20.894 7.9398 25.6562 13.7904 25.6562C14.2164 25.6562 14.6536 25.6294 15.0934 25.5766L15 25.059C14.958 24.8263 15.0329 24.5876 15.1998 24.4207L15.2032 24.4172C15.3239 24.3095 15.48 24.2498 15.643 24.2498C15.7049 24.2498 15.7672 24.2585 15.8273 24.2749L20.6158 25.6644L20.7079 26.0692L20.7088 26.0756C20.7464 26.326 20.6491 26.5626 20.4489 26.7083L16.8016 29.4514C16.6139 29.5923 16.3691 29.6338 16.1456 29.5616L16.146 29.5603Z" fill="white"/>
<path d="M1.41523 9.34501L2.24034 9.726C2.49419 9.17289 2.79345 8.62844 3.12903 8.11641L2.36705 7.6178C2.00898 8.1709 1.69156 8.75125 1.41479 9.34544L1.41523 9.34501Z" fill="white"/>
<path d="M0.385986 12.6324L1.27943 12.7911C1.38841 12.1879 1.53804 11.5893 1.73307 11.009L0.871629 10.7231C0.663187 11.3446 0.499721 11.9837 0.386419 12.6324H0.385986Z" fill="white"/>
<path d="M3.94565 6.99629C4.12685 6.77401 4.32188 6.55173 4.52168 6.33896L3.8596 5.71753C3.6464 5.94413 3.43796 6.18458 3.24292 6.42026L3.94565 6.99629Z" fill="white"/>
<path d="M5.35593 8.31574C5.53712 8.08914 5.72783 7.86686 5.92719 7.65842L5.26511 7.03699C5.05191 7.26359 4.84347 7.50403 4.64844 7.7488L5.35593 8.31574Z" fill="white"/>
<path d="M3.98187 10.5467C4.19031 10.0931 4.43075 9.64897 4.70276 9.22733L3.94079 8.73779C3.64585 9.19576 3.38768 9.67664 3.16064 10.1662L3.98144 10.5472L3.98187 10.5467Z" fill="white"/>
<path d="M2.29492 12.882L3.18837 13.0498C3.27918 12.5602 3.40589 12.0703 3.5646 11.5989L2.70316 11.3087C2.53536 11.8212 2.39482 12.3518 2.29492 12.8824V12.882Z" fill="white"/>
<path d="M26.2942 16.0679L26.305 15.8953C26.3228 15.6147 26.3318 15.3236 26.3318 15.0313C26.3318 8.11813 20.7074 2.49368 13.7942 2.49368C13.2498 2.49368 12.6867 2.5313 12.1206 2.60568L11.4953 2.68698L11.3959 1.92284L9.37069 3.29457L11.6821 4.09288L11.587 3.35987L12.2024 3.27814C12.736 3.20808 13.2701 3.17219 13.7895 3.17219C16.9537 3.17219 19.9316 4.40727 22.1743 6.65039C24.417 8.89352 25.6503 11.8675 25.6481 15.0265C25.6481 15.2938 25.6421 15.5286 25.6295 15.7435L25.6196 15.9165L24.3664 15.8413L24.3772 15.6683C24.3871 15.5066 24.3932 15.3314 24.3945 15.1355C24.4407 9.24034 19.689 4.42024 13.7938 4.41592C13.5114 4.41592 13.2459 4.42543 12.9868 4.44489L13.0392 4.84275C13.0699 5.0767 12.9843 5.31153 12.81 5.47067L12.8065 5.47326C12.6906 5.56883 12.5436 5.62159 12.3918 5.62159C12.3174 5.62159 12.2439 5.60948 12.1734 5.58527L7.48045 3.96531L7.40174 3.55967V3.55577C7.36455 3.30668 7.4731 3.06321 7.68413 2.9205L11.4573 0.365584C11.6519 0.233687 11.8988 0.204713 12.1189 0.288176H12.1202L12.1254 0.291203C12.336 0.387639 12.48 0.58008 12.5107 0.806252L12.5752 1.29881C12.9747 1.26335 13.3825 1.24562 13.7903 1.24562C21.3941 1.24562 27.5808 7.43399 27.5808 15.0404C27.5808 15.3297 27.5734 15.635 27.5578 15.9732L27.5496 16.1492L26.2942 16.0674V16.0679Z" fill="white"/>
<path d="M26.451 20.0784L25.6077 19.7428C25.4127 20.228 25.186 20.7085 24.9365 21.1669L25.7301 21.6067C26.0021 21.1124 26.2469 20.5956 26.451 20.0784Z" fill="white"/>
<path d="M27.2352 17.2355L26.3417 17.0902C26.26 17.607 26.1424 18.1242 25.9971 18.6276L26.8676 18.8814C27.022 18.3417 27.1444 17.7886 27.2347 17.2355H27.2352Z" fill="white"/>
<path d="M25.068 22.6813L24.3151 22.1736C24.1521 22.414 23.9795 22.654 23.7983 22.8811L24.5102 23.4389C24.7052 23.1942 24.8911 22.9403 25.068 22.6817V22.6813Z" fill="white"/>
<path d="M22.2839 21.6885L22.9957 22.2463C23.141 22.0604 23.2815 21.8701 23.4173 21.6794L22.6735 21.1626C22.5464 21.3438 22.4197 21.5163 22.2834 21.6885H22.2839Z" fill="white"/>
<path d="M24.6282 19.4527L23.7893 19.1128C23.644 19.4709 23.4762 19.8294 23.2859 20.1693L24.0838 20.6047C24.2831 20.2285 24.4691 19.8384 24.6278 19.4531L24.6282 19.4527Z" fill="white"/>
<path d="M25.3217 17.0084L24.4283 16.8588C24.3647 17.2441 24.2787 17.6298 24.1697 18.0013L25.0402 18.2461C25.1535 17.8426 25.2486 17.43 25.3213 17.008L25.3217 17.0084Z" fill="white"/>
</svg>
