<svg width="30" height="30" viewBox="0 0 30 30" fill="none" xmlns="http://www.w3.org/2000/svg">
    <path d="M29.2955 7.78911L24.2126 0.898969C24.0529 0.682438 23.7999 0.554688 23.5309 0.554688C23.2618 0.554688 23.0088 0.682438 22.8491 0.898969L17.7662 7.78911C17.5473 8.0859 17.5426 8.4958 17.7706 8.80095C17.9343 9.01991 18.1995 9.13913 18.4728 9.13913H20.707V29.4707H25.5075C25.9754 29.4707 26.3547 29.0914 26.3547 28.6236V9.13913H28.589C28.8622 9.13913 29.1275 9.01985 29.2911 8.80095C29.5191 8.4958 29.5144 8.0859 29.2955 7.78911Z" fill="#143664"/>
    <path d="M15.9771 12.81V29.4706H19.0127V11.9629H16.8242C16.3563 11.9629 15.9771 12.3422 15.9771 12.81Z" fill="#143664"/>
    <path d="M11.2473 16.1987V29.4707H14.2829V15.3516H12.0945C11.6266 15.3516 11.2473 15.7309 11.2473 16.1987Z" fill="#143664"/>
    <path d="M6.51733 19.5874V29.4708H9.55295V18.7402H7.36448C6.89663 18.7402 6.51733 19.1195 6.51733 19.5874Z" fill="#143664"/>
    <path d="M1.78711 22.9741V28.6218C1.78711 29.0896 2.16641 29.4689 2.63426 29.4689H4.82273V22.127H2.63426C2.16641 22.127 1.78711 22.5062 1.78711 22.9741Z" fill="#143664"/>
    <path d="M8.13037 8.14258V9.95666C8.44805 9.7747 8.63776 9.45295 8.68921 9.14684C8.72631 8.92602 8.7415 8.39994 8.13037 8.14258Z" fill="#143664"/>
    <path d="M6.70077 5.74403C6.65564 5.98343 6.7128 6.20584 6.84636 6.31055C6.89341 6.34743 6.94526 6.38368 7.00083 6.41932V5.23828C6.82846 5.37044 6.73347 5.57053 6.70077 5.74403Z" fill="#143664"/>
    <path d="M7.6045 0.554688C3.71185 0.554688 0.544922 3.72161 0.544922 7.61426C0.544922 11.5069 3.71185 14.6738 7.6045 14.6738C11.4971 14.6738 14.6641 11.5069 14.6641 7.61426C14.6641 3.72161 11.4971 0.554688 7.6045 0.554688ZM9.80302 9.33318C9.67013 10.1236 9.06865 10.9251 8.13024 11.1632V11.5676C8.13024 11.8795 7.87739 12.1324 7.56547 12.1324C7.25355 12.1324 7.00071 11.8795 7.00071 11.5676V11.2174C6.54471 11.1779 6.16672 11.0548 5.63092 10.7042C5.36989 10.5335 5.29669 10.1834 5.46742 9.9224C5.63821 9.66143 5.98825 9.58823 6.24923 9.75896C6.55431 9.95849 6.74543 10.0453 7.00071 10.0812V7.69581C6.63993 7.53045 6.37031 7.37141 6.14909 7.19786C5.68045 6.83031 5.46646 6.19252 5.59065 5.53338C5.72597 4.81511 6.22596 4.24368 6.89538 4.042C6.93084 4.03133 6.96592 4.02156 7.00071 4.01235V3.6609C7.00071 3.34904 7.25355 3.09613 7.56547 3.09613C7.87739 3.09613 8.13024 3.34904 8.13024 3.6609V3.95051C8.67857 4.04545 9.06617 4.31535 9.25384 4.53081C9.45868 4.76598 9.43411 5.12274 9.19894 5.32758C8.9649 5.53141 8.61074 5.50814 8.40539 5.27647C8.39251 5.26342 8.30272 5.17701 8.13024 5.11337V6.93824C8.23048 6.97546 8.33062 7.01154 8.42894 7.04628C9.4218 7.39728 9.97397 8.31632 9.80302 9.33318Z" fill="#143664"/>
</svg>
