<svg width="25" height="31" viewBox="0 0 25 31" fill="none" xmlns="http://www.w3.org/2000/svg">
<path fill-rule="evenodd" clip-rule="evenodd" d="M6.70267 18.8602H4.46839C4.05505 18.8602 3.72363 19.1861 3.72363 19.5843V26.825C3.72363 27.2269 4.05505 27.5491 4.46839 27.5491H6.70267C7.11601 27.5491 7.44743 27.2269 7.44743 26.825V19.5843C7.44743 19.1861 7.11601 18.8602 6.70267 18.8602ZM5.95791 26.1009H5.21315V20.3084H5.95791V26.1009Z" fill="white"/>
<path fill-rule="evenodd" clip-rule="evenodd" d="M10.4265 6.44751H4.46839C4.05505 6.44751 3.72363 6.78265 3.72363 7.19227V13.1503C3.72363 13.5637 4.05505 13.8951 4.46839 13.8951H10.4265C10.8398 13.8951 11.1712 13.5637 11.1712 13.1503V7.19227C11.1712 6.78265 10.8398 6.44751 10.4265 6.44751ZM9.6817 12.4056H5.21315V7.93703H9.6817V12.4056Z" fill="white"/>
<path fill-rule="evenodd" clip-rule="evenodd" d="M11.6678 16.3777H9.43348C9.02014 16.3777 8.68872 16.6734 8.68872 17.0348V26.8919C8.68872 27.2566 9.02014 27.5491 9.43348 27.5491H11.6678C12.0811 27.5491 12.4125 27.2566 12.4125 26.8919V17.0348C12.4125 16.6734 12.0811 16.3777 11.6678 16.3777ZM10.923 26.2348H10.1782V17.692H10.923V26.2348Z" fill="#1479FF"/>
<path fill-rule="evenodd" clip-rule="evenodd" d="M12.4126 3.34439C12.4126 3.00304 12.5988 2.72375 12.8264 2.72375H13.2401C13.4677 2.72375 13.6539 3.00304 13.6539 3.34439C13.6539 3.68573 13.4677 3.96502 13.2401 3.96502H12.8264C12.5988 3.96502 12.4126 3.68884 12.4126 3.34439Z" fill="white"/>
<path fill-rule="evenodd" clip-rule="evenodd" d="M16.1364 13.2744C16.1364 13.6189 15.897 13.8951 15.6044 13.8951H12.9446C12.652 13.8951 12.4126 13.6189 12.4126 13.2744C12.4126 12.93 12.652 12.6538 12.9446 12.6538H15.6044C15.897 12.6538 16.1364 12.9331 16.1364 13.2744Z" fill="white"/>
<path fill-rule="evenodd" clip-rule="evenodd" d="M16.6328 21.3427H14.3986C13.9852 21.3427 13.6538 21.6712 13.6538 22.0728V26.8188C13.6538 27.2241 13.9852 27.549 14.3986 27.549H16.6328C17.0462 27.549 17.3776 27.2241 17.3776 26.8188V22.0728C17.3776 21.6712 17.0462 21.3427 16.6328 21.3427ZM15.8881 26.0887H15.1433V22.803H15.8881V26.0887Z" fill="#1479FF"/>
<path fill-rule="evenodd" clip-rule="evenodd" d="M21.1014 10.7919C21.1014 11.1363 20.8222 11.4125 20.4808 11.4125H13.0332C12.6919 11.4125 12.4126 11.1363 12.4126 10.7919C12.4126 10.4474 12.6919 10.1713 13.0332 10.1713H20.4808C20.8222 10.1713 21.1014 10.4505 21.1014 10.7919Z" fill="white"/>
<path fill-rule="evenodd" clip-rule="evenodd" d="M13.0332 6.44751H20.4808C20.8222 6.44751 21.1014 6.72679 21.1014 7.06814C21.1014 7.40949 20.8222 7.68877 20.4808 7.68877H13.0332C12.6919 7.68877 12.4126 7.41259 12.4126 7.06814C12.4126 6.72369 12.6919 6.44751 13.0332 6.44751Z" fill="white"/>
<path fill-rule="evenodd" clip-rule="evenodd" d="M21.5979 20.1014H19.3637C18.9503 20.1014 18.6189 20.3929 18.6189 20.7491V26.9014C18.6189 27.2608 18.9503 27.549 19.3637 27.549H21.5979C22.0113 27.549 22.3427 27.2608 22.3427 26.9014V20.7491C22.3427 20.3929 22.0113 20.1014 21.5979 20.1014ZM20.8532 26.2538H20.1084V21.3967H20.8532V26.2538Z" fill="#1479FF"/>
<path fill-rule="evenodd" clip-rule="evenodd" d="M24.172 2.10311H17.9657V0.861843C17.9657 0.520495 17.675 0.241211 17.3124 0.241211H7.51292C7.15034 0.241211 6.85962 0.520495 6.85962 0.861843V2.10311H0.653297C0.290717 2.10311 0 2.38239 0 2.72374V29.4109C0 29.7554 0.290717 30.0316 0.653297 30.0316H24.172C24.5346 30.0316 24.8253 29.7554 24.8253 29.4109V2.72374C24.8253 2.38239 24.5346 2.10311 24.172 2.10311ZM23.5187 28.7903H1.30659V3.34437H6.85962V4.58564C6.85962 4.93009 7.15034 5.20627 7.51292 5.20627H10.1261C10.4854 5.20627 10.7794 4.93009 10.7794 4.58564C10.7794 4.24119 10.4854 3.965 10.1261 3.965H8.16621V1.48248H16.6591V3.965H16.0058C15.6465 3.965 15.3525 4.24429 15.3525 4.58564C15.3525 4.92698 15.6465 5.20627 16.0058 5.20627H17.3124C17.675 5.20627 17.9657 4.93009 17.9657 4.58564V3.34437H23.5187V28.7903Z" fill="white"/>
<path fill-rule="evenodd" clip-rule="evenodd" d="M6.70267 18.8602H4.46839C4.05505 18.8602 3.72363 19.1861 3.72363 19.5843V26.825C3.72363 27.2269 4.05505 27.5491 4.46839 27.5491H6.70267C7.11601 27.5491 7.44743 27.2269 7.44743 26.825V19.5843C7.44743 19.1861 7.11601 18.8602 6.70267 18.8602ZM5.95791 26.1009H5.21315V20.3084H5.95791V26.1009Z" fill="white"/>
<path fill-rule="evenodd" clip-rule="evenodd" d="M10.4265 6.44751H4.46839C4.05505 6.44751 3.72363 6.78265 3.72363 7.19227V13.1503C3.72363 13.5637 4.05505 13.8951 4.46839 13.8951H10.4265C10.8398 13.8951 11.1712 13.5637 11.1712 13.1503V7.19227C11.1712 6.78265 10.8398 6.44751 10.4265 6.44751ZM9.6817 12.4056H5.21315V7.93703H9.6817V12.4056Z" fill="white"/>
<path fill-rule="evenodd" clip-rule="evenodd" d="M12.4126 3.34439C12.4126 3.00304 12.5988 2.72375 12.8264 2.72375H13.2401C13.4677 2.72375 13.6539 3.00304 13.6539 3.34439C13.6539 3.68573 13.4677 3.96502 13.2401 3.96502H12.8264C12.5988 3.96502 12.4126 3.68884 12.4126 3.34439Z" fill="white"/>
<path fill-rule="evenodd" clip-rule="evenodd" d="M16.1364 13.2744C16.1364 13.6189 15.897 13.8951 15.6044 13.8951H12.9446C12.652 13.8951 12.4126 13.6189 12.4126 13.2744C12.4126 12.93 12.652 12.6538 12.9446 12.6538H15.6044C15.897 12.6538 16.1364 12.9331 16.1364 13.2744Z" fill="white"/>
<path fill-rule="evenodd" clip-rule="evenodd" d="M12.4126 7.06814C12.4126 6.72679 12.6919 6.44751 13.0332 6.44751H20.4808C20.8222 6.44751 21.1014 6.72679 21.1014 7.06814C21.1014 7.40949 20.8222 7.68877 20.4808 7.68877H13.0332C12.6919 7.68877 12.4126 7.41259 12.4126 7.06814Z" fill="white"/>
<path fill-rule="evenodd" clip-rule="evenodd" d="M6.70267 18.8602H4.46839C4.05505 18.8602 3.72363 19.1861 3.72363 19.5843V26.825C3.72363 27.2269 4.05505 27.5491 4.46839 27.5491H6.70267C7.11601 27.5491 7.44743 27.2269 7.44743 26.825V19.5843C7.44743 19.1861 7.11601 18.8602 6.70267 18.8602ZM5.95791 26.1009H5.21315V20.3084H5.95791V26.1009Z" fill="#1479FF"/>
<path fill-rule="evenodd" clip-rule="evenodd" d="M16.1364 13.2744C16.1364 13.6189 15.897 13.8951 15.6044 13.8951H12.9446C12.652 13.8951 12.4126 13.6189 12.4126 13.2744C12.4126 12.93 12.652 12.6538 12.9446 12.6538H15.6044C15.897 12.6538 16.1364 12.9331 16.1364 13.2744Z" fill="white"/>
<path fill-rule="evenodd" clip-rule="evenodd" d="M10.4265 6.44751H4.46839C4.05505 6.44751 3.72363 6.78265 3.72363 7.19227V13.1503C3.72363 13.5637 4.05505 13.8951 4.46839 13.8951H10.4265C10.8398 13.8951 11.1712 13.5637 11.1712 13.1503V7.19227C11.1712 6.78265 10.8398 6.44751 10.4265 6.44751ZM9.6817 12.4056H5.21315V7.93703H9.6817V12.4056Z" fill="white"/>
<path fill-rule="evenodd" clip-rule="evenodd" d="M21.1014 7.06814C21.1014 7.41259 20.8222 7.68877 20.4808 7.68877H13.0332C12.6919 7.68877 12.4126 7.41259 12.4126 7.06814C12.4126 6.72369 12.6919 6.44751 13.0332 6.44751H20.4808C20.8222 6.44751 21.1014 6.72679 21.1014 7.06814Z" fill="white"/>
<path fill-rule="evenodd" clip-rule="evenodd" d="M13.6539 3.34439C13.6539 3.68884 13.4677 3.96502 13.2401 3.96502H12.8264C12.5988 3.96502 12.4126 3.68884 12.4126 3.34439C12.4126 2.99994 12.5988 2.72375 12.8264 2.72375H13.2401C13.4677 2.72375 13.6539 3.00304 13.6539 3.34439Z" fill="white"/>
</svg>
