<svg width="26" height="34" viewBox="0 0 26 34" fill="none" xmlns="http://www.w3.org/2000/svg">
    <path d="M21.1754 6.5623H25.8045L19.8984 0.65625V5.28532C19.8984 5.98766 20.4731 6.5623 21.1754 6.5623Z" fill="#143664"/>
    <path d="M19.1069 5.28531V0.65625H3.71288C1.77186 0.65625 0.201172 2.22694 0.201172 4.16795V29.8353C0.201172 31.7763 1.77186 33.347 3.71288 33.347H22.293C24.234 33.347 25.8047 31.7763 25.8047 29.8353V7.35403H21.1756C20.0327 7.35403 19.1069 6.42821 19.1069 5.28531ZM6.53501 14.5179L10.532 9.95907C10.7618 9.69729 11.0938 9.55044 11.4386 9.54405C11.4705 9.54405 11.5025 9.54405 11.5344 9.55044C11.9175 9.58236 12.2623 9.78668 12.4666 10.1123L14.5034 13.3431L15.9591 11.7788C15.3973 11.4212 15.2313 10.6742 15.5888 10.1123C15.8123 9.76114 16.1954 9.55044 16.6104 9.55044H18.5833C19.2474 9.56321 19.7837 10.1123 19.7709 10.7763C19.7709 10.8274 19.7646 10.8785 19.7582 10.9232V12.6918C19.7582 13.3622 19.2155 13.8986 18.5514 13.8986C18.213 13.8986 17.8874 13.7581 17.6575 13.5027L15.2057 16.1397C14.9759 16.3887 14.6566 16.5228 14.3182 16.5292C14.2799 16.5292 14.2416 16.5292 14.2033 16.5228C13.833 16.4845 13.4946 16.2801 13.2966 15.9609L11.2854 12.7684L8.35471 16.1077C7.91415 16.6122 7.14796 16.6569 6.64994 16.2163C6.14553 15.7757 6.09445 15.0159 6.53501 14.5179ZM14.3438 26.0874C14.3438 27.0196 13.584 27.7794 12.6518 27.7794H7.09688C6.16468 27.7794 5.40488 27.0196 5.40488 26.0874C5.40488 25.1552 6.1583 24.3954 7.09688 24.3954H12.6518C13.584 24.3954 14.3438 25.1552 14.3438 26.0874ZM18.909 22.0329H7.09688C6.16468 22.0329 5.40488 21.2731 5.40488 20.3409C5.40488 19.4087 6.16468 18.6489 7.09688 18.6489H18.909C19.8412 18.6489 20.601 19.4087 20.601 20.3409C20.601 21.2731 19.8412 22.0329 18.909 22.0329Z" fill="#143664"/>
</svg>
