<svg width="28" height="28" viewBox="0 0 28 28" fill="none" xmlns="http://www.w3.org/2000/svg">
<path d="M13.654 18.619C10.916 18.619 8.68896 16.3919 8.68896 13.6539C8.68896 10.9159 10.916 8.68884 13.654 8.68884C16.392 8.68884 18.6191 10.9159 18.6191 13.6539C18.6191 16.3919 16.392 18.619 13.654 18.619ZM13.654 10.5883C11.9613 10.5883 10.5845 11.9651 10.5845 13.6578C10.5845 15.3505 11.9613 16.7273 13.654 16.7273C15.3467 16.7273 16.7235 15.3505 16.7235 13.6578C16.7235 11.9651 15.3467 10.5883 13.654 10.5883Z" fill="#1479FF"/>
<path d="M11.0195 27.3078C10.5746 27.3078 10.1912 27.0032 10.103 26.5798L9.26317 22.52L9.09827 22.4383C8.74548 22.2675 8.40036 22.0743 8.07441 21.8663L7.91718 21.766L3.8639 23.092C3.76803 23.1218 3.66833 23.1403 3.56479 23.1403C3.23117 23.1403 2.92439 22.9658 2.75566 22.6872L0.125053 18.2745C-0.0973602 17.9031 -0.0168313 17.4277 0.316788 17.1454L3.53028 14.4116L3.51877 14.2296C3.50727 14.0402 3.50343 13.8471 3.50343 13.6576C3.50343 13.4682 3.50727 13.275 3.51877 13.0856L3.53028 12.9036L0.316788 10.1661C-0.0168313 9.88386 -0.0973602 9.40842 0.125053 9.03699L2.7595 4.62064C2.92439 4.34206 3.235 4.16749 3.56862 4.16749C3.66833 4.16749 3.77186 4.18235 3.86773 4.21578L7.92102 5.54179L8.07824 5.44151C8.40803 5.22979 8.75315 5.03664 9.10211 4.8695L9.267 4.78778L10.1068 0.72801C10.195 0.30829 10.5785 0 11.0233 0H16.2884C16.7332 0 17.1167 0.304576 17.201 0.72801L18.0408 4.78778L18.2057 4.8695C18.5547 5.04036 18.8998 5.2335 19.2296 5.44151L19.3868 5.54179L23.4401 4.21578C23.536 4.18606 23.6357 4.16749 23.7392 4.16749C24.0728 4.16749 24.3796 4.34206 24.5483 4.62064L27.1828 9.03699C27.4052 9.40842 27.3247 9.88386 26.991 10.1661L23.7775 12.8999L23.789 13.0819C23.8006 13.2713 23.8044 13.4645 23.8044 13.6539C23.8044 13.8433 23.8006 14.0365 23.789 14.2259L23.7775 14.4079L26.991 17.1417C27.3247 17.424 27.4052 17.8994 27.1828 18.2708L24.5483 22.6872C24.3834 22.9658 24.0728 23.1403 23.7392 23.1403C23.6395 23.1403 23.536 23.1255 23.4401 23.092L19.3906 21.766L19.2334 21.8663C18.9075 22.0743 18.5623 22.2675 18.2095 22.4383L18.0447 22.52L17.2049 26.5798C17.1167 26.9995 16.7332 27.3078 16.2922 27.3078H11.0271H11.0195ZM8.07824 19.8569C8.28148 19.8569 8.48089 19.9237 8.64194 20.0426C9.19798 20.4512 9.8077 20.7929 10.4481 21.0529C10.7357 21.168 10.9428 21.4132 11.0003 21.7103L11.7826 25.5027H15.5176L16.2999 21.7103C16.3612 21.4169 16.5683 21.1717 16.8521 21.0529C17.4925 20.7929 18.0983 20.4512 18.6582 20.0426C18.8193 19.9237 19.0187 19.8569 19.2219 19.8569C19.3254 19.8569 19.4251 19.8717 19.521 19.9051L23.3059 21.1457L25.1734 18.0108L22.1746 15.4554C21.9407 15.2585 21.8257 14.9614 21.864 14.6642C21.9062 14.3299 21.9292 13.9882 21.9292 13.6539C21.9292 13.3196 21.9062 12.9779 21.864 12.6436C21.8257 12.3465 21.9407 12.0493 22.1746 11.8525L25.1734 9.29699L23.3059 6.16209L19.521 7.40268C19.4251 7.43239 19.3254 7.45096 19.2219 7.45096C19.0187 7.45096 18.8193 7.38411 18.6582 7.26525C18.1022 6.85667 17.4925 6.51495 16.8521 6.25495C16.5645 6.1398 16.3574 5.89466 16.2999 5.59751L15.5176 1.80517H11.7826L11.0003 5.59751C10.9389 5.89094 10.7319 6.13609 10.4481 6.25495C9.8077 6.51495 9.19798 6.85667 8.64194 7.26525C8.48089 7.38411 8.28148 7.45096 8.07824 7.45096C7.97854 7.45096 7.875 7.43611 7.77913 7.40268L3.99428 6.16209L2.12677 9.29699L5.12551 11.8525C5.35943 12.0493 5.47447 12.3465 5.43613 12.6436C5.39394 12.9779 5.37094 13.3196 5.37094 13.6539C5.37094 13.9882 5.39394 14.3299 5.43613 14.6642C5.47447 14.9614 5.35943 15.2585 5.12551 15.4554L2.12677 18.0108L3.99428 21.1457L7.77913 19.9051C7.875 19.8717 7.9747 19.8569 8.07824 19.8569Z" fill="white"/>
</svg>
