<svg width="36" height="36" viewBox="0 0 36 36" fill="none" xmlns="http://www.w3.org/2000/svg">
    <path fill-rule="evenodd" clip-rule="evenodd" d="M22.394 29.9057H18.6907C18.3589 29.9057 18.0802 29.6766 18.016 29.3511L17.622 27.3525L16.3954 26.8444V26.7531C16.3954 25.7026 15.5927 24.8363 14.5685 24.7347V22.1374C16.1589 23.5463 18.2505 24.4022 20.5423 24.4022C25.52 24.4022 29.5552 20.367 29.5552 15.3894C29.5552 10.4117 25.5201 6.37656 20.5423 6.37656C15.5646 6.37656 11.5295 10.4118 11.5295 15.3894C11.5295 15.8031 11.5579 16.2102 11.6119 16.6091H6.02602V13.5377C6.02602 13.2058 6.25509 12.9272 6.58067 12.863L8.57906 12.469L10.0182 8.99524L8.88358 7.30329C8.69878 7.02772 8.73387 6.66864 8.96845 6.43407L11.5871 3.81547C11.8218 3.5809 12.1807 3.54588 12.4563 3.7306L14.1483 4.86527L17.6221 3.42608L18.0161 1.4277C18.0803 1.10212 18.3589 0.873047 18.6907 0.873047H22.394C22.7257 0.873047 23.0044 1.10212 23.0686 1.4277L23.4626 3.42608L26.9364 4.86527L28.6283 3.7306C28.9039 3.5458 29.2629 3.58082 29.4975 3.81547L32.1161 6.43407C32.3507 6.66872 32.3857 7.02772 32.2009 7.30329L31.0663 8.99524L32.5054 12.469L34.5038 12.863C34.8294 12.9272 35.0585 13.2058 35.0585 13.5377V17.241C35.0585 17.5728 34.8294 17.8515 34.5038 17.9157L32.5054 18.3097L31.0663 21.7835L32.2009 23.4755C32.3857 23.7511 32.3507 24.1101 32.1161 24.3447L29.4975 26.9632C29.2629 27.1979 28.9038 27.2329 28.6282 27.0482L26.9362 25.9134L23.4625 27.3526L23.0685 29.3511C23.0043 29.6767 22.7258 29.9057 22.394 29.9057ZM14.367 25.8413H12.2361V28.4179C12.2361 28.7266 11.9861 28.9762 11.6777 28.9762H8.77567C8.46716 28.9762 8.21727 28.7266 8.21727 28.4179V25.8413H6.08632C5.58423 25.8413 5.17467 26.2509 5.17467 26.753V35.0336C5.17467 35.5357 5.58423 35.9453 6.08632 35.9453H14.3669C14.8691 35.9453 15.2787 35.5357 15.2787 35.0336V26.753C15.2787 26.2508 14.8691 25.8413 14.3669 25.8413H14.367ZM5.87839 17.7258V20.5615H8.39091V17.7258H5.87839ZM13.4519 24.7248V18.8658C13.4519 18.2379 12.9398 17.7258 12.3119 17.7258H9.50746V21.1199C9.50746 21.4287 9.25742 21.6783 8.94915 21.6783H5.32015C5.01172 21.6783 4.76183 21.4287 4.76183 21.1199V17.7258H1.95739C1.32952 17.7258 0.817383 18.2379 0.817383 18.8658V29.2203C0.817383 29.8481 1.32952 30.3603 1.95739 30.3603H4.05811V26.7531C4.05811 25.6347 4.96801 24.7248 6.0864 24.7248H13.4519ZM11.1196 27.8598V25.8414H9.33383V27.8598H11.1196ZM16.9506 10.2445V11.0656C17.7351 11.3051 18.3075 12.0354 18.3075 12.8974C18.3075 13.7594 17.7351 14.4897 16.9506 14.7293V20.5343C16.9506 20.8431 16.7007 21.0927 16.3924 21.0927C16.0841 21.0927 15.8341 20.8431 15.8341 20.5343V14.7292C15.0494 14.4897 14.477 13.7592 14.477 12.8973C14.477 12.0354 15.0494 11.305 15.8341 11.0656V10.2445C15.8341 9.93664 16.084 9.6862 16.3924 9.6862C16.7009 9.6862 16.9506 9.93664 16.9506 10.2445ZM16.3924 12.099C15.952 12.099 15.5936 12.457 15.5936 12.8973C15.5936 13.3377 15.9519 13.6958 16.3924 13.6958C16.8329 13.6958 17.191 13.3376 17.191 12.8973C17.191 12.4571 16.8327 12.099 16.3924 12.099ZM21.1006 10.2445V15.3415C21.8852 15.581 22.4576 16.3115 22.4576 17.1733C22.4576 18.0352 21.8852 18.7665 21.1006 19.0061V20.5344C21.1006 20.8432 20.8506 21.0927 20.5423 21.0927C20.2341 21.0927 19.984 20.8432 19.984 20.5344V19.0061C19.1994 18.7665 18.6271 18.0359 18.6271 17.1733C18.6271 16.3107 19.1994 15.581 19.984 15.3415V10.2445C19.984 9.93664 20.2341 9.6862 20.5423 9.6862C20.8506 9.6862 21.1006 9.93664 21.1006 10.2445ZM20.5423 16.3749C20.1021 16.3749 19.7437 16.733 19.7437 17.1733C19.7437 17.6137 20.102 17.9725 20.5423 17.9725C20.9827 17.9725 21.3411 17.6144 21.3411 17.1733C21.3411 16.7323 20.9828 16.3749 20.5423 16.3749ZM25.2506 10.2445V11.0655C26.0353 11.3049 26.6077 12.0354 26.6077 12.8973C26.6077 13.7593 26.0353 14.4897 25.2506 14.7292V20.5343C25.2506 20.843 25.0007 21.0926 24.6924 21.0926C24.384 21.0926 24.1341 20.843 24.1341 20.5343V14.7291C23.3496 14.4896 22.777 13.7591 22.777 12.8973C22.777 12.0354 23.3495 11.305 24.1341 11.0655V10.2444C24.1341 9.93656 24.3841 9.68612 24.6924 9.68612C25.0007 9.68612 25.2506 9.93656 25.2506 10.2444V10.2445ZM24.6924 12.099C24.252 12.099 23.8936 12.457 23.8936 12.8973C23.8936 13.3377 24.2519 13.6958 24.6924 13.6958C25.1329 13.6958 25.491 13.3376 25.491 12.8973C25.491 12.4571 25.1327 12.099 24.6924 12.099Z" fill="#143664"/>
</svg>
