<svg width="32" height="31" viewBox="0 0 32 31" fill="none" xmlns="http://www.w3.org/2000/svg">
    <path fill-rule="evenodd" clip-rule="evenodd" d="M1.92403 0.25C1.32606 0.25 0.841309 0.734756 0.841309 1.33272C0.841309 1.93069 1.32606 2.41544 1.92403 2.41544H3.21188L7.3609 22.1265C7.46604 22.6279 7.90807 22.987 8.42036 22.9872H27.9094C28.5073 22.9872 28.9921 22.5024 28.9921 21.9044C28.9921 21.3065 28.5073 20.8217 27.9094 20.8217H9.29796L8.84119 18.6563H26.8266C27.3244 18.6562 27.758 18.3168 27.8776 17.8337L28.9223 13.6212C27.9543 14.0716 26.8783 14.3254 25.7439 14.3254C21.571 14.3254 18.1649 10.9193 18.1649 6.74633C18.1649 5.99469 18.2765 5.26736 18.4821 4.58089H5.8785L5.14894 1.11068C5.0438 0.609293 4.60177 0.250152 4.08948 0.25H1.92403Z" fill="#143664"/>
    <path fill-rule="evenodd" clip-rule="evenodd" d="M24.6613 24.0703C22.8802 24.0703 21.4131 25.5374 21.4131 27.3185C21.4131 29.0996 22.8802 30.5666 24.6613 30.5666C26.4423 30.5666 27.9094 29.0996 27.9094 27.3185C27.9094 25.5374 26.4423 24.0703 24.6613 24.0703Z" fill="#143664"/>
    <path fill-rule="evenodd" clip-rule="evenodd" d="M12.7511 24.0703C10.97 24.0703 9.50293 25.5374 9.50293 27.3185C9.50293 29.0996 10.97 30.5666 12.7511 30.5666C14.5322 30.5666 15.9993 29.0996 15.9993 27.3185C15.9993 25.5374 14.5322 24.0703 12.7511 24.0703Z" fill="#143664"/>
    <path fill-rule="evenodd" clip-rule="evenodd" d="M29.5721 2.91859C27.4489 0.795367 24.0394 0.795367 21.9161 2.91859C19.7929 5.04179 19.7929 8.45137 21.9161 10.5746C24.0394 12.6978 27.4489 12.6978 29.5721 10.5746C31.6953 8.45137 31.6953 5.04179 29.5721 2.91859ZM28.041 4.44979C28.4638 4.87261 28.4638 5.55816 28.041 5.98099L27.2753 6.74659L28.041 7.51219C28.4638 7.93502 28.4638 8.62057 28.041 9.04339C27.6181 9.46622 26.9326 9.46622 26.5097 9.04339L25.7441 8.27779L24.9785 9.04339C24.5557 9.46622 23.8702 9.46622 23.4473 9.04339C23.0245 8.62056 23.0245 7.93502 23.4473 7.51219L24.2129 6.74659L23.4473 5.98099C23.0245 5.55816 23.0245 4.87261 23.4473 4.44979C23.8702 4.02696 24.5557 4.02695 24.9785 4.44979L25.7441 5.21539L26.5097 4.44979C26.9326 4.02696 27.6181 4.02695 28.041 4.44979Z" fill="#143664"/>
</svg>
