<svg width="11" height="12" viewBox="0 0 11 12" fill="none" xmlns="http://www.w3.org/2000/svg">
    <path d="M5.55029 10.5723C5.55045 10.3995 5.62006 10.2338 5.74383 10.1117L9.11846 6.77773C9.22061 6.67685 9.30163 6.55707 9.35691 6.42525C9.4122 6.29342 9.44065 6.15213 9.44065 6.00943C9.44065 5.86674 9.4122 5.72545 9.35691 5.59362C9.30163 5.46179 9.22061 5.34202 9.11846 5.24113L5.74823 1.90937C5.62804 1.78643 5.56154 1.62177 5.56304 1.45086C5.56455 1.27995 5.63394 1.11646 5.75627 0.995607C5.8786 0.874751 6.04408 0.806197 6.21708 0.804712C6.39008 0.803227 6.55674 0.868929 6.68118 0.987666L10.0514 4.31682C10.5046 4.7654 10.7591 5.37328 10.7591 6.00704C10.7591 6.64081 10.5046 7.24868 10.0514 7.69726L6.67678 11.0312C6.58464 11.1223 6.46725 11.1844 6.33943 11.2096C6.21161 11.2349 6.07908 11.2221 5.95857 11.173C5.83806 11.124 5.73497 11.0407 5.66231 10.9338C5.58965 10.8269 5.55067 10.7011 5.55029 10.5723Z" fill="white"/>
    <path d="M0.341309 10.5723C0.341463 10.3995 0.411078 10.2338 0.534848 10.1117L3.90948 6.77773C4.01162 6.67685 4.09265 6.55707 4.14793 6.42525C4.20321 6.29342 4.23166 6.15213 4.23166 6.00943C4.23166 5.86674 4.20321 5.72545 4.14793 5.59362C4.09265 5.46179 4.01162 5.34202 3.90948 5.24113L0.539247 1.90937C0.41906 1.78643 0.352556 1.62177 0.35406 1.45086C0.355563 1.27995 0.424953 1.11646 0.547284 0.995607C0.669616 0.874751 0.8351 0.806197 1.0081 0.804712C1.18109 0.803227 1.34776 0.868929 1.4722 0.987666L4.84243 4.31682C5.29559 4.7654 5.5501 5.37328 5.5501 6.00704C5.5501 6.64081 5.29559 7.24868 4.84243 7.69726L1.4678 11.0312C1.37566 11.1223 1.25827 11.1844 1.13044 11.2096C1.00262 11.2349 0.870094 11.2221 0.749584 11.173C0.629075 11.124 0.525985 11.0407 0.453323 10.9338C0.380661 10.8269 0.341683 10.7011 0.341309 10.5723Z" fill="white"/>
</svg>
