<svg width="30" height="31" viewBox="0 0 30 31" fill="none" xmlns="http://www.w3.org/2000/svg">
    <path d="M23.7559 5.67554H22.3804C22.0902 4.26432 21.3224 2.9963 20.2063 2.08521C19.0902 1.17411 17.6941 0.675647 16.2534 0.673828L13.7525 0.673828C12.3118 0.675647 10.9157 1.17411 9.79959 2.08521C8.6835 2.9963 7.91563 4.26432 7.62541 5.67554H6.24994C4.59238 5.67752 3.00328 6.33687 1.8312 7.50894C0.659131 8.68101 -0.000211765 10.2701 -0.00219727 11.9277L-0.00219727 15.679H30.0081V11.9277C30.0061 10.2701 29.3467 8.68101 28.1747 7.50894C27.0026 6.33687 25.4135 5.67752 23.7559 5.67554ZM10.2313 5.67554C10.489 4.94665 10.9656 4.31519 11.5959 3.86753C12.2262 3.41987 12.9794 3.17789 13.7525 3.17468H16.2534C17.0264 3.17789 17.7797 3.41987 18.41 3.86753C19.0403 4.31519 19.5169 4.94665 19.7746 5.67554H10.2313Z" fill="#143664"/>
    <path d="M16.2534 19.4301C16.2534 19.7617 16.1216 20.0798 15.8871 20.3143C15.6526 20.5488 15.3346 20.6805 15.0029 20.6805C14.6713 20.6805 14.3532 20.5488 14.1187 20.3143C13.8842 20.0798 13.7525 19.7617 13.7525 19.4301V18.1797H-0.00219727V24.4318C-0.000211765 26.0894 0.659131 27.6785 1.8312 28.8506C3.00328 30.0226 4.59238 30.682 6.24994 30.684H23.7559C25.4135 30.682 27.0026 30.0226 28.1747 28.8506C29.3467 27.6785 30.0061 26.0894 30.0081 24.4318V18.1797H16.2534V19.4301Z" fill="#143664"/>
</svg>
