<svg width="33" height="33" viewBox="0 0 33 33" fill="none" xmlns="http://www.w3.org/2000/svg">
    <g clip-path="url(#clip0_1194_112)">
        <path d="M6.5625 11.7832C4.49431 11.7832 2.8125 10.1014 2.8125 8.0332C2.8125 5.96502 4.49431 4.2832 6.5625 4.2832C8.63069 4.2832 10.3125 5.96502 10.3125 8.0332C10.3125 10.1014 8.63069 11.7832 6.5625 11.7832Z" fill="#143664"/>
        <path d="M27.3125 11.7832C25.2443 11.7832 23.5625 10.1014 23.5625 8.0332C23.5625 5.96502 25.2443 4.2832 27.3125 4.2832C29.3807 4.2832 31.0625 5.96502 31.0625 8.0332C31.0625 10.1014 29.3807 11.7832 27.3125 11.7832Z" fill="#143664"/>
        <path d="M16.9375 9.7832C14.3529 9.7832 12.25 7.68027 12.25 5.0957C12.25 2.51114 14.3529 0.408203 16.9375 0.408203C19.5221 0.408203 21.625 2.51114 21.625 5.0957C21.625 7.68027 19.5221 9.7832 16.9375 9.7832Z" fill="#143664"/>
        <path d="M17.875 9.87891V16.3467C17.875 16.8648 17.4557 17.2842 16.9375 17.2842C16.4193 17.2842 16 16.8648 16 16.3467V9.87891C12.8281 10.3387 10.375 13.0495 10.375 16.3467V21.9717C10.375 22.4898 10.7943 22.9092 11.3125 22.9092H13.4128L14.1287 31.5504C14.1689 32.0356 14.5754 32.4092 15.0625 32.4092H18.8125C19.2996 32.4092 19.7061 32.0356 19.7463 31.5504L20.4622 22.9092H22.5625C23.0807 22.9092 23.5 22.4898 23.5 21.9717V16.3467C23.5 13.0495 21.0469 10.3387 17.875 9.87891Z" fill="#143664"/>
        <path d="M8.4375 22.0957V16.4707C8.4375 15.0655 8.81563 13.7596 9.42569 12.5931C8.58388 12.0906 7.61212 11.7832 6.5625 11.7832C3.46069 11.7832 0.9375 14.3064 0.9375 17.4082V22.0957C0.9375 22.6139 1.35681 23.0332 1.875 23.0332H2.90131L3.75456 31.5641C3.80219 32.0429 4.20594 32.4082 4.6875 32.4082H8.4375C8.91906 32.4082 9.32281 32.0429 9.37044 31.5641L10.0634 24.6364C9.10619 24.1872 8.4375 23.2211 8.4375 22.0957Z" fill="#143664"/>
        <path d="M32.9374 17.4082C32.9374 14.3064 30.4142 11.7832 27.3124 11.7832C26.2628 11.7832 25.291 12.0906 24.4492 12.5931C25.0593 13.7596 25.4374 15.0655 25.4374 16.4707V22.0957C25.4374 23.2211 24.7687 24.1872 23.8115 24.6364L24.5045 31.5641C24.5521 32.0429 24.9558 32.4082 25.4374 32.4082H29.1874C29.669 32.4082 30.0727 32.0429 30.1203 31.5641L30.9736 23.0332H31.9999C32.5181 23.0332 32.9374 22.6139 32.9374 22.0957V17.4082Z" fill="#143664"/>
    </g>
    <defs>
        <clipPath id="clip0_1194_112">
            <rect width="32" height="32" fill="white" transform="translate(0.9375 0.408203)"/>
        </clipPath>
    </defs>
</svg>
