<svg width="34" height="31" viewBox="0 0 34 31" fill="none" xmlns="http://www.w3.org/2000/svg">
    <path d="M16.5331 21.3605L14.8686 22.3214C14.7529 22.3881 14.6515 22.4769 14.5701 22.5828C14.4887 22.6887 14.429 22.8097 14.3944 22.9386C14.3598 23.0676 14.351 23.2022 14.3684 23.3346C14.3858 23.467 14.4292 23.5947 14.496 23.7103L16.4806 27.1475C16.6153 27.381 16.8372 27.5515 17.0975 27.6213C17.3578 27.6912 17.6352 27.6548 17.8687 27.5202L19.556 26.5459C19.7118 26.4598 19.8876 26.4165 20.0655 26.4205C20.2435 26.4244 20.4172 26.4755 20.5689 26.5684L20.5794 26.5744C20.735 26.6595 20.8652 26.7842 20.957 26.9359C21.0487 27.0876 21.0987 27.2609 21.1018 27.4382V29.5736C21.1018 29.8431 21.2089 30.1016 21.3995 30.2922C21.59 30.4828 21.8485 30.5898 22.1181 30.5898H26.1832C26.3166 30.5898 26.4488 30.5636 26.5721 30.5125C26.6954 30.4614 26.8074 30.3866 26.9018 30.2922C26.9962 30.1978 27.071 30.0858 27.1221 29.9625C27.1732 29.8392 27.1995 29.707 27.1995 29.5736V27.4372C27.2026 27.2599 27.2526 27.0866 27.3444 26.9349C27.4361 26.7832 27.5664 26.6584 27.722 26.5734L27.7323 26.5674C27.8841 26.4745 28.0578 26.4234 28.2357 26.4195C28.4137 26.4155 28.5895 26.4588 28.7452 26.5449L30.4326 27.5192C30.5482 27.586 30.6759 27.6293 30.8083 27.6468C30.9407 27.6642 31.0753 27.6553 31.2043 27.6207C31.3332 27.5861 31.4542 27.5264 31.5601 27.4451C31.666 27.3637 31.7548 27.2623 31.8215 27.1465L33.8068 23.7097C33.8736 23.594 33.9169 23.4663 33.9344 23.3339C33.9518 23.2015 33.9429 23.067 33.9083 22.938C33.8737 22.809 33.814 22.6881 33.7327 22.5822C33.6513 22.4763 33.5499 22.3874 33.4341 22.3207L31.7874 21.37C31.6232 21.2752 31.4868 21.1388 31.392 20.9745C31.2972 20.8102 31.2473 20.6239 31.2474 20.4342V20.4186C31.2473 20.2289 31.2972 20.0425 31.392 19.8782C31.4868 19.7139 31.6232 19.5775 31.7874 19.4826L33.4341 18.5319C33.5499 18.4652 33.6513 18.3764 33.7327 18.2705C33.814 18.1646 33.8737 18.0437 33.9083 17.9147C33.9429 17.7857 33.9518 17.6511 33.9344 17.5187C33.9169 17.3863 33.8736 17.2586 33.8068 17.143L31.8223 13.7058C31.7556 13.5901 31.6668 13.4886 31.5609 13.4072C31.455 13.3259 31.3341 13.2662 31.2051 13.2316C31.0761 13.197 30.9416 13.1881 30.8092 13.2056C30.6767 13.223 30.5491 13.2663 30.4334 13.3331L28.7461 14.3074C28.5903 14.3935 28.4145 14.4368 28.2366 14.4328C28.0586 14.4289 27.8849 14.3778 27.7332 14.2849L27.7228 14.2788C27.5672 14.1937 27.4369 14.069 27.3452 13.9173C27.2534 13.7656 27.2034 13.5922 27.2003 13.4149V11.2806C27.2003 11.0111 27.0932 10.7526 26.9026 10.562C26.7121 10.3714 26.4536 10.2643 26.184 10.2643H22.1189C21.8494 10.2643 21.5909 10.3714 21.4003 10.562C21.2097 10.7526 21.1026 11.0111 21.1026 11.2806V13.417C21.0996 13.5943 21.0496 13.7676 20.9579 13.9193C20.8661 14.071 20.7358 14.1957 20.5803 14.2808L20.5698 14.2869C20.418 14.3799 20.2443 14.4309 20.0664 14.4349C19.8884 14.4388 19.7126 14.3955 19.5569 14.3094L17.8695 13.3352C17.636 13.2005 17.3586 13.1641 17.0983 13.234C16.838 13.3039 16.6161 13.4743 16.4815 13.7078L14.4975 17.1445C14.4307 17.2602 14.3874 17.3878 14.3699 17.5202C14.3525 17.6527 14.3614 17.7872 14.396 17.9162C14.4306 18.0452 14.4903 18.1661 14.5716 18.272C14.653 18.3779 14.7544 18.4667 14.8702 18.5334L16.5347 19.4945C16.6933 19.5905 16.8237 19.727 16.9125 19.8898C17.0012 20.0527 17.0452 20.2362 17.0399 20.4217V20.4342C17.0449 20.6196 17.0006 20.8031 16.9116 20.9658C16.8226 21.1285 16.692 21.2647 16.5331 21.3605ZM24.1521 17.3783C24.7551 17.3783 25.3446 17.5571 25.846 17.8921C26.3474 18.2271 26.7381 18.7032 26.9689 19.2603C27.1997 19.8174 27.26 20.4305 27.1424 21.0219C27.0248 21.6133 26.7344 22.1565 26.308 22.5829C25.8816 23.0093 25.3384 23.2997 24.7469 23.4173C24.1555 23.535 23.5425 23.4746 22.9854 23.2438C22.4283 23.0131 21.9522 22.6223 21.6171 22.1209C21.2821 21.6195 21.1033 21.0301 21.1033 20.4271C21.1033 19.6185 21.4245 18.843 21.9963 18.2712C22.5681 17.6995 23.3435 17.3783 24.1521 17.3783ZM3.45399 10.2643H15.4166C15.6726 10.1386 15.9401 10.0378 16.2154 9.96334C16.7813 9.80939 17.3725 9.77057 17.9537 9.84917C18.253 8.98218 18.815 8.23 19.5617 7.69727C20.3083 7.16454 21.2024 6.87773 22.1196 6.87674H26.1847C27.1018 6.8779 27.9957 7.16479 28.7421 7.69752C29.4886 8.23024 30.0505 8.98231 30.3497 9.84917C30.8921 9.77822 31.4431 9.81029 31.9736 9.94369C32.5604 9.67392 33.0577 9.24171 33.4066 8.69819C33.7554 8.15468 33.9414 7.5226 33.9423 6.87674V3.48915C33.9423 2.59071 33.5854 1.72906 32.9501 1.09376C32.3148 0.458468 31.4531 0.101563 30.5547 0.101562H3.45399C2.55555 0.101563 1.6939 0.458468 1.05861 1.09376C0.423312 1.72906 0.0664063 2.59071 0.0664062 3.48915V6.87674C0.0664063 7.77518 0.423312 8.63683 1.05861 9.27212C1.6939 9.90742 2.55555 10.2643 3.45399 10.2643ZM16.1574 4.33605C16.3249 4.33605 16.4887 4.38572 16.628 4.47877C16.7672 4.57183 16.8758 4.7041 16.9399 4.85885C17.004 5.0136 17.0207 5.18388 16.9881 5.34816C16.9554 5.51245 16.8747 5.66335 16.7563 5.78179C16.6378 5.90023 16.4869 5.98089 16.3227 6.01357C16.1584 6.04624 15.9881 6.02947 15.8334 5.96537C15.6786 5.90127 15.5463 5.79273 15.4533 5.65345C15.3602 5.51418 15.3105 5.35044 15.3105 5.18294C15.3105 4.95833 15.3998 4.74292 15.5586 4.5841C15.7174 4.42527 15.9328 4.33605 16.1574 4.33605ZM11.0761 4.33605C11.2436 4.33605 11.4073 4.38572 11.5466 4.47877C11.6858 4.57183 11.7944 4.7041 11.8585 4.85885C11.9226 5.0136 11.9394 5.18388 11.9067 5.34816C11.874 5.51245 11.7934 5.66335 11.6749 5.78179C11.5565 5.90023 11.4056 5.98089 11.2413 6.01357C11.077 6.04624 10.9067 6.02947 10.752 5.96537C10.5972 5.90127 10.465 5.79273 10.3719 5.65345C10.2788 5.51418 10.2292 5.35044 10.2292 5.18294C10.2292 4.95833 10.3184 4.74292 10.4772 4.5841C10.636 4.42527 10.8515 4.33605 11.0761 4.33605ZM5.99468 4.33605C6.16218 4.33605 6.32592 4.38572 6.46519 4.47877C6.60447 4.57183 6.71301 4.7041 6.77711 4.85885C6.84121 5.0136 6.85799 5.18388 6.82531 5.34816C6.79263 5.51245 6.71197 5.66335 6.59353 5.78179C6.47509 5.90023 6.32419 5.98089 6.1599 6.01357C5.99562 6.04624 5.82534 6.02947 5.67059 5.96537C5.51584 5.90127 5.38357 5.79273 5.29051 5.65345C5.19746 5.51418 5.14779 5.35044 5.14779 5.18294C5.14779 4.95833 5.23701 4.74292 5.39584 4.5841C5.55466 4.42527 5.77007 4.33605 5.99468 4.33605ZM3.45399 27.2023H12.6005L11.5617 25.4034C11.1312 24.6599 10.929 23.8061 10.9804 22.9485C10.7753 22.9271 10.5852 22.8309 10.4466 22.6782C10.308 22.5255 10.2306 22.3271 10.2292 22.1209C10.2288 21.9815 10.2629 21.8443 10.3284 21.7213C10.3939 21.5983 10.4888 21.4935 10.6047 21.4161C10.7206 21.3388 10.8538 21.2913 10.9925 21.2779C11.1312 21.2645 11.271 21.2856 11.3996 21.3394C11.5462 21.0135 11.7326 20.7071 11.9545 20.4271C11.5742 19.9569 11.2947 19.4136 11.1333 18.8308C10.9719 18.248 10.9321 17.6383 11.0164 17.0395H3.45399C2.55555 17.0395 1.6939 17.3964 1.05861 18.0317C0.423312 18.667 0.0664063 19.5286 0.0664062 20.4271V23.8147C0.0664063 24.7131 0.423312 25.5748 1.05861 26.2101C1.6939 26.8454 2.55555 27.2023 3.45399 27.2023ZM5.99468 21.274C6.16218 21.274 6.32592 21.3236 6.46519 21.4167C6.60447 21.5098 6.71301 21.642 6.77711 21.7968C6.84121 21.9515 6.85799 22.1218 6.82531 22.2861C6.79263 22.4504 6.71197 22.6013 6.59353 22.7197C6.47509 22.8382 6.32419 22.9188 6.1599 22.9515C5.99562 22.9842 5.82534 22.9674 5.67059 22.9033C5.51584 22.8392 5.38357 22.7307 5.29051 22.5914C5.19746 22.4521 5.14779 22.2884 5.14779 22.1209C5.14779 21.8963 5.23701 21.6809 5.39584 21.522C5.55466 21.3632 5.77007 21.274 5.99468 21.274Z" fill="#143664"/>
</svg>
