
<svg width="36" height="36" viewBox="0 0 36 36" fill="none" xmlns="http://www.w3.org/2000/svg">
    <path d="M17.0491 20.4556C15.3569 21.8758 14.1898 23.8223 13.7342 25.984C13.1088 25.9483 12.5033 25.7518 11.9761 25.4135C11.449 25.0752 11.0181 24.6066 10.725 24.053C10.432 23.4994 10.2868 22.8796 10.3035 22.2534C10.3202 21.6273 10.4983 21.016 10.8204 20.4788C11.1425 19.9416 11.5978 19.4967 12.1422 19.187C12.6866 18.8773 13.3018 18.7133 13.9282 18.711C14.5545 18.7086 15.1709 18.868 15.7176 19.1736C16.2644 19.4792 16.723 19.9208 17.0491 20.4556Z" fill="#143664"/>
    <path d="M23.9296 13.3783L22.9155 12.3642C22.6063 12.0559 22.2059 11.8554 21.7738 11.7926C21.3417 11.7297 20.9008 11.8078 20.5166 12.0153L18.7501 12.953C18.244 12.6986 17.719 12.4835 17.1799 12.3097L16.6129 10.4123C16.489 9.99065 16.2319 9.62042 15.88 9.35703C15.5282 9.09364 15.1005 8.95125 14.661 8.95117H13.2217C12.785 8.95133 12.3601 9.09261 12.0103 9.35397C11.6605 9.61533 11.4046 9.98274 11.2807 10.4014L10.7028 12.3097C10.1636 12.4835 9.63867 12.6986 9.13257 12.953L7.37699 12.0153C6.99286 11.8074 6.55188 11.729 6.11965 11.7919C5.68742 11.8548 5.28704 12.0555 4.97806 12.3642L3.95306 13.3783C3.64958 13.6927 3.4526 14.0945 3.38999 14.5269C3.32737 14.9594 3.40228 15.4006 3.60413 15.7881L4.55279 17.5437C4.2902 18.0474 4.07132 18.5728 3.89854 19.1139L2.0012 19.6809C1.57952 19.8048 1.20928 20.0619 0.945893 20.4138C0.682503 20.7656 0.540117 21.1933 0.540039 21.6328V23.0721C0.540718 23.5087 0.682208 23.9333 0.943486 24.283C1.20476 24.6327 1.57189 24.8887 1.9903 25.0131L3.89854 25.591C4.07132 26.1322 4.2902 26.6575 4.55279 27.1612L3.61503 28.9168C3.40272 29.3017 3.32192 29.7453 3.3849 30.1803C3.44789 30.6153 3.65122 31.0178 3.96396 31.3266L4.97806 32.3407C5.28728 32.649 5.68764 32.8495 6.11975 32.9124C6.55187 32.9752 6.99274 32.8971 7.37699 32.6897L9.13257 31.7519C9.63867 32.0064 10.1636 32.2215 10.7028 32.3953L11.2807 34.2926C11.4022 34.7136 11.6571 35.0837 12.0072 35.3472C12.3573 35.6108 12.7835 35.7534 13.2217 35.7538H14.661C14.9807 35.7518 15.2957 35.6759 15.5813 35.5322C15.8669 35.3884 16.1155 35.1807 16.3075 34.925C14.5444 33.1085 13.5453 30.6848 13.5161 28.1535C12.5251 28.0798 11.5696 27.7537 10.7404 27.2061C9.91121 26.6586 9.23604 25.9078 8.77919 25.0254C8.32234 24.143 8.09903 23.1583 8.13053 22.1651C8.16203 21.172 8.44729 20.2034 8.95914 19.3517C9.47099 18.5 10.1924 17.7936 11.0546 17.2996C11.9168 16.8057 12.8911 16.5408 13.8847 16.53C14.8783 16.5193 15.8581 16.7632 16.7308 17.2384C17.6035 17.7136 18.3399 18.4043 18.87 19.2448C20.2737 18.5123 21.8338 18.1306 23.4171 18.1325H23.6134C23.537 17.9363 23.4389 17.74 23.3408 17.5437L24.2785 15.7881C24.486 15.402 24.5641 14.9595 24.5013 14.5257C24.4385 14.0919 24.2381 13.6897 23.9296 13.3783Z" fill="#143664"/>
    <path d="M23.4172 20.3145C21.8903 20.3145 20.3977 20.7672 19.1281 21.6155C17.8585 22.4638 16.869 23.6696 16.2847 25.0803C15.7004 26.4909 15.5475 28.0432 15.8454 29.5408C16.1433 31.0383 16.8785 32.414 17.9582 33.4936C19.0379 34.5733 20.4135 35.3086 21.9111 35.6065C23.4086 35.9044 24.9609 35.7515 26.3716 35.1672C27.7823 34.5828 28.988 33.5933 29.8363 32.3238C30.6846 31.0542 31.1374 29.5616 31.1374 28.0346C31.1355 25.9877 30.3215 24.0252 28.8741 22.5777C27.4267 21.1303 25.4642 20.3164 23.4172 20.3145ZM25.5217 30.1501C25.3172 30.3527 25.0409 30.4663 24.753 30.4663C24.4651 30.4663 24.1888 30.3527 23.9842 30.1501L22.643 28.8088C22.5415 28.7073 22.4612 28.5865 22.4069 28.4536C22.3526 28.3207 22.3254 28.1782 22.3268 28.0346V25.1995C22.3268 24.9103 22.4417 24.633 22.6462 24.4285C22.8507 24.224 23.128 24.1091 23.4172 24.1091C23.7064 24.1091 23.9838 24.224 24.1883 24.4285C24.3928 24.633 24.5076 24.9103 24.5076 25.1995V27.5876L25.5217 28.6017C25.726 28.8075 25.8407 29.0858 25.8407 29.3759C25.8407 29.6659 25.726 29.9442 25.5217 30.1501Z" fill="#143664"/>
    <path d="M35.1403 6.62654L29.6902 1.25218C29.486 1.05055 29.2106 0.9375 28.9236 0.9375C28.6366 0.9375 28.3611 1.05055 28.1569 1.25218L22.7069 6.62654C22.5526 6.77831 22.4469 6.97256 22.4034 7.18456C22.3599 7.39656 22.3804 7.61672 22.4624 7.81701C22.5444 8.0173 22.6841 8.18866 22.8638 8.30928C23.0435 8.4299 23.255 8.49431 23.4715 8.49433H25.6523V11.7656C25.653 12.3438 25.8829 12.8981 26.2918 13.307C26.7006 13.7158 27.255 13.9458 27.8331 13.9464H30.014C30.5922 13.9458 31.1465 13.7158 31.5553 13.307C31.9642 12.8981 32.1942 12.3438 32.1948 11.7656V8.49433H34.3757C34.5921 8.49431 34.8036 8.4299 34.9833 8.30928C35.163 8.18866 35.3028 8.0173 35.3847 7.81701C35.4667 7.61672 35.4873 7.39656 35.4437 7.18456C35.4002 6.97256 35.2946 6.77831 35.1403 6.62654Z" fill="#143664"/>
</svg>
