<svg width="30" height="31" viewBox="0 0 30 31" fill="none" xmlns="http://www.w3.org/2000/svg">
    <path d="M15.2377 20.0997L10.3217 15.1839C9.7723 14.6364 8.83382 15.0245 8.83382 15.8002C8.83382 16.6744 8.11454 17.386 7.2301 17.386C7.00638 17.386 6.71432 17.5409 6.61385 17.6414L0.826731 23.2901C-0.193854 24.3124 -0.193854 25.9757 0.827603 26.998L3.28595 29.4572C4.31002 30.4778 5.97068 30.4778 6.99388 29.4563L12.7802 23.8076C12.8769 23.7109 13.0356 23.4168 13.0356 23.1914C13.0356 22.3069 13.7472 21.5876 14.6214 21.5876C15.3978 21.5876 15.7844 20.6464 15.2377 20.0997Z" fill="#143664"/>
    <path d="M17.713 17.6413L12.7802 12.7085C12.4397 12.368 11.886 12.3674 11.5451 12.7102L10.9318 13.3276L17.0932 19.4901L17.7113 18.8764C18.0592 18.5303 18.048 17.9745 17.713 17.6413Z" fill="#143664"/>
    <path d="M29.5584 1.95932L28.3259 0.726753C28.096 0.496928 27.7615 0.413482 27.4516 0.510526L21.6616 2.30322C21.3935 2.38579 21.1815 2.59348 21.093 2.85991L19.7745 6.81296L14.6305 12.094L18.3282 15.7917L23.4722 10.5107L27.4253 9.19216C27.6917 9.10365 27.8994 8.89167 27.982 8.62355L29.7746 2.83353C29.8708 2.52456 29.7874 2.18828 29.5584 1.95932Z" fill="#143664"/>
    <path d="M29.8134 24.9167C29.7683 21.7678 26.9681 19.4978 24.2251 19.7796L20.57 16.0059L19.4522 17.1237C19.9506 18.1634 19.7042 19.3519 18.9406 20.1115L16.8871 22.1509L19.3646 24.7797C19.2601 26.0575 19.7825 27.6142 20.9394 28.7396C21.9234 29.6972 23.2147 30.2215 24.5818 30.2215C24.6073 30.2215 24.6329 30.2207 24.6584 30.2207C27.5414 30.1798 29.8542 27.8006 29.8134 24.9167ZM24.4498 26.8703C23.4888 26.8703 22.7065 26.088 22.7065 25.127C22.7065 24.166 23.4888 23.3837 24.4498 23.3837C25.4108 23.3837 26.1931 24.166 26.1931 25.127C26.1931 26.088 25.4108 26.8703 24.4498 26.8703Z" fill="#143664"/>
    <path d="M13.7855 9.14316C13.8706 8.80351 13.9311 8.45705 13.9643 8.10723C14.1686 5.9843 13.4118 3.9175 11.889 2.43727C9.96949 0.570602 7.10514 -0.0286862 4.59659 0.905083C3.99207 1.13107 3.83883 1.9076 4.29273 2.34702L7.90874 5.86169L7.52736 7.92163L5.47846 8.36257L1.86333 4.84709C1.4128 4.40731 0.639646 4.57711 0.430741 5.19098C-0.433239 7.7276 0.248566 10.5716 2.16724 12.4366C3.56781 13.799 5.47242 14.474 7.37349 14.3831C7.49668 14.1336 7.64608 13.8949 7.84743 13.6913L10.3083 11.2142C11.0781 10.4412 12.2781 10.2084 13.2987 10.7L14.3281 9.67062L13.7855 9.14316Z" fill="#143664"/>
</svg>
