<svg width="17" height="21" viewBox="0 0 17 21" fill="none" xmlns="http://www.w3.org/2000/svg">
<path d="M0.756991 4.3587H15.2614C15.6795 4.3587 16.0184 4.01979 16.0184 3.60171C16.0184 3.18364 15.6795 2.84472 15.2614 2.84472H12.5119V2.81058V2.06338C12.5119 0.925635 11.5863 0 10.4486 0H5.56985C4.43211 0 3.50647 0.925635 3.50647 2.06338V2.81058V2.84472H0.756991C0.338914 2.84472 0 3.18364 0 3.60171C0 4.01979 0.338914 4.3587 0.756991 4.3587ZM5.02042 2.06338C5.02042 1.75995 5.26639 1.51398 5.56982 1.51398H10.4486C10.752 1.51398 10.998 1.75995 10.998 2.06338V2.81058H5.02042V2.06338Z" fill="white"/>
<path d="M13.5647 5.17676H2.45274C1.87715 5.17676 1.32354 5.41976 0.933917 5.84345C0.544289 6.26711 0.348468 6.8391 0.396566 7.41267L1.35927 18.8892C1.40264 19.4062 1.63684 19.8844 2.01872 20.2356C2.40058 20.5868 2.89665 20.7802 3.41541 20.7802H12.602C13.1208 20.7802 13.6168 20.5867 13.9987 20.2356C14.3806 19.8844 14.6148 19.4062 14.6582 18.8892L15.6208 7.41264C15.6689 6.8391 15.4731 6.26711 15.0835 5.84345C14.6939 5.41976 14.1403 5.17676 13.5647 5.17676ZM14.1122 7.28608L13.1495 18.7627C13.1256 19.0474 12.8877 19.2662 12.602 19.2662H3.41545C3.12979 19.2662 2.89181 19.0474 2.86795 18.7627L1.90525 7.28608C1.87835 6.96565 2.13118 6.69074 2.45274 6.69074H13.5647C13.8863 6.69074 14.1391 6.96565 14.1122 7.28608Z" fill="white"/>
<path d="M5.33607 9.60309C5.3085 9.1859 4.94768 8.87017 4.53084 8.89766C4.11365 8.92523 3.79781 9.28577 3.82541 9.70293L4.26497 16.3539C4.29141 16.7541 4.62424 17.061 5.01956 17.061C5.03635 17.061 5.05324 17.0604 5.07024 17.0593C5.4874 17.0318 5.80323 16.6713 5.77567 16.2541L5.33607 9.60309Z" fill="white"/>
<path d="M5.01942 17.0788C4.61322 17.0788 4.27402 16.7609 4.2472 16.3552L3.80763 9.70418C3.79399 9.49769 3.86156 9.2983 3.99791 9.14263C4.13425 8.98695 4.32307 8.89376 4.52953 8.88008C4.95853 8.85216 5.32561 9.17913 5.35356 9.60198L5.79313 16.253C5.82129 16.6792 5.49747 17.0489 5.07123 17.077C5.05388 17.0782 5.0366 17.0788 5.01942 17.0788ZM4.58123 8.91373C4.56487 8.91373 4.54844 8.91429 4.5319 8.91535C4.33484 8.92839 4.15468 9.01734 4.02452 9.16588C3.89439 9.31445 3.8299 9.50476 3.84294 9.70182L4.2825 16.3528C4.30915 16.7565 4.66033 17.0683 5.06897 17.0418C5.47573 17.0149 5.78479 16.6621 5.75793 16.2553L5.31836 9.60431C5.29278 9.21709 4.96899 8.91373 4.58123 8.91373Z" fill="white"/>
<path d="M8.00894 8.896C7.59087 8.896 7.25195 9.23491 7.25195 9.65299V16.304C7.25195 16.722 7.59087 17.061 8.00894 17.061C8.42706 17.061 8.76593 16.722 8.76593 16.304V9.65299C8.76597 9.23491 8.42706 8.896 8.00894 8.896Z" fill="white"/>
<path d="M8.00879 17.0787C7.58163 17.0787 7.23413 16.7312 7.23413 16.3041V9.65308C7.23413 9.22592 7.58163 8.87842 8.00879 8.87842C8.43595 8.87842 8.78345 9.22592 8.78345 9.65308V16.3041C8.78349 16.7312 8.43599 17.0787 8.00879 17.0787ZM8.00879 8.91376C7.60114 8.91376 7.26947 9.24543 7.26947 9.65308V16.3041C7.26947 16.7117 7.60114 17.0434 8.00879 17.0434C8.41648 17.0434 8.74811 16.7117 8.74811 16.3041V9.65308C8.74815 9.24539 8.41648 8.91376 8.00879 8.91376Z" fill="white"/>
<path d="M11.4872 8.89766C11.0703 8.87017 10.7095 9.1859 10.682 9.60309L10.2424 16.2541C10.2149 16.6713 10.5306 17.0318 10.9478 17.0594C10.9649 17.0605 10.9817 17.061 10.9985 17.061C11.3938 17.061 11.7267 16.7541 11.7532 16.354L12.1927 9.70296C12.2202 9.28577 11.9044 8.92523 11.4872 8.89766Z" fill="white"/>
<path d="M10.9983 17.0787C10.9812 17.0787 10.964 17.0782 10.9465 17.0771C10.5203 17.0489 10.1965 16.6792 10.2246 16.253L10.6642 9.602C10.6921 9.17915 11.0595 8.85201 11.4882 8.8801C11.6947 8.89374 11.8835 8.98697 12.0198 9.14261C12.1562 9.29825 12.2238 9.49767 12.2101 9.70417L11.7706 16.3552C11.7437 16.7609 11.4045 17.0787 10.9983 17.0787ZM11.4365 8.91371C11.0487 8.91371 10.725 9.21704 10.6994 9.6043L10.2599 16.2553C10.233 16.6621 10.5421 17.0149 10.9488 17.0418C11.359 17.0683 11.7086 16.7564 11.7353 16.3528L12.1748 9.70184C12.1879 9.50478 12.1234 9.31447 11.9932 9.1659C11.8631 9.01733 11.6829 8.92838 11.4859 8.91537C11.4693 8.91428 11.4529 8.91371 11.4365 8.91371Z" fill="white"/>
</svg>
