<svg width="35" height="31" viewBox="0 0 35 31" fill="none" xmlns="http://www.w3.org/2000/svg">
    <path d="M30.5929 6.03327C30.434 5.66237 30.0692 5.42188 29.6657 5.42188H24.958C24.4009 5.42188 23.9492 5.87354 23.9492 6.43066V14.8372H34.366L30.5929 6.03327Z" fill="#143664"/>
    <path d="M27.9844 22.2344C25.7594 22.2344 23.9492 24.0445 23.9492 26.2695C23.9492 28.4945 25.7594 30.3047 27.9844 30.3047C30.2094 30.3047 32.0195 28.4945 32.0195 26.2695C32.0195 24.0445 30.2094 22.2344 27.9844 22.2344ZM27.9844 27.2783C27.4273 27.2783 26.9756 26.8267 26.9756 26.2695C26.9756 25.7124 27.4273 25.2607 27.9844 25.2607C28.5415 25.2607 28.9932 25.7124 28.9932 26.2695C28.9932 26.8267 28.5415 27.2783 27.9844 27.2783Z" fill="#143664"/>
    <path d="M7.00171 22.2344C4.77672 22.2344 2.96655 24.0445 2.96655 26.2695C2.96655 28.4945 4.77672 30.3047 7.00171 30.3047C9.22669 30.3047 11.0369 28.4945 11.0369 26.2695C11.0369 24.0445 9.22669 22.2344 7.00171 22.2344ZM7.00171 27.2783C6.44459 27.2783 5.99292 26.8267 5.99292 26.2695C5.99292 25.7124 6.44459 25.2607 7.00171 25.2607C7.55883 25.2607 8.0105 25.7124 8.0105 26.2695C8.0105 26.8267 7.55883 27.2783 7.00171 27.2783Z" fill="#143664"/>
    <path d="M32.6248 20.2142C32.0515 20.2142 31.5899 19.736 31.6172 19.1566C31.6427 18.6141 32.1101 18.1966 32.6533 18.1966H34.7096V16.8516H23.9492V21.7597C25.0209 20.7993 26.4355 20.2142 27.9844 20.2142C31.3219 20.2142 34.0371 22.9294 34.0371 26.2669C34.4085 26.2669 34.7096 25.9658 34.7096 25.5944V20.2142H32.6248Z" fill="#143664"/>
    <path d="M7.74116 15.3427C5.85943 14.1828 4.7148 12.1568 4.7148 9.91538C4.7148 7.45716 6.09146 5.25813 8.30743 4.17651C8.60704 4.0301 8.95958 4.04133 9.2495 4.20657C9.53923 4.37168 9.72861 4.66934 9.75545 5.0017L10.0167 8.23406H12.1909L12.4521 5.0017C12.479 4.66934 12.6684 4.37168 12.9581 4.20657C13.2478 4.04153 13.6005 4.03017 13.9002 4.17651C16.1161 5.25813 17.4928 7.45716 17.4928 9.91538C17.4928 12.1568 16.3482 14.1828 14.4664 15.3427V16.8522H21.9315V1.04785C21.9315 0.490731 21.4798 0.0390625 20.9227 0.0390625H1.28491C0.727792 0.0390625 0.276123 0.490731 0.276123 1.04785V16.8522H7.74116V15.3427Z" fill="#143664"/>
    <path d="M0.276123 18.8711V25.5964C0.276123 25.9678 0.577213 26.2689 0.948649 26.2689C0.948649 22.9314 3.66391 20.2161 7.00138 20.2161C10.3389 20.2161 13.0541 22.9314 13.0541 26.2689H21.9315V18.8711H0.276123Z" fill="#143664"/>
    <path d="M13.0152 13.8428C14.5326 13.102 15.4753 11.5978 15.4753 9.91695C15.4753 8.79188 15.053 7.7459 14.3186 6.95508L14.1269 9.32573C14.0845 9.84963 13.647 10.2532 13.1214 10.2532H9.08626C8.56068 10.2532 8.12314 9.84963 8.08077 9.32573L7.8891 6.95508C7.1547 7.74583 6.73242 8.79181 6.73242 9.91695C6.73242 11.5978 7.6751 13.102 9.19252 13.8428C9.53901 14.0119 9.75879 14.3637 9.75879 14.7493V16.8538H12.4489V14.7493C12.4489 14.3637 12.6687 14.0118 13.0152 13.8428Z" fill="#143664"/>
</svg>
