<svg width="33" height="30" viewBox="0 0 33 30" fill="none" xmlns="http://www.w3.org/2000/svg">
<path d="M32.2421 16.177L28.8803 5.4194C28.8284 5.25178 28.7128 5.11121 28.5584 5.02785C28.4039 4.9445 28.223 4.92501 28.0544 4.97357L23.3479 6.31827C23.2616 6.34285 23.1812 6.38446 23.1112 6.44064C23.0413 6.49682 22.9833 6.56644 22.9407 6.64538C22.8981 6.72432 22.8718 6.811 22.8632 6.90029C22.8547 6.98958 22.8641 7.07968 22.8909 7.16528L23.0836 7.78199L20.7806 8.93348L15.4911 7.3465C15.0084 7.19938 14.4881 7.2394 14.0337 7.45859C13.5792 7.67779 13.224 8.06007 13.0387 8.52935L10.8056 14.1107C10.7648 14.2128 10.7497 14.3232 10.7615 14.4325C10.7732 14.5418 10.8116 14.6465 10.8732 14.7374C10.9348 14.8284 11.0178 14.9029 11.1149 14.9545C11.212 15.006 11.3202 15.0329 11.43 15.0329C12.1264 15.0329 14.4606 14.9702 15.2672 14.1636C15.3183 14.1125 15.3609 14.0536 15.3932 13.9889L16.7379 11.2995C16.7777 11.2205 16.8014 11.1344 16.8079 11.0462C16.8143 10.958 16.8033 10.8694 16.7754 10.7855C16.7475 10.7015 16.7034 10.6239 16.6455 10.5571C16.5876 10.4902 16.517 10.4355 16.4379 10.3959C16.3588 10.3564 16.2727 10.3328 16.1845 10.3266C16.0963 10.3204 16.0077 10.3316 15.9238 10.3597C15.8399 10.3877 15.7624 10.4321 15.6957 10.4901C15.629 10.5482 15.5744 10.6189 15.5351 10.6981L14.2534 13.2617C13.6769 13.4969 13.0629 13.6265 12.4405 13.6445L14.2872 9.02868C14.3486 8.87201 14.467 8.74435 14.6186 8.67129C14.7702 8.59824 14.9438 8.58517 15.1047 8.63472L20.6499 10.2982C20.8139 10.3476 20.9906 10.3323 21.1437 10.2555L23.49 9.08241L26.2527 17.9229C26.3049 18.0904 26.4206 18.2308 26.5749 18.3141C26.7293 18.3974 26.9101 18.417 27.0787 18.3687L31.7852 17.024C31.8714 16.9995 31.9519 16.9578 32.0218 16.9017C32.0918 16.8455 32.1497 16.7759 32.1923 16.6969C32.2349 16.618 32.2613 16.5313 32.2698 16.442C32.2784 16.3527 32.2689 16.2626 32.2421 16.177ZM27.34 16.8957L24.3794 7.42201L27.793 6.44664L30.7536 15.9203L27.34 16.8957Z" fill="white"/>
<path d="M24.0117 13.9722L17.717 11.6193C17.5503 11.5583 17.3663 11.5657 17.2051 11.6398C17.0438 11.7139 16.9184 11.8488 16.8562 12.015C16.794 12.1812 16.8 12.3652 16.8729 12.527C16.9459 12.6888 17.0798 12.8152 17.2455 12.8786L23.5311 15.2279C23.6963 15.2936 23.8293 15.4212 23.9017 15.5836C23.974 15.746 23.9801 15.9302 23.9185 16.0969C23.8481 16.2661 23.7207 16.4053 23.5585 16.4905C23.3963 16.5757 23.2094 16.6015 23.0301 16.5635L19.0623 15.0756C18.8984 15.0142 18.7169 15.0191 18.5565 15.0893C18.3962 15.1596 18.2695 15.2896 18.2035 15.4518C18.1375 15.614 18.1373 15.7955 18.203 15.9578C18.2688 16.1201 18.3952 16.2503 18.5554 16.3208L22.1864 17.9173C22.2674 17.9389 22.3431 17.9772 22.4083 18.0297C22.4736 18.0823 22.5272 18.148 22.5655 18.2226C22.6038 18.2972 22.626 18.379 22.6307 18.4627C22.6355 18.5464 22.6225 18.6301 22.5928 18.7085C22.3561 19.1932 22.0599 19.2212 21.8993 19.1723C21.4954 19.0492 20.8653 18.763 20.648 18.678L16.3703 17.092C16.2875 17.0611 16.1993 17.0467 16.111 17.0499C16.0226 17.0531 15.9357 17.0736 15.8553 17.1104C15.7749 17.1472 15.7025 17.1995 15.6424 17.2643C15.5822 17.3291 15.5354 17.4051 15.5046 17.488C15.4739 17.5709 15.4598 17.6591 15.4632 17.7474C15.4666 17.8358 15.4873 17.9226 15.5243 18.0029C15.5613 18.0833 15.6138 18.1555 15.6787 18.2155C15.7437 18.2755 15.8198 18.3221 15.9028 18.3527L20.1694 19.9344C20.7405 20.0744 20.5567 20.8034 20.5567 20.8034C20.4824 20.9695 20.3544 21.1058 20.1933 21.1905C20.0322 21.2751 19.8473 21.3031 19.6684 21.2699C19.6415 21.2601 18.7233 21.0841 18.7233 21.0841C18.6606 20.8598 18.5591 20.6481 18.4235 20.4587C18.2634 20.2377 18.0535 20.0575 17.811 19.9325C17.5684 19.8076 17.2998 19.7414 17.0269 19.7394C16.628 19.7411 16.2423 19.8825 15.9368 20.1392C15.8815 20.0149 15.8136 19.8967 15.7341 19.7864C15.574 19.5654 15.3642 19.3851 15.1216 19.2602C14.879 19.1352 14.6104 19.0691 14.3375 19.0671C13.9386 19.0688 13.5529 19.2102 13.2474 19.4668C13.1921 19.3426 13.1242 19.2243 13.0447 19.114C12.8846 18.893 12.6747 18.7128 12.4321 18.5878C12.1895 18.4629 11.921 18.3967 11.6481 18.3947C11.3211 18.3966 11.0017 18.4933 10.7286 18.6732C10.6798 18.3459 10.5516 18.0356 10.3552 17.7693C10.1952 17.5483 9.98533 17.3681 9.74273 17.2431C9.50013 17.1182 9.23155 17.052 8.95867 17.05C8.56465 17.0589 8.18426 17.196 7.87514 17.4404C7.56602 17.6849 7.34502 18.0235 7.24562 18.4049L6.80964 19.8875C6.71798 20.195 6.69886 20.5196 6.75377 20.8357C6.80868 21.1519 6.93613 21.451 7.12611 21.7096C7.28621 21.9305 7.49603 22.1108 7.73863 22.2357C7.98123 22.3607 8.24981 22.4268 8.52269 22.4288C8.84968 22.4269 9.16909 22.3302 9.44221 22.1504C9.49095 22.4776 9.61912 22.788 9.81552 23.0542C9.97562 23.2752 10.1854 23.4555 10.428 23.5804C10.6706 23.7054 10.9392 23.7715 11.2121 23.7735C11.611 23.7718 11.9967 23.6304 12.3022 23.3738C12.3575 23.498 12.4254 23.6162 12.5049 23.7266C12.665 23.9476 12.8748 24.1278 13.1174 24.2528C13.36 24.3777 13.6286 24.4439 13.9015 24.4459C14.3004 24.4442 14.6861 24.3027 14.9916 24.0461C15.0469 24.1704 15.1148 24.2886 15.1943 24.3989C15.3544 24.6199 15.5643 24.8002 15.8069 24.9251C16.0495 25.0501 16.318 25.1162 16.5909 25.1182C16.9849 25.1095 17.3652 24.9726 17.6742 24.7281C17.9833 24.4836 18.2041 24.145 18.3033 23.7637L18.6964 22.4288L19.2403 22.545C19.4537 22.6195 19.6781 22.6575 19.9041 22.6573C20.2313 22.6622 20.5542 22.5827 20.8417 22.4265C21.1525 22.2363 21.4137 21.975 21.6039 21.6642C21.7941 21.3533 21.9078 21.0018 21.9358 20.6385C22.5087 20.5875 23.044 20.3319 23.4439 19.9185C23.8278 19.3058 23.9665 18.5709 23.8324 17.8604C23.9604 17.826 24.0847 17.779 24.2035 17.7201C24.4688 17.6066 24.7013 17.4281 24.8795 17.2012C25.0577 16.9742 25.1759 16.706 25.2232 16.4214C25.3056 15.9375 25.2328 15.44 25.0152 15C24.7976 14.5601 24.4463 14.2003 24.0117 13.9722ZM9.38151 19.2119L8.94554 20.6945C8.92588 20.796 8.87423 20.8887 8.79815 20.9588C8.72206 21.0289 8.62554 21.0728 8.52269 21.0841C8.45895 21.0814 8.39675 21.0637 8.34118 21.0324C8.2856 21.0011 8.23823 20.957 8.20293 20.9039C8.13839 20.8126 8.09555 20.7077 8.07768 20.5974C8.05982 20.487 8.0674 20.374 8.09985 20.267L8.53582 18.7844C8.55547 18.6828 8.60712 18.5902 8.6832 18.5201C8.75929 18.45 8.85582 18.406 8.95867 18.3947C9.02241 18.3974 9.08461 18.4151 9.14018 18.4465C9.19576 18.4778 9.24313 18.5218 9.27843 18.575C9.34297 18.6663 9.38581 18.7711 9.40367 18.8815C9.42154 18.9918 9.41396 19.1049 9.38151 19.2119ZM12.0709 20.5566L11.6349 22.0392C11.6153 22.1407 11.5636 22.2334 11.4876 22.3035C11.4115 22.3736 11.3149 22.4175 11.2121 22.4288C11.1484 22.4261 11.0862 22.4084 11.0306 22.3771C10.975 22.3458 10.9276 22.3017 10.8923 22.2486C10.8278 22.1573 10.785 22.0525 10.7671 21.9421C10.7492 21.8317 10.7568 21.7187 10.7893 21.6117L11.2252 20.1291C11.2449 20.0275 11.2965 19.9349 11.3726 19.8648C11.4487 19.7947 11.5452 19.7507 11.6481 19.7394C11.7118 19.7421 11.774 19.7598 11.8296 19.7912C11.8852 19.8225 11.9325 19.8665 11.9678 19.9197C12.0324 20.011 12.0752 20.1158 12.0931 20.2262C12.1109 20.3366 12.1034 20.4496 12.0709 20.5566ZM14.7603 21.2289L14.3244 22.7115C14.3047 22.8131 14.2531 22.9057 14.177 22.9758C14.1009 23.046 14.0044 23.0899 13.9015 23.1012C13.8378 23.0985 13.7756 23.0808 13.72 23.0494C13.6644 23.0181 13.617 22.9741 13.5817 22.9209C13.5172 22.8296 13.4744 22.7248 13.4565 22.6144C13.4386 22.5041 13.4462 22.3911 13.4787 22.2841L13.9146 20.8015C13.9343 20.6999 13.9859 20.6072 14.062 20.5371C14.1381 20.467 14.2346 20.4231 14.3375 20.4118C14.4012 20.4145 14.4634 20.4322 14.519 20.4635C14.5746 20.4948 14.6219 20.5389 14.6572 20.592C14.7218 20.6833 14.7646 20.7882 14.7825 20.8985C14.8004 21.0089 14.7928 21.1219 14.7603 21.2289ZM17.4504 21.9009L17.0131 23.3842C16.9935 23.4857 16.942 23.5782 16.866 23.6483C16.79 23.7183 16.6936 23.7622 16.5909 23.7735C16.5272 23.7709 16.465 23.7531 16.4094 23.7218C16.3538 23.6905 16.3065 23.6464 16.2712 23.5933C16.2066 23.502 16.1638 23.3972 16.1459 23.2868C16.128 23.1764 16.1356 23.0634 16.1681 22.9564L16.604 21.4738C16.6237 21.3722 16.6753 21.2796 16.7514 21.2095C16.8275 21.1394 16.924 21.0954 17.0269 21.0841C17.0906 21.0869 17.1528 21.1047 17.2083 21.136C17.2639 21.1673 17.3113 21.2113 17.3467 21.2644C17.4111 21.3556 17.454 21.4604 17.4719 21.5707C17.4899 21.681 17.4826 21.7939 17.4504 21.9009Z" fill="white"/>
<path d="M11.1946 10.6167C11.3619 10.6749 11.5451 10.6663 11.7062 10.5929C11.8673 10.5195 11.9939 10.3868 12.0597 10.2224C12.0908 10.1397 12.1053 10.0517 12.1024 9.96343C12.0994 9.87514 12.079 9.7883 12.0424 9.70791C12.0057 9.62753 11.9536 9.55517 11.8889 9.49501C11.8242 9.43485 11.7482 9.38806 11.6654 9.35734L9.00784 8.364L9.38243 7.16531C9.40915 7.07971 9.41849 6.98963 9.40989 6.90037C9.40129 6.8111 9.37492 6.72446 9.33234 6.64554C9.28976 6.56662 9.23183 6.49702 9.16195 6.44082C9.09207 6.38462 9.01165 6.34296 8.92544 6.3183L4.21897 4.97359C4.05025 4.92487 3.86914 4.94428 3.71457 5.02764C3.56 5.111 3.4443 5.25167 3.39232 5.41942L0.0305618 16.1771C0.00383591 16.2627 -0.00550071 16.3527 0.00310122 16.442C0.0117032 16.5313 0.0380699 16.6179 0.0806503 16.6968C0.123231 16.7757 0.181165 16.8453 0.251044 16.9015C0.320923 16.9577 0.401336 16.9994 0.487553 17.0241L5.19402 18.3688C5.36274 18.417 5.54364 18.3974 5.69809 18.3141C5.85255 18.2308 5.96831 18.0904 6.02067 17.9229L8.60621 9.6492L11.1946 10.6167ZM4.93269 16.8957L1.51971 15.9203L4.4803 6.44666L7.89328 7.42204L4.93269 16.8957Z" fill="white"/>
<path d="M16.1365 4.27532C16.3148 4.27532 16.4858 4.20449 16.6119 4.0784C16.738 3.95231 16.8088 3.78129 16.8088 3.60297V0.913563C16.8088 0.735244 16.738 0.564229 16.6119 0.438138C16.4858 0.312048 16.3148 0.241211 16.1365 0.241211C15.9581 0.241211 15.7871 0.312048 15.661 0.438138C15.5349 0.564229 15.4641 0.735244 15.4641 0.913563V3.60297C15.4641 3.78129 15.5349 3.95231 15.661 4.0784C15.7871 4.20449 15.9581 4.27532 16.1365 4.27532Z" fill="#1479FF"/>
<path d="M9.83914 5.47033C9.93208 5.62065 10.0789 5.72984 10.2496 5.7756C10.4203 5.82135 10.602 5.80024 10.7577 5.71655C10.8351 5.67326 10.903 5.61491 10.9574 5.54495C11.0118 5.47499 11.0517 5.39484 11.0746 5.30922C11.0976 5.2236 11.1032 5.13425 11.091 5.04644C11.0789 4.95864 11.0493 4.87415 11.0039 4.79798L9.65923 2.46904C9.57002 2.31468 9.42316 2.20206 9.25094 2.15594C9.07872 2.10983 8.89524 2.13399 8.74083 2.22312C8.58642 2.31225 8.47372 2.45905 8.42752 2.63125C8.38131 2.80344 8.40538 2.98694 8.49443 3.1414L9.83914 5.47033Z" fill="#1479FF"/>
<path d="M10.7577 24.3494C10.6032 24.2603 10.4197 24.2362 10.2474 24.2823C10.0752 24.3285 9.92831 24.4412 9.8391 24.5956L8.4944 26.9245C8.44571 26.9998 8.41335 27.0844 8.3994 27.1729C8.38546 27.2615 8.39025 27.3519 8.41345 27.4385C8.43665 27.5251 8.47776 27.6058 8.53412 27.6755C8.59047 27.7452 8.66082 27.8023 8.74062 27.8431C8.81701 27.8876 8.90145 27.9166 8.98908 27.9283C9.07672 27.94 9.1658 27.9342 9.2512 27.9113C9.33659 27.8884 9.41661 27.8489 9.48664 27.7949C9.55666 27.7409 9.61531 27.6736 9.65919 27.5969L11.0039 25.2679C11.093 25.1135 11.1171 24.9299 11.071 24.7577C11.0248 24.5854 10.9121 24.4386 10.7577 24.3494Z" fill="#1479FF"/>
<path d="M16.1365 25.7905C15.9581 25.7905 15.7871 25.8614 15.661 25.9875C15.5349 26.1135 15.4641 26.2846 15.4641 26.4629V29.1523C15.4641 29.3306 15.5349 29.5016 15.661 29.6277C15.7871 29.7538 15.9581 29.8246 16.1365 29.8246C16.3148 29.8246 16.4858 29.7538 16.6119 29.6277C16.738 29.5016 16.8088 29.3306 16.8088 29.1523V26.4629C16.8088 26.2846 16.738 26.1135 16.6119 25.9875C16.4858 25.8614 16.3148 25.7905 16.1365 25.7905Z" fill="#1479FF"/>
<path d="M22.4337 24.5956C22.3896 24.5191 22.3309 24.452 22.2608 24.3982C22.1907 24.3444 22.1108 24.3049 22.0254 24.282C21.9401 24.2591 21.8511 24.2533 21.7635 24.2648C21.676 24.2763 21.5915 24.3049 21.515 24.3491C21.4385 24.3933 21.3714 24.4521 21.3177 24.5221C21.2639 24.5922 21.2244 24.6722 21.2016 24.7576C21.1787 24.8429 21.1729 24.9319 21.1845 25.0195C21.196 25.107 21.2247 25.1915 21.2689 25.268L22.6136 27.5969C22.6561 27.6751 22.714 27.7438 22.7839 27.7989C22.8538 27.854 22.9341 27.8943 23.0201 27.9173C23.106 27.9403 23.1957 27.9456 23.2838 27.9329C23.3718 27.9201 23.4564 27.8896 23.5322 27.8431C23.6853 27.7527 23.7968 27.6058 23.8429 27.4341C23.8889 27.2624 23.8658 27.0794 23.7784 26.9245L22.4337 24.5956Z" fill="#1479FF"/>
<path d="M21.5152 5.71655C21.5913 5.76213 21.6758 5.79195 21.7636 5.80423C21.8515 5.81651 21.9409 5.811 22.0266 5.78803C22.1123 5.76506 22.1925 5.7251 22.2624 5.67053C22.3324 5.61595 22.3906 5.54787 22.4337 5.47033L23.7785 3.1414C23.8675 2.98694 23.8916 2.80344 23.8454 2.63125C23.7992 2.45905 23.6865 2.31225 23.5321 2.22312C23.3776 2.13399 23.1942 2.10983 23.0219 2.15594C22.8497 2.20206 22.7029 2.31468 22.6137 2.46904L21.2689 4.79798C21.2234 4.8741 21.1936 4.95859 21.1814 5.04644C21.1691 5.13429 21.1747 5.22371 21.1976 5.30938C21.2206 5.39506 21.2605 5.47525 21.3151 5.54519C21.3696 5.61513 21.4377 5.67341 21.5152 5.71655Z" fill="#1479FF"/>
</svg>
