<svg width="32" height="32" viewBox="0 0 32 32" fill="none" xmlns="http://www.w3.org/2000/svg">
    <path d="M25.3457 8.27401L27.0808 6.56145C27.56 6.0885 27.5601 5.32177 27.0809 4.84883C26.6017 4.37588 25.8249 4.37594 25.3458 4.84883L23.6106 6.56139C23.1315 7.03434 23.1314 7.80106 23.6106 8.27401C24.0897 8.7469 24.8666 8.74696 25.3457 8.27401Z" fill="#E0D700"/>
    <path d="M15.8026 5.08217C16.4802 5.08217 17.0295 4.54002 17.0295 3.8712V1.69144C17.0295 1.02262 16.4802 0.480469 15.8026 0.480469C15.125 0.480469 14.5757 1.02262 14.5757 1.69144V3.8712C14.5757 4.54002 15.125 5.08217 15.8026 5.08217Z" fill="#E0D700"/>
    <path d="M6.25926 8.27397C6.73843 8.74692 7.51526 8.74692 7.99437 8.27397C8.47354 7.80103 8.47354 7.0343 7.99437 6.56141L6.25926 4.84885C5.78009 4.3759 5.00326 4.3759 4.52415 4.84885C4.04504 5.3218 4.04498 6.08853 4.52415 6.56141L6.25926 8.27397Z" fill="#E0D700"/>
    <path d="M3.53327 14.7695H1.32482C0.647192 14.7695 0.0979004 15.3118 0.0979004 15.9808C0.0979004 16.6498 0.647192 17.1921 1.32482 17.1921H3.53327C4.2109 17.1921 4.76019 16.6498 4.76019 15.9808C4.76019 15.3118 4.2109 14.7695 3.53327 14.7695Z" fill="#E0D700"/>
    <path d="M30.2801 14.7695H28.0716C27.394 14.7695 26.8447 15.3118 26.8447 15.9808C26.8447 16.6498 27.394 17.1921 28.0716 17.1921H30.2801C30.9577 17.1921 31.507 16.6498 31.507 15.9808C31.507 15.3118 30.9577 14.7695 30.2801 14.7695Z" fill="#E0D700"/>
    <path d="M23.1643 24.2134H9.66817V15.9788C9.66817 12.6401 12.4202 9.9239 15.8028 9.9239C19.1854 9.9239 21.9374 12.6401 21.9374 15.9788V20.5805C21.9374 21.2493 22.4867 21.7915 23.1643 21.7915C23.8419 21.7915 24.3912 21.2493 24.3912 20.5805V15.9788C24.3912 11.3047 20.5384 7.50195 15.8028 7.50195C11.0671 7.50195 7.21434 11.3047 7.21434 15.9788V24.4217C5.78633 24.9216 4.7605 26.2676 4.7605 27.8463C4.7605 29.8495 6.41169 31.4793 8.44126 31.4793H23.1643C25.1939 31.4793 26.845 29.8495 26.845 27.8463C26.845 25.8431 25.1939 24.2134 23.1643 24.2134ZM23.1643 29.0573H8.44126C7.76473 29.0573 7.21434 28.5141 7.21434 27.8463C7.21434 27.1786 7.76473 26.6354 8.44126 26.6354H23.1643C23.8408 26.6354 24.3912 27.1786 24.3912 27.8463C24.3912 28.5141 23.8408 29.0573 23.1643 29.0573Z" fill="#E0D700"/>
    <path d="M15.8026 17.1896C15.125 17.1896 14.5757 16.6475 14.5757 15.9786V13.5567C14.5757 12.8879 15.125 12.3457 15.8026 12.3457C16.4802 12.3457 17.0295 12.8879 17.0295 13.5567V15.9786C17.0295 16.6475 16.4802 17.1896 15.8026 17.1896Z" fill="#E0D700"/>
    <path d="M15.8026 21.7937C16.4802 21.7937 17.0295 21.2514 17.0295 20.5824C17.0295 19.9134 16.4802 19.3711 15.8026 19.3711C15.125 19.3711 14.5757 19.9134 14.5757 20.5824C14.5757 21.2514 15.125 21.7937 15.8026 21.7937Z" fill="#E0D700"/>
</svg>
